<svg width="340" height="64" viewBox="0 0 340 64" fill="none" xmlns="http://www.w3.org/2000/svg">
<path d="M111.557 49.0788V45.7178C110.378 46.3651 109.108 46.9378 107.746 47.4357C106.401 47.9336 104.998 48.3568 103.537 48.7054C102.076 49.0539 100.565 49.3112 99.0037 49.4772C97.4595 49.6598 95.8987 49.751 94.3213 49.751C92.4782 49.751 90.6932 49.5768 88.9664 49.2282C87.2561 48.8797 85.7368 48.3154 84.4085 47.5353C83.0801 46.7552 82.0091 45.7344 81.1955 44.473C80.3985 43.2116 80 41.668 80 39.8423C80 37.5353 80.631 35.6183 81.8929 34.0913C83.1548 32.5477 85.0809 31.2863 87.6712 30.3071C90.2615 29.3278 93.5326 28.5726 97.4844 28.0415C101.453 27.5104 106.144 27.0954 111.557 26.7967V26.0747C111.557 25.5104 111.407 24.9544 111.108 24.4066C110.809 23.8423 110.262 23.3527 109.465 22.9378C108.684 22.5062 107.605 22.1577 106.227 21.8921C104.865 21.6266 103.122 21.4938 100.996 21.4938C99.3192 21.4938 97.6588 21.5851 96.0149 21.7676C94.3877 21.9336 92.8103 22.166 91.2827 22.4647C89.7717 22.7635 88.3354 23.112 86.9738 23.5104C85.6123 23.9087 84.3753 24.3237 83.2628 24.7552V16.5394C84.4251 16.2407 85.7285 15.9502 87.1731 15.668C88.6177 15.3859 90.1204 15.1452 91.6812 14.9461C93.242 14.7303 94.8194 14.5643 96.4135 14.4481C98.0075 14.3154 99.5351 14.249 100.996 14.249C103.869 14.249 106.517 14.4896 108.941 14.971C111.366 15.4357 113.45 16.166 115.193 17.1618C116.953 18.1577 118.323 19.4191 119.303 20.9461C120.299 22.473 120.797 24.2905 120.797 26.3983V49.0788H111.557ZM111.557 33.4689C108.003 33.6017 104.981 33.7925 102.491 34.0415C100.017 34.2905 97.9577 34.5809 96.3138 34.9129C94.67 35.2448 93.3748 35.6017 92.4284 35.9834C91.4985 36.3652 90.8012 36.7552 90.3362 37.1535C89.8713 37.5519 89.5807 37.9502 89.4645 38.3485C89.3649 38.7469 89.3151 39.112 89.3151 39.444C89.3151 39.8423 89.423 40.2324 89.6389 40.6141C89.8547 40.9793 90.2283 41.3029 90.7597 41.5851C91.3076 41.8672 92.0299 42.0913 92.9265 42.2573C93.8232 42.4232 94.9523 42.5062 96.3138 42.5062C97.8248 42.5062 99.3026 42.39 100.747 42.1577C102.192 41.9253 103.562 41.61 104.857 41.2116C106.152 40.7967 107.364 40.3154 108.493 39.7676C109.639 39.2033 110.66 38.6058 111.557 37.9751V33.4689Z" fill="#040921"/>
<path d="M140.598 14.8714V18.6307C141.411 18.1162 142.291 17.5851 143.238 17.0373C144.201 16.4896 145.239 15.9917 146.351 15.5436C147.48 15.0954 148.684 14.7303 149.963 14.4481C151.258 14.1494 152.653 14 154.147 14C155.608 14 156.887 14.1577 157.983 14.473C159.078 14.7718 160.025 15.1701 160.822 15.668C161.636 16.1494 162.325 16.6971 162.889 17.3112C163.454 17.9087 163.944 18.5062 164.359 19.1037C165.538 18.3403 166.7 17.6432 167.846 17.0124C168.991 16.3817 170.145 15.8423 171.308 15.3942C172.47 14.9461 173.657 14.6058 174.869 14.3734C176.081 14.1245 177.343 14 178.655 14C180.747 14 182.615 14.2905 184.259 14.8714C185.919 15.4523 187.323 16.249 188.468 17.2614C189.614 18.2739 190.486 19.4689 191.083 20.8465C191.698 22.2075 192.005 23.6681 192.005 25.2282V49.0788H182.765V26.5477C182.765 25.6349 182.623 24.8465 182.341 24.1826C182.059 23.5187 181.677 22.9793 181.196 22.5643C180.731 22.1494 180.174 21.8423 179.527 21.6432C178.896 21.444 178.223 21.3444 177.509 21.3444C174.188 21.3444 170.403 22.8382 166.152 25.8257C166.202 26.1079 166.235 26.4398 166.252 26.8216C166.285 27.2033 166.301 27.5851 166.301 27.9668V49.0788H157.061V26.3485C157.061 25.4357 156.92 24.6639 156.638 24.0332C156.355 23.3859 155.965 22.8631 155.467 22.4647C154.985 22.0664 154.421 21.7842 153.773 21.6183C153.142 21.4357 152.47 21.3444 151.756 21.3444C150.892 21.3444 149.979 21.4689 149.016 21.7178C148.07 21.9668 147.107 22.3154 146.127 22.7635C145.164 23.2116 144.209 23.7427 143.263 24.3568C142.333 24.971 141.445 25.6349 140.598 26.3485V49.0788H131.357V14.8714H140.598Z" fill="#040921"/>
<path d="M241.046 26.5477C241.046 28.2573 240.797 29.834 240.299 31.278C239.801 32.7054 238.995 33.9419 237.883 34.9876C236.787 36.0166 235.359 36.8216 233.599 37.4025C231.839 37.9834 229.697 38.2739 227.173 38.2739H211.831V49.0788H202.59V14.8714H227.173C229.697 14.8714 231.839 15.1618 233.599 15.7427C235.359 16.3071 236.787 17.112 237.883 18.1577C238.995 19.1867 239.801 20.4149 240.299 21.8423C240.797 23.2697 241.046 24.8382 241.046 26.5477ZM231.706 26.6971C231.706 25.9004 231.59 25.2199 231.357 24.6556C231.142 24.0747 230.776 23.6017 230.262 23.2365C229.747 22.8714 229.074 22.6058 228.244 22.4398C227.414 22.2573 226.393 22.166 225.181 22.166H211.831V30.9793H225.181C226.393 30.9793 227.414 30.9129 228.244 30.7801C229.074 30.6307 229.747 30.39 230.262 30.0581C230.776 29.7095 231.142 29.2614 231.357 28.7137C231.59 28.166 231.706 27.4938 231.706 26.6971Z" fill="#040921"/>
<path d="M286.874 47.3859C284.068 48.3154 281.262 48.9793 278.456 49.3776C275.666 49.7925 272.81 50 269.888 50C266.152 50 262.823 49.6017 259.9 48.805C256.995 47.9917 254.545 46.8216 252.553 45.2946C250.56 43.7676 249.041 41.9004 247.995 39.6929C246.949 37.4855 246.426 34.9876 246.426 32.1992C246.426 29.61 246.949 27.2116 247.995 25.0042C249.058 22.7801 250.552 20.8548 252.478 19.2282C254.421 17.5851 256.762 16.3071 259.502 15.3942C262.242 14.4647 265.297 14 268.667 14C271.772 14 274.612 14.4232 277.186 15.2697C279.776 16.0996 281.993 17.3361 283.836 18.9793C285.695 20.6224 287.132 22.6473 288.144 25.0539C289.174 27.4606 289.689 30.2324 289.689 33.3693V35.6598H255.965C256.264 36.7386 256.754 37.7261 257.435 38.6224C258.132 39.5187 259.07 40.2822 260.249 40.9129C261.428 41.5436 262.873 42.0332 264.583 42.3817C266.31 42.7303 268.369 42.9046 270.76 42.9046C272.453 42.9046 274.114 42.805 275.741 42.6058C277.368 42.39 278.888 42.1162 280.299 41.7842C281.71 41.4357 282.98 41.0539 284.11 40.639C285.255 40.2241 286.177 39.8091 286.874 39.3942V47.3859ZM280.498 28.888C280.415 28.0415 280.158 27.1701 279.726 26.2739C279.311 25.361 278.647 24.5394 277.733 23.8091C276.82 23.0788 275.625 22.4813 274.147 22.0166C272.669 21.5353 270.826 21.2946 268.618 21.2946C266.542 21.2946 264.749 21.5519 263.238 22.0664C261.727 22.5809 260.457 23.2199 259.427 23.9834C258.414 24.7469 257.626 25.5685 257.061 26.4481C256.496 27.3278 256.131 28.1411 255.965 28.888H280.498Z" fill="#040921"/>
<path d="M340 31.9502C340 34.1411 339.759 36.0913 339.278 37.8008C338.796 39.4938 338.115 40.971 337.235 42.2324C336.372 43.4938 335.326 44.5643 334.097 45.444C332.885 46.3237 331.532 47.029 330.037 47.5602C328.543 48.0913 326.932 48.4813 325.205 48.7303C323.479 48.9627 321.677 49.0788 319.801 49.0788H298.082V14.8714H319.751C321.627 14.8714 323.429 14.9959 325.156 15.2448C326.883 15.4772 328.493 15.8589 329.988 16.39C331.499 16.9212 332.868 17.6266 334.097 18.5062C335.326 19.3693 336.372 20.4398 337.235 21.7178C338.115 22.9793 338.796 24.4564 339.278 26.1494C339.759 27.8423 340 29.7759 340 31.9502ZM330.685 31.9502C330.685 30.3071 330.469 28.8797 330.037 27.6681C329.622 26.4564 328.941 25.4606 327.995 24.6805C327.065 23.8838 325.845 23.2946 324.334 22.9129C322.823 22.5145 320.98 22.3154 318.804 22.3154H307.323V41.6349H318.804C320.98 41.6349 322.823 41.444 324.334 41.0622C325.845 40.6639 327.065 40.0664 327.995 39.2697C328.941 38.4564 329.622 37.444 330.037 36.2324C330.469 35.0208 330.685 33.5934 330.685 31.9502Z" fill="#040921"/>
<path fill-rule="evenodd" clip-rule="evenodd" d="M16 0C7.16344 0 0 7.16344 0 16V48C0 56.8366 7.16344 64 16 64H48C56.8366 64 64 56.8366 64 48V16C64 7.16344 56.8366 0 48 0H16ZM45.2917 19.7C45.5317 19.92 45.8317 20.0267 46.1333 20.0267C46.4733 20.0267 46.8117 19.89 47.0583 19.62C47.5233 19.1083 47.4867 18.3183 46.9767 17.8533C42.835 14.0783 37.5167 12 32 12C26.4833 12 21.165 14.0783 17.0233 17.8533C16.5133 18.3183 16.4767 19.11 16.9417 19.62C17.4067 20.1283 18.1967 20.1667 18.7083 19.7017C22.3867 16.3467 27.1067 14.5 32 14.5C36.8933 14.5 41.6133 16.3467 45.2917 19.7ZM48.25 28.195C47.8483 28.195 47.4517 28.0017 47.2117 27.6417C43.7417 22.475 38.055 19.39 32 19.39C25.945 19.39 20.2583 22.475 16.7883 27.6417C16.4033 28.2167 15.625 28.3683 15.0533 27.9833C14.48 27.5983 14.3267 26.8217 14.7117 26.2483C18.6467 20.39 25.11 16.8917 32 16.8917C38.89 16.8917 45.3533 20.39 49.2883 26.25C49.6733 26.8233 49.5217 27.6 48.9467 27.985C48.7333 28.1267 48.4917 28.195 48.25 28.195ZM27.1633 51.63C27.4083 51.8767 27.73 52 28.0517 52C28.37 52 28.6883 51.88 28.9317 51.6383C29.4233 51.1517 29.4267 50.36 28.94 49.87C28.88 49.81 22.985 43.8 22.985 38.5217C22.985 33.3667 27.0283 29.1733 32 29.1733C36.9717 29.1733 41.015 33.3667 41.015 38.5217C41.015 39.2117 41.575 39.7717 42.265 39.7717C42.955 39.7717 43.515 39.2117 43.515 38.5217C43.515 31.9883 38.35 26.6733 32 26.6733C25.65 26.6733 20.485 31.9883 20.485 38.5217C20.485 44.8167 26.89 51.355 27.1633 51.63ZM35.9483 52C32.9417 52 25.9717 46.28 25.2967 39.91C25.0583 37.6583 25.775 35.355 27.2117 33.7483C28.4617 32.3517 30.15 31.5767 31.965 31.5667H32C33.77 31.5667 35.4433 32.2617 36.7167 33.5267C38.0467 34.8483 38.7783 36.6233 38.7783 38.5233V39.3383C38.7783 41.3467 40.3417 42.98 42.265 42.98C44.1883 42.98 45.7533 41.3467 45.7533 39.3383V39.0533C45.7533 31.27 40.115 24.795 32.9167 24.315C29.165 24.06 25.5633 25.3567 22.785 27.9533C19.9017 30.65 18.2483 34.5033 18.2483 38.5233C18.2483 41.83 19.3683 45.0517 21.4017 47.595C21.8317 48.135 21.745 48.92 21.205 49.3517C20.6667 49.7833 19.88 49.6967 19.4483 49.155C17.0633 46.17 15.7483 42.3933 15.7483 38.5217C15.7483 33.8117 17.6917 29.2933 21.0767 26.1267C24.365 23.05 28.63 21.5183 33.0817 21.8183C41.5883 22.3867 48.2533 29.9567 48.2533 39.0517V39.3367C48.2533 42.7233 45.5667 45.4783 42.265 45.4783C38.9633 45.4783 36.2783 42.7233 36.2783 39.3367V38.5217C36.2783 37.2917 35.8083 36.1483 34.955 35.2983C34.155 34.5017 33.1067 34.065 32.0017 34.065H31.9783C30.57 34.0717 29.6217 34.8033 29.075 35.415C28.1 36.5033 27.6167 38.0867 27.7817 39.6467C28.3333 44.8433 34.305 49.5017 35.9483 49.5017C36.6383 49.5017 37.1983 50.0617 37.1983 50.7517C37.1983 51.4417 36.6383 52 35.9483 52ZM30.6517 37.7067C30.6517 44.0883 36.1133 49.555 40.5867 49.555C41.2767 49.555 41.8367 48.995 41.8367 48.305C41.8367 47.615 41.2767 47.055 40.5867 47.055C37.31 47.055 33.1517 42.6533 33.1517 37.7067C33.1517 37.0167 32.5917 36.4567 31.9017 36.4567C31.2117 36.4567 30.6517 37.0167 30.6517 37.7067Z" fill="#040921"/>
</svg>
