<svg width="24" height="24" viewBox="0 0 24 24" fill="none" xmlns="http://www.w3.org/2000/svg">
<g opacity="0.2" clip-path="url(#clip0_566_2097)">
<path d="M10.1299 18.5303L9.59961 19.0607L8.53895 18L9.06928 17.4697L10.1299 18.5303ZM15.5996 12L16.1299 11.4697C16.2706 11.6103 16.3496 11.8011 16.3496 12C16.3496 12.1989 16.2706 12.3897 16.1299 12.5303L15.5996 12ZM9.06928 6.53033L8.53895 6L9.59961 4.93934L10.1299 5.46967L9.06928 6.53033ZM9.06928 17.4697L15.0693 11.4697L16.1299 12.5303L10.1299 18.5303L9.06928 17.4697ZM15.0693 12.5303L9.06928 6.53033L10.1299 5.46967L16.1299 11.4697L15.0693 12.5303Z" fill="#1F1F1F"/>
</g>
<defs>
<clipPath id="clip0_566_2097">
<rect width="24" height="24" fill="white" transform="translate(24) rotate(90)"/>
</clipPath>
</defs>
</svg>
