<svg width="24" height="24" viewBox="0 0 24 24" fill="none" xmlns="http://www.w3.org/2000/svg">
<g opacity="0.2" clip-path="url(#clip0_566_2100)">
<path d="M13.8701 5.46967L14.4004 4.93934L15.461 6L14.9307 6.53033L13.8701 5.46967ZM8.40039 12L7.87006 12.5303C7.72941 12.3897 7.65039 12.1989 7.65039 12C7.65039 11.8011 7.72941 11.6103 7.87006 11.4697L8.40039 12ZM14.9307 17.4697L15.4611 18L14.4004 19.0607L13.8701 18.5303L14.9307 17.4697ZM14.9307 6.53033L8.93072 12.5303L7.87006 11.4697L13.8701 5.46967L14.9307 6.53033ZM8.93072 11.4697L14.9307 17.4697L13.8701 18.5303L7.87006 12.5303L8.93072 11.4697Z" fill="#1F1F1F"/>
</g>
<defs>
<clipPath id="clip0_566_2100">
<rect width="24" height="24" fill="white" transform="translate(0 24) rotate(-90)"/>
</clipPath>
</defs>
</svg>
