<svg width="96" height="96" viewBox="0 0 96 96" fill="none" xmlns="http://www.w3.org/2000/svg">
<path d="M0.00858424 34.924C0.451442 42.4524 0.414318 48.6953 0.381507 54.2035C0.294698 68.8069 0.158765 78.3214 10.4279 88.5905C20.2966 98.459 36.3546 98.4598 46.2238 88.5905C46.2237 88.5907 46.224 88.5904 46.2238 88.5905L74.065 60.7492C77.3623 57.4521 77.3628 52.1148 74.065 48.8172C73.3681 48.1203 72.5784 47.5709 71.7356 47.1693L76.3498 42.5551C79.6393 39.2655 79.6393 33.913 76.3498 30.6231C75.5739 29.8472 74.6826 29.2568 73.7313 28.8468C75.5653 25.6523 75.1487 21.4672 72.3723 18.691C71.6375 17.9562 70.7994 17.3868 69.9047 16.9803C71.9883 13.7489 71.6582 9.34415 68.77 6.4562C66.0229 3.70905 61.838 3.25814 58.619 5.09631C58.2018 4.13185 57.6035 3.24426 56.838 2.47892C53.5486 -0.810643 48.1957 -0.810831 44.9097 2.47535C44.7387 2.6456 30.026 17.3051 20.6047 26.7129L19.1581 16.4856C19.0442 11.9351 15.3256 8.2655 10.724 8.2655C6.11728 8.2655 2.39987 11.9407 2.28943 16.4962C2.28737 16.5741 2.28887 16.652 2.29337 16.7297C2.51855 20.5541 2.64061 24.4039 2.67417 28.7395C0.776367 30.5175 -0.0973491 33.0477 0.00858424 34.924ZM70.0877 56.7721L42.2466 84.6133C34.571 92.289 22.0812 92.2892 14.4052 84.6133C5.87636 76.0844 5.91985 68.7831 6.00629 54.2368C6.03929 48.6765 6.07678 42.3792 5.63168 34.7308C5.77248 32.324 8.71687 31.1972 10.4279 32.9082C11.3821 33.8624 11.0167 34.273 11.2797 35.2928C11.2803 35.2978 11.281 35.3029 11.282 35.3078L13.5394 51.2713C13.8637 53.5624 16.6746 54.5049 18.3129 52.8659C23.1671 48.0109 17.8041 53.371 46.3046 24.8805C47.4062 23.8608 49.1304 23.8831 50.2011 24.9537C51.3004 26.0529 51.3004 27.8317 50.2011 28.9309C50.2007 28.9313 50.2006 28.9317 50.2002 28.9321L38.2691 40.863C37.1708 41.9613 37.1708 43.7419 38.2691 44.8403C39.367 45.9386 41.1479 45.9386 42.2464 44.8403C43.1801 43.9065 57.2259 29.8609 58.1559 28.9309C59.2527 27.8345 61.0367 27.8345 62.133 28.9311C63.2322 30.0304 63.2322 31.8091 62.133 32.9084C62.133 32.9084 47.1555 47.8859 46.2237 48.8177C45.1253 49.9161 45.1253 51.6967 46.2237 52.795C47.3218 53.8933 49.1026 53.8933 50.2009 52.795L62.133 40.863C63.2298 39.7663 65.0142 39.7665 66.1102 40.863C67.2069 41.9596 67.2071 43.7438 66.1104 44.8403C64.1249 46.8258 55.0446 55.9061 54.1784 56.7723C53.0801 57.8706 53.0801 59.6512 54.1784 60.7496C55.2766 61.8479 57.0574 61.8479 58.1557 60.7496L66.1245 52.7808C67.2225 51.6984 68.9958 51.7032 70.0877 52.7948C71.187 53.8939 71.187 55.6728 70.0877 56.7721ZM68.3952 22.6687C69.4945 23.768 69.4945 25.5467 68.3952 26.646L67.7606 27.2806C67.3524 26.4281 66.7985 25.6416 66.1102 24.9535C65.4221 24.2654 64.6358 23.7115 63.7831 23.3034L64.4193 22.6674C65.5159 21.5722 67.2993 21.5726 68.3952 22.6687ZM72.3727 38.578L71.7343 39.2164C71.3327 38.3733 70.785 37.5828 70.0877 36.8855C69.3906 36.1884 68.6002 35.6406 67.757 35.2389L68.3952 34.6007C69.4921 33.5041 71.2764 33.5043 72.3725 34.6005C73.469 35.6972 73.4691 37.4814 72.3727 38.578ZM64.7929 10.4339C65.8888 11.5297 65.8931 13.3034 64.7999 14.4042C64.4414 14.7599 66.872 12.3485 55.8285 23.3035C55.4204 22.451 54.8665 21.6645 54.1782 20.9762C53.4871 20.2851 52.7041 19.7412 51.8692 19.3403C52.3704 18.8414 60.5029 10.7449 60.8153 10.4337C61.9127 9.33702 63.6965 9.3374 64.7929 10.4339ZM20.5977 34.6718C28.9978 26.2704 48.6821 6.65719 48.8834 6.45657C49.9804 5.35993 51.7642 5.36012 52.8609 6.45657C53.9101 7.50578 53.9489 9.15515 53.0263 10.2516C26.7255 36.4995 65.3944 -2.17521 18.3197 44.904L16.9079 34.9213C18.0343 35.7776 19.6081 35.6617 20.5977 34.6718ZM7.91646 16.5366C8.05671 14.1303 11.0018 13.0034 12.7127 14.7141C13.6669 15.6685 13.3013 16.0787 13.5643 17.0985C13.5651 17.1037 15.4085 30.139 15.4085 30.139C13.755 27.7278 11.0662 26.4133 8.27345 26.4677C8.21982 22.9683 8.1032 19.7446 7.91646 16.5366Z" fill="white"/>
<path d="M93.1874 17.2571H87.5626C86.0094 17.2571 84.7502 18.5163 84.7502 20.0695C84.7502 21.6227 86.0094 22.8819 87.5626 22.8819H93.1874C94.7406 22.8819 95.9998 21.6227 95.9998 20.0695C95.9998 18.5163 94.7408 17.2571 93.1874 17.2571Z" fill="white"/>
<path d="M83.739 10.4336L89.3638 4.80884C90.4621 3.71051 90.4621 1.92989 89.3638 0.831562C88.2656 -0.266771 86.4848 -0.266771 85.3865 0.831562L79.7617 6.45634C78.6634 7.55467 78.6634 9.33529 79.7617 10.4336C80.8599 11.532 82.6407 11.5321 83.739 10.4336Z" fill="white"/>
</svg>
