<svg width="40" height="40" viewBox="0 0 40 40" fill="none" xmlns="http://www.w3.org/2000/svg">
<g clip-path="url(#clip0)">
<path d="M20.0386 20.7031C20.4698 20.7031 20.8198 20.3531 20.8198 19.9219C20.8198 19.4907 20.4698 19.1406 20.0386 19.1406C19.6074 19.1406 19.2573 19.4907 19.2573 19.9219C19.2573 20.3531 19.6074 20.7031 20.0386 20.7031Z"  />
<path d="M20.8198 5.85939V0.703127C20.8198 0.271607 20.4701 -0.078125 20.0386 -0.078125C19.6071 -0.078125 19.2573 0.271607 19.2573 0.703127V5.85939C19.2573 6.29091 19.6071 6.64064 20.0386 6.64064C20.4701 6.64064 20.8198 6.29091 20.8198 5.85939Z"  />
<path d="M10.6635 9.15387C11.0373 8.93842 11.1652 8.46051 10.9494 8.08667L8.60564 4.02752C8.38988 3.65368 7.91228 3.52581 7.53844 3.74157C7.1649 3.95733 7.03673 4.43493 7.25249 4.80877L9.59625 8.86792C9.81292 9.24359 10.2917 9.36871 10.6635 9.15387Z"  />
<path d="M30.4809 8.86792L32.8246 4.80877C33.0404 4.43493 32.9125 3.95733 32.5387 3.74157C32.1648 3.52581 31.6872 3.65368 31.4715 4.02752L29.1277 8.08667C28.912 8.46051 29.0401 8.93842 29.4137 9.15387C29.786 9.36902 30.2645 9.24298 30.4809 8.86792V8.86792Z"  />
<path d="M3.80734 20.4148L3.81008 20.4181C3.81039 20.4184 3.81069 20.419 3.811 20.4193L19.4324 39.6335C19.4342 39.636 19.4366 39.6378 19.4385 39.6403C19.5914 39.8237 19.8169 39.9219 20.0384 39.9219C20.2713 39.9219 20.4977 39.8142 20.6445 39.6335L36.2659 20.4193C36.2662 20.4187 36.2665 20.4184 36.2668 20.4181L36.2696 20.4148C36.4585 20.1825 36.4459 19.914 36.4447 19.9219C36.4447 19.7434 36.3797 19.567 36.2735 19.4339L30.0235 11.6214C29.8724 11.4325 29.6411 11.3281 29.4135 11.3281H10.6634C10.6607 11.3281 10.6579 11.3287 10.6552 11.3287C10.4226 11.3312 10.1986 11.4395 10.0531 11.6214L3.80306 19.4339C3.57052 19.7254 3.58029 20.1355 3.80734 20.4148V20.4148ZM6.05557 20.7031H12.8171L17.8473 35.207L6.05557 20.7031ZM22.2296 35.207L27.2598 20.7031H34.0216L22.2296 35.207ZM29.6878 13.7027L34.0381 19.1406H27.8018L29.6878 13.7027ZM28.3157 12.8906L26.4008 18.4116L21.7242 12.8906H28.3157ZM24.9707 19.1406H23.1635C22.7319 19.1406 22.3822 19.4904 22.3822 19.9219C22.3822 20.3534 22.7319 20.7031 23.1635 20.7031H25.6061L20.0384 36.7563L14.4708 20.7031H16.9134C17.345 20.7031 17.6947 20.3534 17.6947 19.9219C17.6947 19.4904 17.345 19.1406 16.9134 19.1406H15.1062L20.0384 13.3182L24.9707 19.1406ZM18.353 12.8906L13.6761 18.4116L11.7615 12.8906H18.353ZM10.3891 13.7027L12.2751 19.1406H6.03879L10.3891 13.7027Z"  />
</g>
<defs>
<clipPath id="clip0">
<rect width="39.922" height="40" fill="white"/>
</clipPath>
</defs>
</svg>
