<svg width="25" height="24" viewBox="0 0 25 24" fill="none" xmlns="http://www.w3.org/2000/svg">
    <path d="M22.973 11.685 20.161 6.06c-.136-.238-.327-.388-.63-.388H5.47c-.294 0-.49.146-.629.388l-2.812 5.625a.7.7 0 0 0 .099.777l9.843 11.297a.703.703 0 0 0 1.06 0l9.845-11.297a.7.7 0 0 0 .098-.777zm-4.579-4.607-1.795 3.59-2.692-3.59h4.487zm-3.08 4.219H9.687l2.813-3.75 2.812 3.75zm-4.22-4.219-2.692 3.59-1.795-3.59h4.487zm-5.625.87 1.675 3.349h-3.35l1.675-3.35zm-1.267 4.755h3.615l3.467 8.127-7.082-8.127zm8.299 7.396-3.155-7.396h6.309L12.5 20.1zm1.216.731 3.467-8.127h3.615l-7.082 8.127zm4.14-9.533 1.675-3.35 1.675 3.35h-3.35zM12.5 0a.703.703 0 0 0-.703.703v1.453a.703.703 0 0 0 1.406 0V.703A.703.703 0 0 0 12.5 0zM9.515 3.1l-.994-.994a.703.703 0 1 0-.995.995l.995.994a.703.703 0 1 0 .994-.994zM17.472 2.106a.703.703 0 0 0-.994 0l-.995.995a.703.703 0 1 0 .995.994l.994-.994a.703.703 0 0 0 0-.995z" fill="#000"/>
</svg>
