<svg width="24" height="24" viewBox="0 0 24 24" fill="none" xmlns="http://www.w3.org/2000/svg">
<path d="M24 12C24 10.257 23.0809 8.67417 21.6106 7.80483C21.7833 7.10963 21.7177 6.37195 21.412 5.70262C21.0852 4.98703 20.5188 4.42767 19.8173 4.11197C19.746 3.0863 19.325 2.12869 18.604 1.37245C17.7601 0.487406 16.6217 0 15.3984 0C14.0694 0 12.8298 0.598547 12 1.58869C11.1703 0.598547 9.93066 0 8.60156 0C7.37827 0 6.23986 0.487406 5.39602 1.3725C4.67498 2.12873 4.254 3.0863 4.1827 4.11202C3.48113 4.42772 2.91473 4.98708 2.58797 5.70267C2.2823 6.372 2.21672 7.10972 2.38941 7.80487C0.919125 8.67417 0 10.257 0 12C0 13.743 0.919125 15.3258 2.38941 16.1952C2.21672 16.8904 2.28234 17.628 2.58797 18.2974C2.91478 19.013 3.48117 19.5723 4.1827 19.888C4.254 20.9137 4.67498 21.8713 5.39602 22.6275C6.23986 23.5126 7.37827 24 8.60156 24C9.93066 24 11.1703 23.4015 12 22.4113C12.8298 23.4015 14.0694 24 15.3984 24C16.6217 24 17.7601 23.5126 18.604 22.6275C19.325 21.8713 19.746 20.9137 19.8173 19.888C20.5189 19.5723 21.0853 19.0129 21.412 18.2973C21.7177 17.628 21.7833 16.8903 21.6106 16.1951C23.0809 15.3258 24 13.743 24 12V12ZM20.5993 15.1406H17.25V13.1195H19.7344C20.1227 13.1195 20.4375 12.8047 20.4375 12.4163C20.4375 12.3607 20.4375 10.3594 20.4375 10.3594C20.4375 9.97111 20.1226 9.6563 19.7343 9.6563C19.346 9.6563 19.0312 9.97111 19.0312 10.3594V11.7132H17.25V10.4945C17.25 9.71906 16.6192 9.08822 15.8438 9.08822H14.4375C14.0492 9.08822 13.7344 9.40303 13.7344 9.79134C13.7344 10.1797 14.0492 10.4945 14.4375 10.4945H15.8438V15.1406H12.7029V13.875C12.7029 13.4867 12.3881 13.1719 11.9998 13.1719C11.6115 13.1719 11.2967 13.4867 11.2967 13.875V15.1406C11.2967 15.916 11.9275 16.5469 12.7029 16.5469H20.2483C20.3407 16.9327 20.3026 17.3415 20.1328 17.7132C19.9057 18.2106 19.4731 18.5734 18.9459 18.7086C18.6227 18.7914 18.4023 19.0899 18.4182 19.4232C18.4581 20.2592 18.1626 21.0526 17.5861 21.6572C17.0103 22.2611 16.2334 22.5938 15.3984 22.5938C14.2595 22.5938 13.217 21.9495 12.7031 20.941V19.4531H13.9688C14.3571 19.4531 14.6719 19.1383 14.6719 18.75C14.6719 18.3617 14.3571 18.0469 13.9688 18.0469H12.7031C11.9277 18.0469 11.2969 18.6777 11.2969 19.4531V20.9409C10.7831 21.9495 9.74058 22.5938 8.60156 22.5938C7.76662 22.5938 6.98967 22.2611 6.41381 21.6571C5.99911 21.2222 5.7308 20.6894 5.62716 20.1135H7.3125C8.08791 20.1135 8.71875 19.4826 8.71875 18.7072V17.838H9.32812C9.71644 17.838 10.0312 17.5232 10.0312 17.1349C10.0312 16.7466 9.71644 16.4318 9.32812 16.4318H8.71875V15.5625C8.71875 14.7871 8.08791 14.1562 7.3125 14.1562H6.09375C5.70544 14.1562 5.39062 14.4711 5.39062 14.8594C5.39062 15.2477 5.70544 15.5625 6.09375 15.5625H7.3125V18.7072C7.3125 18.7072 5.05584 18.709 5.05406 18.7085C4.52686 18.5733 4.09425 18.2106 3.86714 17.7132C3.63952 17.2147 3.64833 16.6496 3.89147 16.1627C3.97833 15.9886 3.98925 15.7864 3.92161 15.604C3.85397 15.4217 3.71377 15.2755 3.53438 15.2003C2.24156 14.6579 1.40625 13.4017 1.40625 12C1.40625 10.5983 2.24156 9.34209 3.53433 8.7998C3.55509 8.79108 3.5752 8.78119 3.59489 8.77064H4.68745V10.88C4.68745 11.2683 5.00227 11.5831 5.39058 11.5831C5.77889 11.5831 6.0937 11.2683 6.0937 10.88V8.77064H8.71875V12.1925C8.71875 12.5808 9.03356 12.8956 9.42188 12.8956C9.81019 12.8956 10.125 12.5808 10.125 12.1925V10.9269H10.8102C11.1985 10.9269 11.5133 10.6121 11.5133 10.2238C11.5133 9.83545 11.1985 9.52064 10.8102 9.52064H10.125V8.77064C10.125 7.99523 9.49416 7.36439 8.71875 7.36439H8.29692V5.48438C8.29692 5.09606 7.98211 4.78125 7.5938 4.78125C7.20548 4.78125 6.89067 5.09606 6.89067 5.48438V7.36434H3.73266C3.66581 7.00509 3.71034 6.63014 3.86714 6.28678C4.0943 5.78939 4.52686 5.42663 5.05406 5.29144C5.37722 5.20856 5.59767 4.91006 5.58173 4.57683C5.54184 3.74081 5.83734 2.94741 6.41381 2.34281C6.98967 1.73887 7.76662 1.40625 8.60156 1.40625C9.77639 1.40625 10.8486 2.0917 11.3438 3.1553V5.53125C11.3438 6.30666 11.9746 6.9375 12.75 6.9375H16.5C16.8883 6.9375 17.2031 6.62269 17.2031 6.23438C17.2031 5.84606 16.8883 5.53125 16.5 5.53125H16.3594V4.54688C16.3594 4.15856 16.0446 3.84375 15.6562 3.84375C15.2679 3.84375 14.9531 4.15856 14.9531 4.54688V5.53125H12.75C12.75 5.53125 12.7487 2.99981 12.7464 2.9767C13.2742 2.01558 14.2908 1.40625 15.3984 1.40625C16.2334 1.40625 17.0103 1.73887 17.5862 2.34286C18.1627 2.94745 18.4582 3.74081 18.4183 4.57687C18.4023 4.91011 18.6228 5.20861 18.9459 5.29148C19.4731 5.42667 19.9058 5.78944 20.1329 6.28683C20.3605 6.7853 20.3517 7.35042 20.1085 7.83736C20.0217 8.01136 20.0107 8.21362 20.0784 8.39597C20.146 8.57831 20.2863 8.72452 20.4656 8.79975C21.7584 9.34209 22.5938 10.5983 22.5938 12C22.5938 13.3528 21.8156 14.5697 20.5993 15.1406V15.1406Z" fill="black"/>
</svg>
