<svg width="20" height="20" viewBox="0 0 20 20" fill="none" xmlns="http://www.w3.org/2000/svg">
<path d="M13.8917 10.9417C15.0333 11.7167 15.8333 12.7667 15.8333 14.1667V16.6667H19.1667V14.1667C19.1667 12.35 16.1917 11.275 13.8917 10.9417Z" fill="#1F1F1F"/>
<path d="M12.5 10C14.3417 10 15.8333 8.50833 15.8333 6.66667C15.8333 4.825 14.3417 3.33333 12.5 3.33333C12.1083 3.33333 11.7417 3.41667 11.3917 3.53333C12.0833 4.39167 12.5 5.48333 12.5 6.66667C12.5 7.85 12.0833 8.94167 11.3917 9.8C11.7417 9.91667 12.1083 10 12.5 10Z" fill="#1F1F1F"/>
<path d="M7.50002 10C9.34169 10 10.8334 8.50833 10.8334 6.66667C10.8334 4.825 9.34169 3.33333 7.50002 3.33333C5.65835 3.33333 4.16669 4.825 4.16669 6.66667C4.16669 8.50833 5.65835 10 7.50002 10ZM7.50002 5C8.41669 5 9.16669 5.75 9.16669 6.66667C9.16669 7.58333 8.41669 8.33333 7.50002 8.33333C6.58335 8.33333 5.83335 7.58333 5.83335 6.66667C5.83335 5.75 6.58335 5 7.50002 5Z" fill="#1F1F1F"/>
<path d="M7.50001 10.8333C5.27501 10.8333 0.833344 11.95 0.833344 14.1667V16.6667H14.1667V14.1667C14.1667 11.95 9.72501 10.8333 7.50001 10.8333ZM12.5 15H2.50001V14.175C2.66668 13.575 5.25001 12.5 7.50001 12.5C9.75001 12.5 12.3333 13.575 12.5 14.1667V15Z" fill="#1F1F1F"/>
</svg>
