<svg width="16" height="16" viewBox="0 0 16 16" fill="current" xmlns="http://www.w3.org/2000/svg">
<path  d="M7.3335 12H8.66683V10.6667H7.3335V12ZM8.00016 1.33337C4.32016 1.33337 1.3335 4.32004 1.3335 8.00004C1.3335 11.68 4.32016 14.6667 8.00016 14.6667C11.6802 14.6667 14.6668 11.68 14.6668 8.00004C14.6668 4.32004 11.6802 1.33337 8.00016 1.33337ZM8.00016 13.3334C5.06016 13.3334 2.66683 10.94 2.66683 8.00004C2.66683 5.06004 5.06016 2.66671 8.00016 2.66671C10.9402 2.66671 13.3335 5.06004 13.3335 8.00004C13.3335 10.94 10.9402 13.3334 8.00016 13.3334ZM8.00016 4.00004C6.52683 4.00004 5.3335 5.19337 5.3335 6.66671H6.66683C6.66683 5.93337 7.26683 5.33337 8.00016 5.33337C8.7335 5.33337 9.3335 5.93337 9.3335 6.66671C9.3335 8.00004 7.3335 7.83337 7.3335 10H8.66683C8.66683 8.50004 10.6668 8.33337 10.6668 6.66671C10.6668 5.19337 9.4735 4.00004 8.00016 4.00004Z" fill="current"/>
</svg>
