<svg width="24" height="24" viewBox="0 0 24 24" fill="none" xmlns="http://www.w3.org/2000/svg">
<g clip-path="url(#clip0_3678_20086)">
<path d="M14.25 21H9.75C9.336 21 9 20.664 9 20.25C9 19.836 9.336 19.5 9.75 19.5H14.25C14.664 19.5 15 19.836 15 20.25C15 20.664 14.664 21 14.25 21Z" fill="black"/>
<path d="M12 3.457C11.586 3.457 11.25 3.121 11.25 2.707V0.75C11.25 0.336 11.586 0 12 0C12.414 0 12.75 0.336 12.75 0.75V2.707C12.75 3.121 12.414 3.457 12 3.457Z" fill="black"/>
<path d="M18.571 6.17918C18.379 6.17918 18.187 6.10618 18.041 5.95918C17.748 5.66618 17.748 5.19118 18.041 4.89818L19.425 3.51418C19.718 3.22118 20.193 3.22118 20.486 3.51418C20.779 3.80718 20.779 4.28218 20.486 4.57518L19.102 5.95918C18.955 6.10518 18.763 6.17918 18.571 6.17918Z" fill="black"/>
<path d="M23.2502 12.75H21.2932C20.8792 12.75 20.5432 12.414 20.5432 12C20.5432 11.586 20.8792 11.25 21.2932 11.25H23.2502C23.6642 11.25 24.0002 11.586 24.0002 12C24.0002 12.414 23.6642 12.75 23.2502 12.75Z" fill="black"/>
<path d="M19.955 20.7051C19.763 20.7051 19.571 20.6321 19.425 20.4851L18.041 19.1011C17.748 18.8081 17.748 18.3331 18.041 18.0401C18.334 17.7471 18.809 17.7471 19.102 18.0401L20.486 19.4241C20.779 19.7171 20.779 20.1921 20.486 20.4851C20.339 20.6321 20.147 20.7051 19.955 20.7051Z" fill="black"/>
<path d="M4.04491 20.7051C3.85291 20.7051 3.66092 20.6321 3.51492 20.4851C3.22192 20.1921 3.22192 19.7171 3.51492 19.4241L4.89891 18.0401C5.19191 17.7471 5.66691 17.7471 5.95991 18.0401C6.25291 18.3331 6.25291 18.8081 5.95991 19.1011L4.57591 20.4851C4.42891 20.6321 4.23691 20.7051 4.04491 20.7051Z" fill="black"/>
<path d="M2.707 12.75H0.75C0.336 12.75 0 12.414 0 12C0 11.586 0.336 11.25 0.75 11.25H2.707C3.121 11.25 3.457 11.586 3.457 12C3.457 12.414 3.121 12.75 2.707 12.75Z" fill="black"/>
<path d="M5.42891 6.17918C5.23691 6.17918 5.04491 6.10618 4.89891 5.95918L3.51492 4.57518C3.22192 4.28218 3.22192 3.80718 3.51492 3.51418C3.80791 3.22118 4.28291 3.22118 4.57591 3.51418L5.95991 4.89818C6.25291 5.19118 6.25291 5.66618 5.95991 5.95918C5.81191 6.10518 5.62091 6.17918 5.42891 6.17918Z" fill="black"/>
<path d="M15.7497 12.5C15.3357 12.5 14.9997 12.164 14.9997 11.75C14.9997 10.233 13.7667 9 12.2498 9C11.8358 9 11.4998 8.664 11.4998 8.25C11.4998 7.836 11.8358 7.5 12.2498 7.5C14.5927 7.5 16.4997 9.40699 16.4997 11.75C16.4997 12.164 16.1637 12.5 15.7497 12.5Z" fill="black"/>
<path d="M13.2499 24H10.7499C9.9069 24 8.9999 23.36 8.9999 21.956V20.192C8.9999 19.131 8.5479 18.157 7.7909 17.587C5.6059 15.942 4.5949 13.236 5.1519 10.525C5.6969 7.86902 7.8459 5.71202 10.4989 5.15702C12.6089 4.71302 14.7669 5.22702 16.4129 6.56502C18.0569 7.90102 18.9999 9.88202 18.9999 12C18.9999 14.158 18.0249 16.161 16.3249 17.498C15.4829 18.16 14.9999 19.082 14.9999 20.027V22.25C14.9999 23.215 14.2149 24 13.2499 24ZM11.9859 6.50202C11.5939 6.50202 11.1989 6.54302 10.8039 6.62502C8.7279 7.05902 7.0469 8.74702 6.6199 10.826C6.1809 12.963 6.9749 15.095 8.6919 16.388C9.8229 17.24 10.4989 18.662 10.4989 20.192V21.956C10.4989 22.047 10.5109 22.5 10.7489 22.5H13.2489C13.3869 22.5 13.4989 22.388 13.4989 22.25V20.027C13.4989 18.618 14.1909 17.267 15.3969 16.318C16.7339 15.268 17.4999 13.694 17.4999 12C17.4999 10.336 16.7579 8.77902 15.4659 7.72902C14.4779 6.92702 13.2529 6.50202 11.9859 6.50202Z" fill="black"/>
</g>
<defs>
<clipPath id="clip0_3678_20086">
<rect width="24" height="24" fill="white"/>
</clipPath>
</defs>
</svg>
