<svg width="20" height="20" viewBox="0 0 20 20" fill="none" xmlns="http://www.w3.org/2000/svg">
<path d="M12.4997 6.66683V5.00016C12.4997 4.55814 12.3241 4.13421 12.0115 3.82165C11.699 3.50909 11.275 3.3335 10.833 3.3335H4.99967C4.55765 3.3335 4.13372 3.50909 3.82116 3.82165C3.5086 4.13421 3.33301 4.55814 3.33301 5.00016V15.0002C3.33301 15.4422 3.5086 15.8661 3.82116 16.1787C4.13372 16.4912 4.55765 16.6668 4.99967 16.6668H10.833C11.275 16.6668 11.699 16.4912 12.0115 16.1787C12.3241 15.8661 12.4997 15.4422 12.4997 15.0002V13.3335" stroke="#656565" stroke-width="1.5" stroke-linecap="square" stroke-linejoin="round"/>
<line x1="7.5" y1="10.1833" x2="17.5" y2="10.1833" stroke="#656565" stroke-width="1.3"/>
<path d="M15 7.49992L17.5 10.4166L15 13.3333" stroke="#656565" stroke-width="1.3" stroke-linecap="square" stroke-linejoin="round"/>
</svg>
