<svg width="41" height="40" viewBox="0 0 41 40" fill="none" xmlns="http://www.w3.org/2000/svg">
<path d="M35.9894 27.5037L35.9894 24.3903L38.8318 24.3903C39.4791 24.3903 40.0037 23.8657 40.0037 23.2184L40.0037 16.7813C40.0037 16.134 39.4791 15.6094 38.8318 15.6094L35.9894 15.6094L35.9894 12.4963C35.9894 10.5579 34.4122 8.98071 32.4738 8.98071L3.51929 8.98071C1.58081 8.98071 0.00366204 10.5579 0.00366196 12.4963L0.0036613 27.5037C0.00366121 29.4421 1.58081 31.0193 3.51929 31.0193L32.4738 31.0193C34.4122 31.0193 35.9894 29.4421 35.9894 27.5037ZM3.51929 28.6755C2.87323 28.6755 2.34741 28.1497 2.34741 27.5037L2.34741 12.4963C2.34741 11.8503 2.87323 11.3245 3.51929 11.3245L32.4738 11.3245C33.1198 11.3245 33.6456 11.8503 33.6456 12.4963L33.6456 27.5037C33.6456 28.1497 33.1198 28.6755 32.4738 28.6755L3.51929 28.6755ZM37.6599 17.9532L37.6599 22.0465L35.9894 22.0465L35.9894 17.9532L37.6599 17.9532Z" fill="black"/>
<path d="M11.1287 25.8149L11.1287 14.1682C11.1287 13.5209 10.6041 12.9963 9.95679 12.9963L5.36328 12.9963C4.7163 12.9963 4.1914 13.5209 4.1914 14.1682L4.1914 25.8149C4.1914 26.4619 4.7163 26.9868 5.36328 26.9868L9.95679 26.9868C10.6041 26.9868 11.1287 26.4619 11.1287 25.8149ZM6.53515 24.6431L6.53515 15.3401L8.78491 15.3401L8.78491 24.6431L6.53515 24.6431Z" fill="black"/>
<path d="M20.0662 25.8149L20.0662 14.1682C20.0662 13.5209 19.5416 12.9963 18.8943 12.9963L14.3008 12.9963C13.6535 12.9963 13.1289 13.5209 13.1289 14.1682L13.1289 25.8149C13.1289 26.4619 13.6535 26.9868 14.3008 26.9868L18.8943 26.9868C19.5416 26.9868 20.0662 26.4619 20.0662 25.8149ZM15.4727 24.6431L15.4727 15.3401L17.7224 15.3401L17.7224 24.6431L15.4727 24.6431Z" fill="black"/>
<path d="M29.0037 25.8149L29.0037 14.1682C29.0037 13.5209 28.4791 12.9963 27.8318 12.9963L23.2383 12.9963C22.591 12.9963 22.0664 13.5209 22.0664 14.1682L22.0664 25.8149C22.0664 26.4619 22.591 26.9868 23.2383 26.9868L27.8318 26.9868C28.4791 26.9868 29.0037 26.4619 29.0037 25.8149ZM24.4102 24.6431L24.4102 15.3401L26.6599 15.3401L26.6599 24.6431L24.4102 24.6431Z" fill="black"/>
</svg>
