<svg width="24" height="24" viewBox="0 0 24 24" fill="none" xmlns="http://www.w3.org/2000/svg">
    <path d="M23.532 7.351a.703.703 0 0 0-.001-1.325L12.234 2.04a.703.703 0 0 0-.468 0L.47 6.026A.703.703 0 0 0 .468 7.35l4.475 1.591v4.587c0 .757.79 1.397 2.347 1.903 1.357.44 3.03.683 4.71.683 1.68 0 3.353-.243 4.71-.683 1.558-.506 2.347-1.146 2.347-1.903V8.942l1.848-.656v6.355a2.119 2.119 0 0 0-1.412 1.995c0 .92.59 1.704 1.412 1.994v2.686a.703.703 0 0 0 1.406 0V18.63a2.119 2.119 0 0 0 1.412-1.994c0-.92-.59-1.704-1.412-1.995V7.786l1.221-.435zm-1.924 9.994a.71.71 0 1 1 .002-1.42.71.71 0 0 1-.002 1.42zM12 3.449l9.19 3.242L12 9.96 2.81 6.69 12 3.45zm5.651 9.974c-.135.136-.617.461-1.706.772-1.162.331-2.563.514-3.945.514-1.382 0-2.783-.183-3.945-.514-1.089-.31-1.571-.636-1.706-.772v-3.98l5.415 1.925a.702.702 0 0 0 .472 0l5.415-1.926v3.981z" fill="#000"/>
</svg>
