<svg width="40" height="40" viewBox="0 0 40 40" fill="none" xmlns="http://www.w3.org/2000/svg">
<path d="M37.4547 19.4758L32.7672 10.1008C32.5403 9.7025 32.2217 9.45312 31.7188 9.45312H8.28128C7.79128 9.45312 7.46362 9.69625 7.23284 10.1008L2.54534 19.4758C2.32831 19.9367 2.40261 20.3999 2.71018 20.7695L19.1164 39.5977C19.3391 39.8531 19.661 40 20 40C20.3391 40 20.661 39.8531 20.8836 39.5977L37.2899 20.7695C37.5955 20.4018 37.6731 19.9391 37.4547 19.4758ZM29.8227 11.7969L26.8313 17.7797L22.3438 11.7969H29.8227ZM24.6875 18.8281H15.3125L20 12.5781L24.6875 18.8281ZM17.6563 11.7969L13.1688 17.7797L10.1774 11.7969H17.6563ZM8.28128 13.2453L11.0727 18.8281H5.48987L8.28128 13.2453ZM6.16956 21.1719H12.1946L17.9719 34.7172L6.16956 21.1719ZM20 33.4977L14.743 21.1719H25.2571L20 33.4977ZM22.0282 34.7172L27.8055 21.1719H33.8305L22.0282 34.7172ZM28.9274 18.8281L31.7188 13.2453L34.5102 18.8281H28.9274Z" fill="black"/>
<path d="M20 0C19.3528 0 18.8281 0.524687 18.8281 1.17188V3.59375C18.8281 4.24094 19.3528 4.76562 20 4.76562C20.6472 4.76562 21.1719 4.24094 21.1719 3.59375V1.17188C21.1719 0.524687 20.6472 0 20 0Z" fill="black"/>
<path d="M15.0281 5.16774L13.3709 3.51048C12.9133 3.05282 12.1713 3.05282 11.7136 3.51048C11.2559 3.96813 11.2559 4.71009 11.7136 5.16774L13.3709 6.82501C13.8284 7.28267 14.5706 7.28274 15.0281 6.82501C15.4858 6.36735 15.4858 5.6254 15.0281 5.16774Z" fill="black"/>
<path d="M28.2862 3.51048C27.8286 3.05282 27.0866 3.05282 26.6289 3.51048L24.9717 5.16774C24.514 5.6254 24.514 6.36735 24.9717 6.82501C25.4292 7.28267 26.1713 7.28274 26.6289 6.82501L28.2862 5.16774C28.7439 4.71009 28.7439 3.96813 28.2862 3.51048Z" fill="black"/>
</svg>
