<svg width="24" height="24" viewBox="0 0 24 24" fill="none" xmlns="http://www.w3.org/2000/svg">
<g clip-path="url(#clip0)">
<path d="M14.25 21H9.75C9.336 21 9 20.664 9 20.25C9 19.836 9.336 19.5 9.75 19.5H14.25C14.664 19.5 15 19.836 15 20.25C15 20.664 14.664 21 14.25 21Z" fill="#00D3AD"/>
<path d="M12 3.457C11.586 3.457 11.25 3.121 11.25 2.707V0.75C11.25 0.336 11.586 0 12 0C12.414 0 12.75 0.336 12.75 0.75V2.707C12.75 3.121 12.414 3.457 12 3.457Z" fill="#00D3AD"/>
<path d="M18.5712 6.17894C18.3792 6.17894 18.1872 6.10594 18.0412 5.95894C17.7482 5.66594 17.7482 5.19094 18.0412 4.89794L19.4252 3.51394C19.7182 3.22094 20.1931 3.22094 20.4861 3.51394C20.7791 3.80694 20.7791 4.28194 20.4861 4.57494L19.1022 5.95894C18.9552 6.10494 18.7632 6.17894 18.5712 6.17894Z" fill="#00D3AD"/>
<path d="M23.2502 12.75H21.2932C20.8792 12.75 20.5432 12.414 20.5432 12C20.5432 11.586 20.8792 11.25 21.2932 11.25H23.2502C23.6642 11.25 24.0002 11.586 24.0002 12C24.0002 12.414 23.6642 12.75 23.2502 12.75Z" fill="#00D3AD"/>
<path d="M19.9551 20.7048C19.7632 20.7048 19.5712 20.6318 19.4252 20.4848L18.0412 19.1008C17.7482 18.8078 17.7482 18.3328 18.0412 18.0398C18.3342 17.7468 18.8092 17.7468 19.1022 18.0398L20.4861 19.4238C20.7791 19.7168 20.7791 20.1918 20.4861 20.4848C20.3391 20.6318 20.1471 20.7048 19.9551 20.7048Z" fill="#00D3AD"/>
<path d="M4.04479 20.7048C3.85279 20.7048 3.66079 20.6318 3.51479 20.4848C3.22179 20.1918 3.22179 19.7168 3.51479 19.4238L4.89879 18.0398C5.19179 17.7468 5.66679 17.7468 5.95979 18.0398C6.25279 18.3328 6.25279 18.8078 5.95979 19.1008L4.57579 20.4848C4.42879 20.6318 4.23679 20.7048 4.04479 20.7048Z" fill="#00D3AD"/>
<path d="M2.707 12.75H0.75C0.336 12.75 0 12.414 0 12C0 11.586 0.336 11.25 0.75 11.25H2.707C3.121 11.25 3.457 11.586 3.457 12C3.457 12.414 3.121 12.75 2.707 12.75Z" fill="#00D3AD"/>
<path d="M5.42879 6.17894C5.23679 6.17894 5.04479 6.10594 4.89879 5.95894L3.51479 4.57494C3.22179 4.28194 3.22179 3.80694 3.51479 3.51394C3.80779 3.22094 4.28279 3.22094 4.57579 3.51394L5.95979 4.89794C6.25279 5.19094 6.25279 5.66594 5.95979 5.95894C5.81179 6.10494 5.62079 6.17894 5.42879 6.17894Z" fill="#00D3AD"/>
<path d="M15.7499 12.5C15.3359 12.5 14.9999 12.164 14.9999 11.75C14.9999 10.233 13.7669 9 12.2499 9C11.8359 9 11.4999 8.664 11.4999 8.25C11.4999 7.836 11.8359 7.5 12.2499 7.5C14.5929 7.5 16.4999 9.40699 16.4999 11.75C16.4999 12.164 16.1639 12.5 15.7499 12.5Z" fill="#00D3AD"/>
<path d="M13.2499 24H10.7499C9.9069 24 8.9999 23.36 8.9999 21.956V20.192C8.9999 19.131 8.5479 18.157 7.7909 17.587C5.6059 15.942 4.5949 13.236 5.1519 10.525C5.6969 7.86902 7.8459 5.71202 10.4989 5.15702C12.6089 4.71302 14.7669 5.22702 16.4129 6.56502C18.0569 7.90102 18.9999 9.88202 18.9999 12C18.9999 14.158 18.0249 16.161 16.3249 17.498C15.4829 18.16 14.9999 19.082 14.9999 20.027V22.25C14.9999 23.215 14.2149 24 13.2499 24ZM11.9859 6.50202C11.5939 6.50202 11.1989 6.54302 10.8039 6.62502C8.7279 7.05902 7.0469 8.74702 6.6199 10.826C6.1809 12.963 6.9749 15.095 8.6919 16.388C9.8229 17.24 10.4989 18.662 10.4989 20.192V21.956C10.4989 22.047 10.5109 22.5 10.7489 22.5H13.2489C13.3869 22.5 13.4989 22.388 13.4989 22.25V20.027C13.4989 18.618 14.1909 17.267 15.3969 16.318C16.7339 15.268 17.4999 13.694 17.4999 12C17.4999 10.336 16.7579 8.77902 15.4659 7.72902C14.4779 6.92702 13.2529 6.50202 11.9859 6.50202Z" fill="#00D3AD"/>
</g>
<defs>
<clipPath id="clip0">
<rect width="24" height="24" fill="white"/>
</clipPath>
</defs>
</svg>
