<svg width="48" height="48" viewBox="0 0 48 48" fill="none" xmlns="http://www.w3.org/2000/svg">
<path d="M24 0C10.7452 0 0 10.7452 0 24C0 37.2548 10.7452 48 24 48C37.2548 48 48 37.2548 48 24C47.985 10.7514 37.2486 0.015 24 0ZM24 46.4C11.6288 46.4 1.6 36.3712 1.6 24C1.6 11.6288 11.6288 1.6 24 1.6C36.3712 1.6 46.4 11.6288 46.4 24C46.3859 36.3653 36.3653 46.3859 24 46.4Z" fill="black"/>
<path d="M44 23.2C43.5582 23.2 43.2 23.5582 43.2 24C43.1877 34.5987 34.5987 43.1877 24 43.2C23.5582 43.2 23.2 43.5582 23.2 44C23.2 44.4418 23.5582 44.8 24 44.8C35.4822 44.7872 44.7872 35.4822 44.8 24C44.8 23.5582 44.4418 23.2 44 23.2Z" fill="black"/>
<path d="M24 3.19995C12.5178 3.21275 3.21275 12.5178 3.19995 24C3.19995 24.4417 3.55815 24.7999 3.99995 24.7999C4.44175 24.7999 4.79995 24.4417 4.79995 24C4.81225 13.4013 13.4013 4.81225 24 4.79995C24.4417 4.79995 24.7999 4.44175 24.7999 3.99995C24.7999 3.55815 24.4417 3.19995 24 3.19995Z" fill="black"/>
<path d="M24.0001 12C22.6746 12 21.6001 13.0745 21.6001 14.4C21.6001 15.7255 22.6746 16.8 24.0001 16.8C25.3256 16.8 26.4001 15.7255 26.4001 14.4C26.4001 13.0745 25.3256 12 24.0001 12ZM24.0001 15.2C23.5583 15.2 23.2001 14.8418 23.2001 14.4C23.2001 13.9582 23.5583 13.6 24.0001 13.6C24.4419 13.6 24.8001 13.9582 24.8001 14.4C24.8001 14.8418 24.4419 15.2 24.0001 15.2Z" fill="black"/>
<path d="M27.9999 31.9999H26.3999V18.3999H18.3999V20.7999C18.3999 21.6836 19.1162 22.3999 19.9999 22.3999H21.5999V35.9999H29.5999V33.5999C29.5999 32.7162 28.8836 31.9999 27.9999 31.9999ZM27.9999 34.3999H23.1999V20.7999H19.9999V19.9999H24.7999V33.5999H27.9999V34.3999Z" fill="black"/>
</svg>
