<svg width="96" height="84" viewBox="0 0 96 84" fill="none" xmlns="http://www.w3.org/2000/svg">
<path d="M94.9081 62.5455C94.1403 60.6222 91.9589 59.6852 90.0355 60.453C88.1121 61.2208 87.1752 63.4022 87.943 65.3256C88.9191 67.7712 88.5991 70.5634 87.0867 72.7954C85.5735 75.0286 83.1509 76.3094 80.44 76.3094H15.5753C12.6183 76.3094 9.99234 74.7664 8.55065 72.1815C7.10671 69.5924 7.17458 66.5412 8.73215 64.0191L41.1645 11.5091C42.6412 9.11805 45.1993 7.69061 48.0077 7.69061C50.816 7.69061 53.3739 9.11805 54.8509 11.5091L78.8372 50.3449C79.9255 52.1068 82.2362 52.6534 83.9978 51.5646C85.7596 50.4765 86.3059 48.1659 85.2175 46.404L61.2309 7.56818C58.3779 2.94892 53.4347 0.191162 48.0075 0.191162C42.5803 0.191162 37.637 2.9491 34.784 7.56818L2.3517 60.0784C-0.655058 64.947 -0.785933 70.8372 2.00126 75.8346C4.7862 80.8278 9.86053 83.8086 15.5753 83.8086H80.44C85.6784 83.8086 90.3638 81.3274 93.295 77.0018C96.2043 72.7084 96.8071 67.3041 94.9081 62.5455Z" fill="#B75BFF"/>
<path d="M48.0094 68.9976C50.0804 68.9976 51.7591 67.3189 51.7591 65.2479C51.7591 63.177 50.0804 61.4983 48.0094 61.4983H48.0075C45.9366 61.4983 44.2588 63.177 44.2588 65.2479C44.2588 67.3189 45.9384 68.9976 48.0094 68.9976Z" fill="#B75BFF"/>
<path d="M51.7574 52.1239V24.5638C51.7574 22.4929 50.0787 20.8142 48.0077 20.8142C45.9368 20.8142 44.2581 22.4929 44.2581 24.5638V52.1239C44.2581 54.1948 45.9368 55.8735 48.0077 55.8735C50.0787 55.8735 51.7574 54.1948 51.7574 52.1239Z" fill="#B75BFF"/>
</svg>
