<svg width="48" height="48" viewBox="0 0 48 48" fill="none" xmlns="http://www.w3.org/2000/svg">
<path d="M45.5977 20.0908C45.1121 20.0908 44.7188 20.4847 44.7188 20.9697V24.1019C44.7188 25.8993 43.2562 27.3618 41.4588 27.3618H36.4491C36.2159 27.3618 35.9926 27.4541 35.8275 27.6189L29.754 33.6927V28.2407C29.754 27.7551 29.3604 27.3618 28.8751 27.3618H16.2914C14.494 27.3618 13.0314 25.8995 13.0314 24.1019V10.8065C13.0314 9.00916 14.494 7.54688 16.2914 7.54688H41.4588C43.2562 7.54688 44.7188 9.00916 44.7188 10.8065V13.9384C44.7188 14.424 45.1121 14.8174 45.5977 14.8174C46.0827 14.8174 46.4766 14.424 46.4766 13.9384V10.8065C46.4766 8.03989 44.2257 5.78906 41.4588 5.78906H16.2914C13.5244 5.78906 11.2736 8.03989 11.2736 10.8065V22.098H4.87656C3.00202 22.098 1.47657 23.6229 1.47657 25.498V33.5971C1.47657 35.4722 3.00202 36.9971 4.87656 36.9971H7.56464L11.9207 41.3535C12.0891 41.5218 12.314 41.6111 12.5425 41.6111C12.6557 41.6111 12.7702 41.5891 12.8787 41.5441C13.2072 41.4081 13.4215 41.0879 13.4215 40.7322V36.9971H20.2083C22.0831 36.9971 23.6082 35.4722 23.6082 33.5971V29.1196H27.9962V35.8144C27.9962 36.1701 28.2104 36.4904 28.5389 36.6263C28.6474 36.6714 28.7617 36.6933 28.8751 36.6933C29.1039 36.6933 29.3286 36.6041 29.4966 36.4357L36.813 29.1196H41.4588C44.2257 29.1196 46.4766 26.8688 46.4766 24.1019V20.9697C46.4766 20.4847 46.0827 20.0908 45.5977 20.0908ZM21.8507 33.5971C21.8507 34.5029 21.1141 35.2393 20.2083 35.2393H12.5425C12.057 35.2393 11.6636 35.6332 11.6636 36.1182V38.6105L8.55012 35.4969C8.38532 35.3321 8.16175 35.2393 7.92856 35.2393H4.87656C3.97102 35.2393 3.23438 34.5029 3.23438 33.5971V25.498C3.23438 24.5924 3.97102 23.8558 4.87656 23.8558H11.2736V24.1019C11.2736 26.8688 13.5244 29.1196 16.2914 29.1196H21.8507V33.5971Z" fill="black"/>
<path d="M37.4444 11.5486H20.3058C19.8204 11.5486 19.4268 11.9422 19.4268 12.4275C19.4268 12.9131 19.8204 13.3064 20.3058 13.3064H37.4444C37.9297 13.3064 38.3233 12.9131 38.3233 12.4275C38.3233 11.9422 37.9297 11.5486 37.4444 11.5486Z" fill="black"/>
<path d="M38.3233 17.1738C38.3233 16.6885 37.9297 16.2949 37.4444 16.2949H20.3058C19.8204 16.2949 19.4268 16.6885 19.4268 17.1738C19.4268 17.6594 19.8204 18.0527 20.3058 18.0527H37.4444C37.9297 18.0527 38.3233 17.6594 38.3233 17.1738Z" fill="black"/>
<path d="M20.3058 21.041C19.8204 21.041 19.4268 21.4346 19.4268 21.9199C19.4268 22.4055 19.8204 22.7988 20.3058 22.7988H30.1935C30.6788 22.7988 31.0724 22.4055 31.0724 21.9199C31.0724 21.4346 30.6788 21.041 30.1935 21.041H20.3058Z" fill="black"/>
<path d="M45.5977 16.5752C45.1137 16.5752 44.7188 16.9702 44.7188 17.4541C44.7188 17.9383 45.1137 18.333 45.5977 18.333C46.0816 18.333 46.4766 17.9383 46.4766 17.4541C46.4766 16.9702 46.0816 16.5752 45.5977 16.5752Z" fill="black"/>
</svg>
