<svg width="40" height="40" viewBox="0 0 40 40" xmlns="http://www.w3.org/2000/svg">
<path d="M20 40C8.98743 40 0 31.0117 0 20C0 8.98743 8.98834 0 20 0C31.0126 0 40 8.98834 40 20C40 31.0126 31.0117 40 20 40ZM31.4734 33.4088C28.5953 30.1807 24.386 28.2812 20 28.2812C15.614 28.2812 11.4047 30.1807 8.52661 33.4088C11.6147 36.055 15.6238 37.6562 20 37.6562C24.3762 37.6562 28.3853 36.055 31.4734 33.4088ZM32.9153 18.8281C32.6724 16.131 31.601 13.6691 29.957 11.7004L28.3646 13.2928L26.7072 11.6354L28.2996 10.043C26.3309 8.39905 23.869 7.32758 21.1719 7.08466V9.375H18.8281V7.08466C16.131 7.32758 13.6691 8.39905 11.7004 10.043L13.2928 11.6354L11.6354 13.2928L10.043 11.7004C8.39935 13.6691 7.32758 16.131 7.08466 18.8281H9.375V21.171H7.08527C7.34039 23.9944 8.50983 26.6742 10.4007 28.7561C13.3209 26.8762 16.6827 25.9375 20 25.9375C23.3102 25.9375 26.673 26.8723 29.5993 28.7561C31.4902 26.6742 32.6596 23.9951 32.9147 21.1719H30.625V18.8281H32.9153ZM20 2.34375C10.2643 2.34375 2.34375 10.2643 2.34375 20C2.34375 24.5169 4.04938 28.6423 6.84967 31.7682C7.36572 31.1966 7.92175 30.6589 8.51105 30.1581C6.06812 27.3822 4.6875 23.75 4.6875 20C4.6875 11.5909 11.59 4.6875 20 4.6875C28.4091 4.6875 35.3125 11.59 35.3125 20C35.3125 23.75 33.9319 27.3822 31.489 30.1581C32.0782 30.6589 32.6343 31.1966 33.1503 31.7682C35.9506 28.6423 37.6562 24.5169 37.6562 20C37.6562 10.2643 29.7357 2.34375 20 2.34375Z"/>
<path d="M23.5156 30.625H16.4844V32.9688H23.5156V30.625Z"/>
<path d="M23.004 21.8289C22.3601 22.8857 21.2374 23.5165 20.0008 23.5165C18.0623 23.5165 16.4852 21.9393 16.4852 20.0009C16.4852 18.7643 17.116 17.6415 18.1728 16.9976L18.2332 16.9607L27.0488 12.9531L23.041 21.7684L23.004 21.8289ZM19.3428 19.0307C19.02 19.2498 18.8289 19.6081 18.8289 20.0009C18.8289 20.6469 19.3547 21.1727 20.0008 21.1727C20.3936 21.1727 20.7518 20.9817 20.9709 20.6588L22.3278 17.6736L19.3428 19.0307Z"/>
</svg>
