<svg width="101" height="40" viewBox="0 0 101 40" fill="none" xmlns="http://www.w3.org/2000/svg">
<g clip-path="url(#clip0_26_2541)">
<path d="M30.4904 16.8734L37.0511 5.27051C36.5268 5.29665 36.0074 5.37507 35.5003 5.50345L29.9919 15.2455C30.1157 15.8121 30.284 16.3593 30.4904 16.8737V16.8734Z" fill="#0060F0"/>
<path d="M33.682 6.20898C32.3966 6.8991 31.2924 7.9331 30.513 9.30345L30.5021 9.32262C29.9638 10.5303 29.7278 11.8681 29.7488 13.165L33.682 6.20898Z" fill="#0060F0"/>
<path d="M31.9623 19.2898L39.707 5.59298C39.2887 5.46721 38.8651 5.37804 38.4399 5.32373L31.1551 18.2073C31.3996 18.6072 31.6702 18.9711 31.9623 19.2898Z" fill="#0060F0"/>
<path d="M33.4584 20.4093C33.649 20.4941 33.8411 20.5731 34.034 20.646L41.9389 6.66601C41.7703 6.55012 41.596 6.43975 41.4163 6.33548C41.2366 6.23121 41.0543 6.13478 40.8702 6.0459L32.9166 20.1121C33.0926 20.2272 33.2735 20.3268 33.4584 20.4093Z" fill="#0060F0"/>
<path d="M44.3824 17.4033C45.1621 16.0243 45.4975 14.5104 45.435 13.0317L41.2541 20.426C42.5156 19.7824 43.6047 18.7786 44.3824 17.403V17.4033Z" fill="#0060F0"/>
<path d="M37.9297 21.2856C38.4526 21.2612 38.9674 21.1909 39.4682 21.0747L45.1165 11.0853C44.9691 10.5773 44.7734 10.0835 44.5303 9.61182L37.9297 21.2853V21.2856Z" fill="#0060F0"/>
<path d="M36.5342 21.2433L43.7821 8.42488C43.521 8.0807 43.2306 7.75568 42.9121 7.45361L35.242 21.0185C35.672 21.1228 36.1037 21.198 36.534 21.2433H36.5342Z" fill="#0060F0"/>
<path d="M8.07228 12.0158L6.16457 11.3021C5.13691 10.9745 4.84366 10.4988 4.84366 9.99337C4.84366 9.45807 5.28396 8.92277 6.16457 8.92277C6.7806 8.92277 7.54368 9.19057 7.9258 10.38L11.4775 9.4877C10.9492 6.98953 8.86489 5.354 5.98799 5.354C3.1111 5.354 0.440306 7.04878 0.440306 9.93354C0.440306 11.8668 1.52645 13.5325 4.05105 14.4541L6.10581 15.2273C7.10395 15.5549 7.3972 16.0307 7.3972 16.5364C7.3972 17.3987 6.63412 17.8152 5.81227 17.8152C4.37382 17.8152 3.84523 16.7745 3.61074 16.0307L0 17.0124C0.469545 19.9567 2.78861 21.4139 5.87075 21.4139C9.27567 21.4139 11.8883 19.6593 11.8883 16.5366C11.8883 13.7408 9.71598 12.5807 8.07228 12.0158Z" fill="black"/>
<path d="M21.663 5.35352C18.9627 5.35352 17.3775 6.84062 17.1424 7.40555H17.0544V5.65094H12.5046V26.7679H17.0544V19.3622H17.1424C17.3772 19.9272 18.9624 21.4137 21.663 21.4137C25.1267 21.4137 28.9427 18.7668 28.9427 13.3839C28.9427 8.00097 25.1267 5.35352 21.663 5.35352ZM20.7236 17.3099C18.7276 17.3099 16.9369 15.912 16.9369 13.3842C16.9369 10.8564 18.7274 9.45817 20.7236 9.45817C22.7199 9.45817 24.4809 10.886 24.4809 13.3842C24.4809 15.8824 22.6609 17.3099 20.7236 17.3099Z" fill="black"/>
<path d="M72.9237 21.414C75.7123 21.414 77.8846 20.2539 79.1468 18.648L77.0917 16.4766C75.9766 17.3393 74.7732 17.6666 73.4228 17.6666C71.3976 17.6666 69.8711 16.8339 69.2548 15.1681H80.1154C81.084 8.08956 76.5345 5.35352 72.6597 5.35352C68.785 5.35352 64.881 8.17902 64.881 13.4135C64.881 18.648 68.697 21.414 72.9237 21.414ZM72.7185 9.2197C74.2446 9.2197 75.8006 10.0826 76.1234 11.8669H69.1665C69.6653 10.0228 71.1917 9.2197 72.7185 9.2197Z" fill="black"/>
<path d="M88.3754 21.4144C91.076 21.4144 92.661 19.9272 92.896 19.3623H92.984V21.1169H97.5339V0H92.984V7.40562H92.896C92.6612 6.8407 91.076 5.35388 88.3754 5.35388C84.9117 5.35388 81.096 8.00105 81.096 13.3843C81.096 18.7675 84.912 21.4146 88.3754 21.4146V21.4144ZM89.3148 9.45795C91.3108 9.45795 93.1016 10.8559 93.1016 13.384C93.1016 15.9121 91.3111 17.31 89.3148 17.31C87.3185 17.31 85.5871 15.8821 85.5871 13.384C85.5871 10.8858 87.3776 9.45795 89.3148 9.45795Z" fill="black"/>
<path d="M42.2152 24.2368H28.3017V28.252H34.9943L27.4211 39.7027H41.5697V35.6875H34.642L42.2152 24.2368Z" fill="black"/>
<path d="M48.9967 23.9397C45.0632 23.9397 41.2179 26.7652 41.2179 31.9997C41.2179 37.2343 45.0339 40.0002 49.2607 40.0002C52.0493 40.0002 54.2213 38.8404 55.4838 37.2343L53.4287 35.0628C52.3136 35.9255 51.1102 36.2528 49.7598 36.2528C47.7345 36.2528 46.2081 35.4198 45.5918 33.7541H56.4524C57.421 26.6755 52.8714 23.9395 48.9967 23.9395V23.9397ZM45.5038 30.4531C46.0026 28.609 47.529 27.8059 49.0557 27.8059C50.5825 27.8059 52.1379 28.6689 52.4607 30.4531H45.5038Z" fill="black"/>
<path d="M66.3742 23.9398C63.6736 23.9398 62.0883 25.4269 61.8536 25.9918H61.7656V18.5862H61.7647V9.30948H64.9641V5.65125H61.7647V1.69531H57.2149V5.65125H54.9549H51.7592V1.6956H47.2094V5.65125H44.9491V9.30919H47.2094V21.2885H51.7592V9.30948H54.9549H57.2149V25.3438H57.216V39.7031H61.7656V37.9485H61.8536C62.0883 38.5134 63.6736 40 66.3742 40C69.8379 40 73.6538 37.3531 73.6538 31.9701C73.6538 26.5872 69.8379 23.9398 66.3742 23.9398ZM65.4348 35.8962C63.4388 35.8962 61.6486 34.4982 61.6486 31.9704C61.6486 29.4426 63.4391 28.0444 65.4348 28.0444C67.4305 28.0444 69.1923 29.4723 69.1923 31.9704C69.1923 34.4686 67.3723 35.8962 65.4348 35.8962Z" fill="black"/>
<path d="M84.6325 24.0884C84.251 23.9696 83.899 23.9399 83.5464 23.9399C80.7873 23.9399 79.3196 25.9324 78.8206 28.4309V24.2371H74.2707V39.703H78.8206V33.3381C78.8206 30.4234 80.5525 28.3711 83.5759 28.3711C83.9575 28.3711 84.2805 28.4007 84.6325 28.4605V24.0884Z" fill="black"/>
<path d="M95.9633 24.2369V25.9915H95.8753C95.6405 25.4266 94.0556 23.9395 91.3547 23.9395C87.891 23.9395 84.075 26.5866 84.075 31.9698C84.075 37.353 87.891 39.9996 91.3547 39.9996C94.0556 39.9996 95.6405 38.5128 95.8753 37.9482H95.9633V39.7028H100.513V24.2369H95.9633ZM92.294 35.8956C90.3568 35.8956 88.5664 34.4677 88.5664 31.9698C88.5664 29.472 90.3568 28.0438 92.294 28.0438C94.2313 28.0438 96.0808 29.4418 96.0808 31.9698C96.0808 34.4979 94.2903 35.8956 92.294 35.8956Z" fill="black"/>
</g>
<defs>
<clipPath id="clip0_26_2541">
<rect width="100.513" height="40" fill="white"/>
</clipPath>
</defs>
</svg>
