<svg xmlns="http://www.w3.org/2000/svg" width="32" height="32" fill="none" viewBox="0 0 32 32">
    <path fill="#000" d="M31.377 9.802c.374-.133.623-.487.623-.885 0-.397-.251-.75-.626-.883L16.312 2.72c-.202-.071-.422-.071-.624 0L.626 8.034C.25 8.168 0 8.52 0 8.918c0 .398.25.752.624.885l5.966 2.121v6.116c0 1.009 1.053 1.862 3.13 2.536 1.81.588 4.04.912 6.28.912s4.47-.324 6.28-.912c2.077-.674 3.13-1.527 3.13-2.536v-6.116l2.463-.876v8.474c-1.095.388-1.882 1.433-1.882 2.66 0 1.226.787 2.272 1.882 2.66v3.58c0 .517.42.937.938.937s.937-.42.937-.937v-3.58c1.096-.388 1.883-1.434 1.883-2.66 0-1.227-.787-2.272-1.883-2.66v-9.14l1.628-.58zM28.81 23.126c-.521 0-.945-.424-.945-.945 0-.521.424-.946.945-.946.521 0 .945.425.945.946 0 .521-.424.945-.945.945zM16 4.598l12.254 4.324L16 13.278 3.746 8.922 16 4.598zm7.535 13.3c-.18.18-.823.614-2.275 1.028-1.549.442-3.417.686-5.26.686s-3.711-.244-5.26-.686c-1.452-.414-2.095-.848-2.275-1.029V12.59l7.22 2.567c.102.036.209.054.315.054.106 0 .212-.018.314-.054l7.22-2.567v5.307z"/>
</svg>
