<svg width="80" height="80" viewBox="0 0 80 80" fill="none" xmlns="http://www.w3.org/2000/svg">
<path d="M64.689 23.2422C65.5518 23.2422 66.2515 22.5427 66.2515 21.6797V4.6875C66.2515 2.10281 64.1487 0 61.564 0H4.68896C2.10428 0 0.00146484 2.10281 0.00146484 4.6875V75.3125C0.00146484 77.8972 2.10428 80 4.68896 80H61.564C64.1487 80 66.2515 77.8972 66.2515 75.3125V63.8013C66.2515 62.9383 65.5518 62.2388 64.689 62.2388C63.8262 62.2388 63.1265 62.9383 63.1265 63.8013V75.3125C63.1265 76.1741 62.4255 76.875 61.564 76.875H4.68896C3.8274 76.875 3.12646 76.1741 3.12646 75.3125V4.6875C3.12646 3.82594 3.8274 3.125 4.68896 3.125H61.564C62.4255 3.125 63.1265 3.82594 63.1265 4.6875V21.6797C63.1265 22.5427 63.8262 23.2422 64.689 23.2422Z" fill="black"/>
<path d="M64.689 23.2422C65.5518 23.2422 66.2515 22.5427 66.2515 21.6797V4.6875C66.2515 2.10281 64.1487 0 61.564 0H4.68896C2.10428 0 0.00146484 2.10281 0.00146484 4.6875V75.3125C0.00146484 77.8972 2.10428 80 4.68896 80H61.564C64.1487 80 66.2515 77.8972 66.2515 75.3125V63.8013C66.2515 62.9383 65.5518 62.2388 64.689 62.2388C63.8262 62.2388 63.1265 62.9383 63.1265 63.8013V75.3125C63.1265 76.1741 62.4255 76.875 61.564 76.875H4.68896C3.8274 76.875 3.12646 76.1741 3.12646 75.3125V4.6875C3.12646 3.82594 3.8274 3.125 4.68896 3.125H61.564C62.4255 3.125 63.1265 3.82594 63.1265 4.6875V21.6797C63.1265 22.5427 63.8262 23.2422 64.689 23.2422Z" fill="url(#paint0_linear)"/>
<path d="M33.1265 8.4375C25.2001 8.4375 18.7515 14.8861 18.7515 22.8125C18.7515 26.9245 20.4874 30.6383 23.2643 33.2608C23.3163 33.3164 23.3716 33.3691 23.4321 33.417C25.9901 35.7575 29.3943 37.1873 33.1263 37.1873C36.8583 37.1873 40.2626 35.7573 42.8205 33.417C42.881 33.3691 42.9363 33.3162 42.9883 33.2608C45.7655 30.6383 47.5015 26.9245 47.5015 22.8125C47.5015 14.8861 41.0529 8.4375 33.1265 8.4375ZM33.1265 34.0625C30.5751 34.0625 28.2204 33.2075 26.331 31.7706C27.7043 29.3355 30.2669 27.8125 33.1265 27.8125C35.986 27.8125 38.5486 29.3355 39.9219 31.7706C38.0324 33.2075 35.6779 34.0625 33.1265 34.0625ZM30.6265 22.1875V21.1719C30.6265 19.7934 31.748 18.6719 33.1265 18.6719C34.5049 18.6719 35.6265 19.7934 35.6265 21.1719V22.1875C35.6265 23.5659 34.5049 24.6875 33.1265 24.6875C31.748 24.6875 30.6265 23.5659 30.6265 22.1875ZM42.1796 29.4817C41.0272 27.7727 39.4302 26.4434 37.576 25.6228C38.3119 24.6717 38.7515 23.4803 38.7515 22.1875V21.1719C38.7515 18.0702 36.2282 15.5469 33.1265 15.5469C30.0247 15.5469 27.5015 18.0702 27.5015 21.1719V22.1875C27.5015 23.4803 27.941 24.6717 28.6769 25.6228C26.8227 26.4434 25.2257 27.7727 24.0733 29.4817C22.6938 27.6141 21.8765 25.3073 21.8765 22.8125C21.8765 16.6092 26.9232 11.5625 33.1265 11.5625C39.3297 11.5625 44.3765 16.6092 44.3765 22.8125C44.3765 25.3073 43.5591 27.6141 42.1796 29.4817Z" fill="black"/>
<path d="M33.1265 8.4375C25.2001 8.4375 18.7515 14.8861 18.7515 22.8125C18.7515 26.9245 20.4874 30.6383 23.2643 33.2608C23.3163 33.3164 23.3716 33.3691 23.4321 33.417C25.9901 35.7575 29.3943 37.1873 33.1263 37.1873C36.8583 37.1873 40.2626 35.7573 42.8205 33.417C42.881 33.3691 42.9363 33.3162 42.9883 33.2608C45.7655 30.6383 47.5015 26.9245 47.5015 22.8125C47.5015 14.8861 41.0529 8.4375 33.1265 8.4375ZM33.1265 34.0625C30.5751 34.0625 28.2204 33.2075 26.331 31.7706C27.7043 29.3355 30.2669 27.8125 33.1265 27.8125C35.986 27.8125 38.5486 29.3355 39.9219 31.7706C38.0324 33.2075 35.6779 34.0625 33.1265 34.0625ZM30.6265 22.1875V21.1719C30.6265 19.7934 31.748 18.6719 33.1265 18.6719C34.5049 18.6719 35.6265 19.7934 35.6265 21.1719V22.1875C35.6265 23.5659 34.5049 24.6875 33.1265 24.6875C31.748 24.6875 30.6265 23.5659 30.6265 22.1875ZM42.1796 29.4817C41.0272 27.7727 39.4302 26.4434 37.576 25.6228C38.3119 24.6717 38.7515 23.4803 38.7515 22.1875V21.1719C38.7515 18.0702 36.2282 15.5469 33.1265 15.5469C30.0247 15.5469 27.5015 18.0702 27.5015 21.1719V22.1875C27.5015 23.4803 27.941 24.6717 28.6769 25.6228C26.8227 26.4434 25.2257 27.7727 24.0733 29.4817C22.6938 27.6141 21.8765 25.3073 21.8765 22.8125C21.8765 16.6092 26.9232 11.5625 33.1265 11.5625C39.3297 11.5625 44.3765 16.6092 44.3765 22.8125C44.3765 25.3073 43.5591 27.6141 42.1796 29.4817Z" fill="url(#paint1_linear)"/>
<path d="M41.564 68.4375H33.1265C32.2637 68.4375 31.564 69.137 31.564 70C31.564 70.863 32.2637 71.5625 33.1265 71.5625H41.564C42.4268 71.5625 43.1265 70.863 43.1265 70C43.1265 69.137 42.4268 68.4375 41.564 68.4375Z" fill="black"/>
<path d="M41.564 68.4375H33.1265C32.2637 68.4375 31.564 69.137 31.564 70C31.564 70.863 32.2637 71.5625 33.1265 71.5625H41.564C42.4268 71.5625 43.1265 70.863 43.1265 70C43.1265 69.137 42.4268 68.4375 41.564 68.4375Z" fill="url(#paint2_linear)"/>
<path d="M41.564 59.6875H19.3765C18.5137 59.6875 17.814 60.387 17.814 61.25C17.814 62.113 18.5137 62.8125 19.3765 62.8125H41.564C42.4268 62.8125 43.1265 62.113 43.1265 61.25C43.1265 60.387 42.4268 59.6875 41.564 59.6875Z" fill="black"/>
<path d="M41.564 59.6875H19.3765C18.5137 59.6875 17.814 60.387 17.814 61.25C17.814 62.113 18.5137 62.8125 19.3765 62.8125H41.564C42.4268 62.8125 43.1265 62.113 43.1265 61.25C43.1265 60.387 42.4268 59.6875 41.564 59.6875Z" fill="url(#paint3_linear)"/>
<path d="M41.564 50.9375H19.3765C18.5137 50.9375 17.814 51.637 17.814 52.5C17.814 53.363 18.5137 54.0625 19.3765 54.0625H41.564C42.4268 54.0625 43.1265 53.363 43.1265 52.5C43.1265 51.637 42.4268 50.9375 41.564 50.9375Z" fill="black"/>
<path d="M41.564 50.9375H19.3765C18.5137 50.9375 17.814 51.637 17.814 52.5C17.814 53.363 18.5137 54.0625 19.3765 54.0625H41.564C42.4268 54.0625 43.1265 53.363 43.1265 52.5C43.1265 51.637 42.4268 50.9375 41.564 50.9375Z" fill="url(#paint4_linear)"/>
<path d="M13.8073 42.6453C13.5169 42.3547 13.1137 42.1875 12.7012 42.1875C12.2901 42.1875 11.887 42.3547 11.5965 42.6453C11.3059 42.9359 11.1387 43.3391 11.1387 43.75C11.1387 44.1609 11.3058 44.5641 11.5965 44.8547C11.8887 45.1453 12.2901 45.3125 12.7012 45.3125C13.1137 45.3125 13.5153 45.1453 13.8073 44.8547C14.098 44.5641 14.2653 44.1609 14.2653 43.75C14.2653 43.3391 14.0981 42.9359 13.8073 42.6453Z" fill="black"/>
<path d="M13.8073 42.6453C13.5169 42.3547 13.1137 42.1875 12.7012 42.1875C12.2901 42.1875 11.887 42.3547 11.5965 42.6453C11.3059 42.9359 11.1387 43.3391 11.1387 43.75C11.1387 44.1609 11.3058 44.5641 11.5965 44.8547C11.8887 45.1453 12.2901 45.3125 12.7012 45.3125C13.1137 45.3125 13.5153 45.1453 13.8073 44.8547C14.098 44.5641 14.2653 44.1609 14.2653 43.75C14.2653 43.3391 14.0981 42.9359 13.8073 42.6453Z" fill="url(#paint5_linear)"/>
<path d="M13.8073 51.3953C13.5153 51.1047 13.1137 50.9375 12.7012 50.9375C12.2901 50.9375 11.8887 51.1047 11.5965 51.3953C11.3059 51.6859 11.1387 52.0891 11.1387 52.5C11.1387 52.9109 11.3058 53.3141 11.5965 53.6047C11.8887 53.8953 12.2901 54.0625 12.7012 54.0625C13.1137 54.0625 13.5153 53.8953 13.8073 53.6047C14.098 53.3141 14.2653 52.9109 14.2653 52.5C14.2653 52.0891 14.0981 51.6859 13.8073 51.3953Z" fill="black"/>
<path d="M13.8073 51.3953C13.5153 51.1047 13.1137 50.9375 12.7012 50.9375C12.2901 50.9375 11.8887 51.1047 11.5965 51.3953C11.3059 51.6859 11.1387 52.0891 11.1387 52.5C11.1387 52.9109 11.3058 53.3141 11.5965 53.6047C11.8887 53.8953 12.2901 54.0625 12.7012 54.0625C13.1137 54.0625 13.5153 53.8953 13.8073 53.6047C14.098 53.3141 14.2653 52.9109 14.2653 52.5C14.2653 52.0891 14.0981 51.6859 13.8073 51.3953Z" fill="url(#paint6_linear)"/>
<path d="M13.8073 60.1453C13.5153 59.8547 13.1137 59.6875 12.7012 59.6875C12.2901 59.6875 11.8887 59.8547 11.5965 60.1453C11.3059 60.4359 11.1387 60.8391 11.1387 61.25C11.1387 61.6609 11.3058 62.0641 11.5965 62.3547C11.887 62.6453 12.2901 62.8125 12.7012 62.8125C13.1137 62.8125 13.5169 62.6453 13.8073 62.3547C14.098 62.0641 14.2653 61.6609 14.2653 61.25C14.2653 60.8391 14.0981 60.4359 13.8073 60.1453Z" fill="black"/>
<path d="M13.8073 60.1453C13.5153 59.8547 13.1137 59.6875 12.7012 59.6875C12.2901 59.6875 11.8887 59.8547 11.5965 60.1453C11.3059 60.4359 11.1387 60.8391 11.1387 61.25C11.1387 61.6609 11.3058 62.0641 11.5965 62.3547C11.887 62.6453 12.2901 62.8125 12.7012 62.8125C13.1137 62.8125 13.5169 62.6453 13.8073 62.3547C14.098 62.0641 14.2653 61.6609 14.2653 61.25C14.2653 60.8391 14.0981 60.4359 13.8073 60.1453Z" fill="url(#paint7_linear)"/>
<path d="M41.564 42.1875H19.3765C18.5137 42.1875 17.814 42.887 17.814 43.75C17.814 44.613 18.5137 45.3125 19.3765 45.3125H41.564C42.4268 45.3125 43.1265 44.613 43.1265 43.75C43.1265 42.887 42.4268 42.1875 41.564 42.1875Z" fill="black"/>
<path d="M41.564 42.1875H19.3765C18.5137 42.1875 17.814 42.887 17.814 43.75C17.814 44.613 18.5137 45.3125 19.3765 45.3125H41.564C42.4268 45.3125 43.1265 44.613 43.1265 43.75C43.1265 42.887 42.4268 42.1875 41.564 42.1875Z" fill="url(#paint8_linear)"/>
<path d="M76.7192 20.3624C75.2012 19.486 73.4328 19.2532 71.7393 19.7068C70.0462 20.1605 68.6309 21.2465 67.7547 22.7644L48.0918 56.8212C47.9842 57.0079 47.9161 57.2149 47.8922 57.4291L46.5081 69.8266C46.4394 70.4435 46.7422 71.0427 47.2797 71.3532C47.5223 71.4932 47.7919 71.5626 48.0608 71.5626C48.3876 71.5626 48.7133 71.4602 48.9875 71.2582L59.0319 63.8607C59.2054 63.7329 59.3508 63.5705 59.4584 63.3838L79.1211 29.3271C80.9304 26.1933 79.8529 22.1718 76.7192 20.3624ZM50.01 66.624L50.7328 60.1502L55.255 62.7612L50.01 66.624ZM57.5334 60.468L51.5795 57.0305L67.3584 29.7008L73.3123 33.1383L57.5334 60.468ZM76.4148 27.7644L74.8747 30.4321L68.9208 26.9946L70.4609 24.3269C70.92 23.5318 71.6612 22.963 72.5481 22.7254C73.4353 22.4876 74.3615 22.6098 75.1565 23.0688C75.9517 23.5279 76.5204 24.2691 76.7581 25.156C76.9958 26.0429 76.8739 26.9693 76.4148 27.7644Z" fill="black"/>
<path d="M76.7192 20.3624C75.2012 19.486 73.4328 19.2532 71.7393 19.7068C70.0462 20.1605 68.6309 21.2465 67.7547 22.7644L48.0918 56.8212C47.9842 57.0079 47.9161 57.2149 47.8922 57.4291L46.5081 69.8266C46.4394 70.4435 46.7422 71.0427 47.2797 71.3532C47.5223 71.4932 47.7919 71.5626 48.0608 71.5626C48.3876 71.5626 48.7133 71.4602 48.9875 71.2582L59.0319 63.8607C59.2054 63.7329 59.3508 63.5705 59.4584 63.3838L79.1211 29.3271C80.9304 26.1933 79.8529 22.1718 76.7192 20.3624ZM50.01 66.624L50.7328 60.1502L55.255 62.7612L50.01 66.624ZM57.5334 60.468L51.5795 57.0305L67.3584 29.7008L73.3123 33.1383L57.5334 60.468ZM76.4148 27.7644L74.8747 30.4321L68.9208 26.9946L70.4609 24.3269C70.92 23.5318 71.6612 22.963 72.5481 22.7254C73.4353 22.4876 74.3615 22.6098 75.1565 23.0688C75.9517 23.5279 76.5204 24.2691 76.7581 25.156C76.9958 26.0429 76.8739 26.9693 76.4148 27.7644Z" fill="url(#paint9_linear)"/>
<defs>
<linearGradient id="paint0_linear" x1="-2.16333e-06" y1="1.60725e-06" x2="80" y2="80" gradientUnits="userSpaceOnUse">
<stop stop-color="#B75BFF"/>
<stop offset="0.5" stop-color="#10B7FF"/>
<stop offset="1" stop-color="#00D3AD"/>
</linearGradient>
<linearGradient id="paint1_linear" x1="-2.16333e-06" y1="1.60725e-06" x2="80" y2="80" gradientUnits="userSpaceOnUse">
<stop stop-color="#B75BFF"/>
<stop offset="0.5" stop-color="#10B7FF"/>
<stop offset="1" stop-color="#00D3AD"/>
</linearGradient>
<linearGradient id="paint2_linear" x1="-2.16333e-06" y1="1.60725e-06" x2="80" y2="80" gradientUnits="userSpaceOnUse">
<stop stop-color="#B75BFF"/>
<stop offset="0.5" stop-color="#10B7FF"/>
<stop offset="1" stop-color="#00D3AD"/>
</linearGradient>
<linearGradient id="paint3_linear" x1="-2.16333e-06" y1="1.60725e-06" x2="80" y2="80" gradientUnits="userSpaceOnUse">
<stop stop-color="#B75BFF"/>
<stop offset="0.5" stop-color="#10B7FF"/>
<stop offset="1" stop-color="#00D3AD"/>
</linearGradient>
<linearGradient id="paint4_linear" x1="-2.16333e-06" y1="1.60725e-06" x2="80" y2="80" gradientUnits="userSpaceOnUse">
<stop stop-color="#B75BFF"/>
<stop offset="0.5" stop-color="#10B7FF"/>
<stop offset="1" stop-color="#00D3AD"/>
</linearGradient>
<linearGradient id="paint5_linear" x1="-2.16333e-06" y1="1.60725e-06" x2="80" y2="80" gradientUnits="userSpaceOnUse">
<stop stop-color="#B75BFF"/>
<stop offset="0.5" stop-color="#10B7FF"/>
<stop offset="1" stop-color="#00D3AD"/>
</linearGradient>
<linearGradient id="paint6_linear" x1="-2.16333e-06" y1="1.60725e-06" x2="80" y2="80" gradientUnits="userSpaceOnUse">
<stop stop-color="#B75BFF"/>
<stop offset="0.5" stop-color="#10B7FF"/>
<stop offset="1" stop-color="#00D3AD"/>
</linearGradient>
<linearGradient id="paint7_linear" x1="-2.16333e-06" y1="1.60725e-06" x2="80" y2="80" gradientUnits="userSpaceOnUse">
<stop stop-color="#B75BFF"/>
<stop offset="0.5" stop-color="#10B7FF"/>
<stop offset="1" stop-color="#00D3AD"/>
</linearGradient>
<linearGradient id="paint8_linear" x1="-2.16333e-06" y1="1.60725e-06" x2="80" y2="80" gradientUnits="userSpaceOnUse">
<stop stop-color="#B75BFF"/>
<stop offset="0.5" stop-color="#10B7FF"/>
<stop offset="1" stop-color="#00D3AD"/>
</linearGradient>
<linearGradient id="paint9_linear" x1="-2.16333e-06" y1="1.60725e-06" x2="80" y2="80" gradientUnits="userSpaceOnUse">
<stop stop-color="#B75BFF"/>
<stop offset="0.5" stop-color="#10B7FF"/>
<stop offset="1" stop-color="#00D3AD"/>
</linearGradient>
</defs>
</svg>
