<svg xmlns="http://www.w3.org/2000/svg" width="32" height="32" fill="none" viewBox="0 0 32 32">
    <path fill="#B75BFF" d="M20 1.333h-8V4h8V1.333zm-5.333 17.334h2.666v-8h-2.666v8zm10.706-8.814l1.894-1.893c-.574-.68-1.2-1.32-1.88-1.88l-1.894 1.893C21.427 6.32 18.827 5.333 16 5.333c-6.627 0-12 5.374-12 12 0 6.627 5.36 12 12 12s12-5.373 12-12c0-2.826-.987-5.426-2.627-7.48zM16 26.667c-5.16 0-9.333-4.174-9.333-9.334C6.667 12.173 10.84 8 16 8s9.333 4.173 9.333 9.333S21.16 26.667 16 26.667z"/>
</svg>
