<svg xmlns="http://www.w3.org/2000/svg" width="24" height="24" fill="none" viewBox="0 0 24 24">
    <g clip-path="url(#clip0)">
        <path fill="#757575" fill-rule="evenodd" d="M.146 12.036c-.195-.196-.195-.512 0-.708l3.182-3.182c.196-.195.512-.195.708 0 .195.196.195.512 0 .708l-2.329 2.328h20.586l-2.328-2.328c-.196-.196-.196-.512 0-.708.195-.195.511-.195.707 0l3.182 3.182c.195.196.195.512 0 .708l-3.182 3.181c-.196.196-.512.196-.707 0-.196-.195-.196-.511 0-.707l2.328-2.328H1.707l2.329 2.328c.195.196.195.512 0 .707-.196.196-.512.196-.708 0L.146 12.037z" clip-rule="evenodd"/>
    </g>
    <defs>
        <clipPath id="clip0">
            <path fill="#fff" d="M0 0H24V24H0z"/>
        </clipPath>
    </defs>
</svg>
