<svg xmlns="http://www.w3.org/2000/svg" width="24" height="24" fill="none" viewBox="0 0 24 24">
    <g fill="#B75BFF" clip-path="url(#clip0)">
        <path d="M23.727 17.136c-.192-.48-.737-.715-1.218-.523-.481.192-.715.738-.523 1.218.244.612.164 1.31-.214 1.868-.379.558-.984.878-1.662.878H3.894c-.74 0-1.396-.385-1.756-1.032-.361-.647-.344-1.41.045-2.04l8.108-13.128c.37-.597 1.009-.954 1.71-.954.703 0 1.343.357 1.712.954l5.996 9.71c.272.44.85.576 1.29.304.44-.272.578-.85.305-1.29l-5.996-9.709c-.713-1.155-1.95-1.844-3.306-1.844-1.357 0-2.593.69-3.306 1.844L.588 16.52c-.752 1.217-.784 2.69-.088 3.939.697 1.248 1.965 1.993 3.394 1.993H20.11c1.31 0 2.481-.62 3.214-1.702.727-1.073.878-2.424.403-3.614z"/>
        <path d="M12.002 18.75c.518 0 .938-.42.938-.938s-.42-.937-.938-.937-.938.42-.938.937c0 .518.42.938.938.938zM12.94 14.531v-6.89c0-.518-.42-.937-.938-.937s-.938.42-.938.937v6.89c0 .518.42.937.938.937s.937-.42.937-.937z"/>
    </g>
    <defs>
        <clipPath id="clip0">
            <path fill="#fff" d="M0 0H24V24H0z"/>
        </clipPath>
    </defs>
</svg>
