<svg width="33" height="32" viewBox="0 0 33 32" fill="none" xmlns="http://www.w3.org/2000/svg">
    <path d="M28.791 22.003v-2.49h2.274c.518 0 .938-.42.938-.938v-5.15a.937.937 0 0 0-.938-.938h-2.274v-2.49a2.816 2.816 0 0 0-2.812-2.812H2.815A2.816 2.816 0 0 0 .003 9.997v12.006a2.816 2.816 0 0 0 2.812 2.812H25.98a2.816 2.816 0 0 0 2.813-2.812zm-25.976.937a.939.939 0 0 1-.937-.937V9.997c0-.517.42-.937.937-.937H25.98c.517 0 .938.42.938.937v12.006c0 .517-.421.937-.938.937H2.815zm27.313-8.578v3.275H28.79v-3.274h1.337z" fill="#000"/>
    <path d="M8.903 20.652v-9.318a.937.937 0 0 0-.938-.937H4.291a.938.938 0 0 0-.938.938v9.317c0 .517.42.937.938.937h3.674c.518 0 .938-.42.938-.937zm-3.675-.938v-7.442h1.8v7.442h-1.8zM16.053 20.652v-9.318a.937.937 0 0 0-.938-.937h-3.674a.937.937 0 0 0-.938.938v9.317c0 .517.42.937.938.937h3.675c.517 0 .937-.42.937-.937zm-3.675-.938v-7.442h1.8v7.442h-1.8zM23.203 20.652v-9.318a.937.937 0 0 0-.938-.937h-3.674a.937.937 0 0 0-.938.938v9.317c0 .517.42.937.938.937h3.674c.518 0 .938-.42.938-.937zm-3.675-.938v-7.442h1.8v7.442h-1.8z" fill="#000"/>
</svg>
