<svg width="32" height="32" viewBox="0 0 32 32" fill="none" xmlns="http://www.w3.org/2000/svg">
    <path d="M16 32c8.81 0 16-7.19 16-16 0-8.81-7.19-16-16-16C7.19 0 0 7.19 0 16c0 8.81 7.19 16 16 16zm-9.179-5.273A12.356 12.356 0 0 1 16 22.625c3.509 0 6.876 1.52 9.179 4.102A14.064 14.064 0 0 1 16 30.125a14.064 14.064 0 0 1-9.179-3.398zM5.668 15.062A10.329 10.329 0 0 1 8.034 9.36l1.274 1.274 1.326-1.326L9.36 8.034a10.329 10.329 0 0 1 5.703-2.366V7.5h1.874V5.668a10.329 10.329 0 0 1 5.703 2.366l-1.274 1.274 1.326 1.326 1.274-1.274a10.331 10.331 0 0 1 2.366 5.703H24.5v1.874h1.832a10.445 10.445 0 0 1-2.653 6.068A14.219 14.219 0 0 0 16 20.75c-2.648 0-5.338.748-7.68 2.255a10.444 10.444 0 0 1-2.652-6.067H7.5v-1.875H5.668zM16 1.876c7.789 0 14.125 6.336 14.125 14.125 0 3.613-1.364 6.914-3.605 9.415a14.039 14.039 0 0 0-1.329-1.288A12.342 12.342 0 0 0 28.25 16c0-6.727-5.522-12.25-12.25-12.25C9.273 3.75 3.75 9.272 3.75 16c0 3 1.104 5.906 3.059 8.127-.472.4-.916.83-1.33 1.288A14.068 14.068 0 0 1 1.876 16C1.875 8.211 8.211 1.875 16 1.875z" fill="#000"/>
    <path d="M13.188 24.5h5.624v1.875h-5.625V24.5zM13.598 17.463A2.793 2.793 0 0 0 16 18.813 2.816 2.816 0 0 0 18.813 16c0-.989-.505-1.887-1.35-2.402l-.049-.03-7.052-3.206 3.206 7.052.03.049zm2.929-2.239a.939.939 0 1 1-1.302 1.302l-1.086-2.388 2.388 1.086z" fill="#000"/>
</svg>
