<svg width="32" height="32" viewBox="0 0 32 32" fill="none" xmlns="http://www.w3.org/2000/svg">
    <path d="M27.25 3.75h-5.332a2.18 2.18 0 0 0-1.977-1.25h-.865l.334-1.335A.938.938 0 0 0 18.5 0h-5a.937.937 0 0 0-.91 1.165l.334 1.335h-.865c-.866 0-1.624.5-1.977 1.25H4.75a.938.938 0 0 0-.938.938v26.375c0 .517.42.937.938.937h22.5c.518 0 .938-.42.938-.938V4.688a.937.937 0 0 0-.938-.937zm-15.191.625h2.066a.937.937 0 0 0 .91-1.165L14.7 1.875h2.598l-.334 1.335a.938.938 0 0 0 .91 1.165h2.066c.154 0 .283.11.308.261l.27 1.614h-9.037l.269-1.614a.311.311 0 0 1 .308-.261zm14.254 25.75H5.688v-24.5h3.997L9.45 7.033a.937.937 0 0 0 .925 1.092h11.25a.937.937 0 0 0 .925-1.092l-.235-1.408h3.997v24.5z" fill="#000"/>
    <path d="M16 11.375c-4.652 0-8.438 3.785-8.438 8.438 0 4.652 3.786 8.437 8.438 8.437 4.652 0 8.438-3.785 8.438-8.438 0-4.652-3.786-8.437-8.438-8.437zm-3.395 14.052a2.647 2.647 0 0 1 2.601-2.177h1.588c1.298 0 2.38.94 2.601 2.177a6.523 6.523 0 0 1-3.395.948 6.523 6.523 0 0 1-3.395-.948zm4.957-5.614c0 .861-.7 1.562-1.562 1.562-.862 0-1.563-.7-1.563-1.563v-1.25c0-.861.701-1.562 1.563-1.562s1.563.7 1.563 1.563v1.25zm3.386 4.305a4.546 4.546 0 0 0-2.17-2.283c.414-.568.66-1.267.66-2.023v-1.25A3.441 3.441 0 0 0 16 15.126a3.441 3.441 0 0 0-3.438 3.438v1.25c0 .755.246 1.454.66 2.022a4.546 4.546 0 0 0-2.17 2.283 6.535 6.535 0 0 1-1.614-4.305A6.57 6.57 0 0 1 16 13.25a6.57 6.57 0 0 1 6.563 6.563c0 1.646-.61 3.152-1.614 4.305z" fill="#000"/>
</svg>
