<svg width="32" height="32" viewBox="0 0 32 32" fill="none" xmlns="http://www.w3.org/2000/svg">
    <path d="m29.964 15.58-3.75-7.5c-.182-.318-.437-.518-.839-.518H6.625c-.392 0-.654.195-.839.519l-3.75 7.5a.932.932 0 0 0 .132 1.035l13.125 15.062a.937.937 0 0 0 1.414 0l13.125-15.062a.932.932 0 0 0 .132-1.035zm-6.106-6.143-2.393 4.787-3.59-4.787h5.983zm-4.108 5.626h-7.5l3.75-5 3.75 5zm-5.625-5.626-3.59 4.787-2.393-4.787h5.983zm-7.5 1.16 2.233 4.466H4.392l2.233-4.467zm-1.69 6.34h4.82l4.623 10.837-9.442-10.837zM16 26.799l-4.206-9.86h8.412L16 26.797zm1.623.976 4.621-10.837h4.82l-9.441 10.837zm5.519-12.712 2.233-4.466 2.233 4.466h-4.466zM16 0a.937.937 0 0 0-.938.938v1.937a.937.937 0 1 0 1.876 0V.937A.937.937 0 0 0 16 0zM12.022 4.134l-1.325-1.326A.937.937 0 1 0 9.37 4.134l1.326 1.326a.937.937 0 1 0 1.325-1.326zM22.629 2.808a.938.938 0 0 0-1.326 0l-1.326 1.326a.938.938 0 0 0 1.326 1.326l1.326-1.326a.938.938 0 0 0 0-1.326z" fill="#000"/>
</svg>
