<svg xmlns="http://www.w3.org/2000/svg" width="156" height="108" fill="none" viewBox="0 0 156 108">
    <path fill="#000" d="M59.503 41.385c2.28 0 4.131-1.852 4.131-4.132 0-.844-.264-1.637-.705-2.292l7.104-12.596c.038.025.076.025.113.038.227.1.466.189.718.252l.114.037c.29.063.592.101.907.101.34 0 .667-.05.982-.126.076-.012.151-.05.227-.075.214-.063.403-.139.605-.24.05-.025.113-.038.163-.063l4.686 6.361c-.113.19-.214.378-.302.58-.013.025-.026.063-.038.088-.076.201-.139.403-.19.604-.012.063-.024.114-.037.177-.05.24-.075.491-.075.743 0 2.28 1.851 4.131 4.131 4.131 2.28 0 4.131-1.851 4.131-4.131 0-.24-.025-.479-.075-.718-.013-.063-.025-.139-.038-.202-.05-.201-.1-.39-.176-.579-.038-.113-.088-.214-.139-.315-.012-.038-.038-.075-.05-.113l9.031-10.883c.542.264 1.134.416 1.776.416 2.28 0 4.132-1.852 4.132-4.132 0-2.28-1.852-4.131-4.132-4.131-2.28 0-4.144 1.902-4.144 4.181 0 .895.29 1.713.768 2.394l-8.855 10.668c-.642-.415-1.41-.667-2.242-.667-.705 0-1.373.201-1.952.516l-4.698-6.386c.403-.642.655-1.385.655-2.204 0-2.28-1.852-4.132-4.132-4.132-2.28 0-4.131 1.852-4.131 4.132 0 .844.252 1.637.693 2.292l-7.117 12.609c-.554-.277-1.172-.454-1.84-.454-2.279 0-4.13 1.852-4.13 4.132.012 2.267 1.864 4.119 4.13 4.119zM96.484 12.3c1.134 0 2.066.92 2.066 2.065 0 1.134-.92 2.066-2.066 2.066-1.133 0-2.065-.92-2.065-2.066s.92-2.065 2.066-2.065zM79.998 30.464c0-.025.012-.05.025-.063.025-.113.05-.214.1-.315 0-.012.013-.012.013-.025.315-.73 1.045-1.234 1.89-1.234.566-.013 1.07.214 1.435.566l.139.164c.227.265.491.718.491 1.323 0 1.133-.92 2.065-2.066 2.065s-2.065-.92-2.065-2.065c0-.139.012-.277.037-.416zm-8.1-13.855c1.134 0 2.066.919 2.066 2.065 0 .605-.264 1.134-.668 1.512-.755.692-1.99.692-2.758.012-.428-.378-.693-.92-.693-1.536-.012-1.121.907-2.053 2.053-2.053zM59.503 35.186c1.133 0 2.066.92 2.066 2.066 0 1.134-.92 2.066-2.066 2.066-1.134 0-2.066-.92-2.066-2.066.013-1.133.932-2.066 2.066-2.066z"/>
    <path fill="#000" d="M105.856.007H50.132C47.852.007 46 1.858 46 4.138c0 2.28 1.852 4.132 4.132 4.132v34.06c0 1.712 1.385 3.098 3.098 3.098h9.926l-6.197 18.566h6.297l1.726-5.164h26.036l1.726 5.164h6.297l-6.197-18.579h9.926c1.713 0 3.099-1.385 3.099-3.098V8.257c2.279 0 4.131-1.851 4.131-4.131-.013-2.268-1.864-4.12-4.144-4.12zM96.17 61.928h-1.953l-1.725-5.164H63.496l-1.726 5.164h-1.952l5.504-16.513h1.953l-2.406 7.23H91.13l-2.406-7.23h1.953L96.17 61.93zM67.728 50.58l1.726-5.165h17.092l1.713 5.165H67.728zm36.075-8.263h-.013c0 .566-.466 1.032-1.033 1.032H53.23c-.567 0-1.033-.466-1.033-1.032V8.257h51.606v34.06zm2.053-36.113H50.132c-1.134 0-2.066-.92-2.066-2.066 0-1.133.92-2.065 2.066-2.065h55.737c1.133 0 2.065.92 2.065 2.065-.012 1.134-.932 2.066-2.078 2.066zM11 102h2v-2h-2v2zm1-16C6.48 86 2 90.48 2 96s4.48 10 10 10 10-4.48 10-10-4.48-10-10-10zm0 18c-4.41 0-8-3.59-8-8s3.59-8 8-8 8 3.59 8 8-3.59 8-8 8zm0-14c-2.21 0-4 1.79-4 4h2c0-1.1.9-2 2-2s2 .9 2 2c0 2-3 1.75-3 5h2c0-2.25 3-2.5 3-5 0-2.21-1.79-4-4-4zM55 102h2v-2h-2v2zm1-16c-5.52 0-10 4.48-10 10s4.48 10 10 10 10-4.48 10-10-4.48-10-10-10zm0 18c-4.41 0-8-3.59-8-8s3.59-8 8-8 8 3.59 8 8-3.59 8-8 8zm0-14c-2.21 0-4 1.79-4 4h2c0-1.1.9-2 2-2s2 .9 2 2c0 2-3 1.75-3 5h2c0-2.25 3-2.5 3-5 0-2.21-1.79-4-4-4zM99 102h2v-2h-2v2zm1-16c-5.52 0-10 4.48-10 10s4.48 10 10 10 10-4.48 10-10-4.48-10-10-10zm0 18c-4.41 0-8-3.59-8-8s3.59-8 8-8 8 3.59 8 8-3.59 8-8 8zm0-14c-2.21 0-4 1.79-4 4h2c0-1.1.9-2 2-2s2 .9 2 2c0 2-3 1.75-3 5h2c0-2.25 3-2.5 3-5 0-2.21-1.79-4-4-4zM143 102h2v-2h-2v2zm1-16c-5.52 0-10 4.48-10 10s4.48 10 10 10 10-4.48 10-10-4.48-10-10-10zm0 18c-4.41 0-8-3.59-8-8s3.59-8 8-8 8 3.59 8 8-3.59 8-8 8zm0-14c-2.21 0-4 1.79-4 4h2c0-1.1.9-2 2-2s2 .9 2 2c0 2-3 1.75-3 5h2c0-2.25 3-2.5 3-5 0-2.21-1.79-4-4-4zM26 95H42V97H26zM70 95H86V97H70zM114 95H130V97H114z"/>
</svg>
