<svg xmlns="http://www.w3.org/2000/svg" width="78" height="78" fill="none" viewBox="0 0 78 78">
    <path fill="#000" d="M63.877 41.957c-.575-5.78-3.157-11.23-7.272-15.344-3.515-3.515-7.82-5.775-12.347-6.78v-3.175c1.85-.46 3.224-2.135 3.224-4.125 0-2.343-1.907-4.25-4.25-4.25h-9c-2.344 0-4.25 1.907-4.25 4.25 0 1.99 1.374 3.664 3.224 4.124v3.185c-4.515 1.01-8.804 3.266-12.31 6.772-.767.767-1.475 1.572-2.123 2.408-.03-.002-.062-.005-.094-.005H9.77c-.69 0-1.25.56-1.25 1.25s.56 1.25 1.25 1.25h7.302c-.917 1.535-1.656 3.146-2.218 4.805H1.25c-.69 0-1.25.56-1.25 1.25s.56 1.25 1.25 1.25h12.898c-.36 1.582-.567 3.191-.62 4.805H8c-.69 0-1.25.56-1.25 1.25s.56 1.25 1.25 1.25h5.568c.105 1.618.365 3.227.78 4.805H6.25c-.69 0-1.25.56-1.25 1.25s.56 1.25 1.25 1.25h8.896c1.226 3.244 3.143 6.284 5.75 8.891 4.118 4.119 9.573 6.701 15.359 7.273.825.081 1.652.122 2.477.122 4.878 0 9.694-1.412 13.78-4.073.579-.376.742-1.15.365-1.73-.376-.578-1.15-.742-1.73-.365-8.944 5.825-20.923 4.566-28.483-2.994-8.87-8.87-8.87-23.304 0-32.175 8.87-8.87 23.303-8.87 32.174 0 7.55 7.55 8.816 19.52 3.01 28.46-.376.58-.211 1.353.368 1.73.58.375 1.353.21 1.73-.368 3.1-4.777 4.497-10.547 3.93-16.246zM32.482 12.533c0-.965.785-1.75 1.75-1.75h9c.965 0 1.75.785 1.75 1.75s-.785 1.75-1.75 1.75h-9c-.965 0-1.75-.785-1.75-1.75zm3.224 6.88v-2.63h6.051v2.625c-2.009-.239-4.042-.237-6.051.005z"/>
    <path fill="#000" d="M55.722 60.188c-.33 0-.651.134-.884.367-.233.232-.366.555-.366.883 0 .33.133.652.366.884.233.234.554.366.884.366.329 0 .65-.132.884-.366.232-.232.366-.555.366-.884 0-.328-.134-.65-.366-.883-.234-.233-.555-.367-.884-.367zM38.75 25.076c-10.692 0-19.39 8.7-19.39 19.392s8.698 19.391 19.39 19.391c10.693 0 19.392-8.699 19.392-19.391 0-10.693-8.699-19.392-19.391-19.392zm0 36.283c-9.313 0-16.89-7.578-16.89-16.891 0-9.314 7.577-16.892 16.89-16.892 9.315 0 16.892 7.578 16.892 16.892 0 9.313-7.577 16.891-16.891 16.891z"/>
    <path fill="#000" d="M46.658 34.794l-6.191 6.191c-.518-.256-1.1-.4-1.716-.4-.616 0-1.198.144-1.716.4l-2.771-2.77c-.488-.489-1.28-.489-1.768 0-.488.487-.488 1.279 0 1.767l2.771 2.77c-.256.519-.4 1.101-.4 1.717 0 2.141 1.742 3.884 3.884 3.884s3.884-1.743 3.884-3.884c0-.616-.145-1.198-.4-1.716l6.009-6.01.182-.181c.488-.488.488-1.28 0-1.768-.489-.488-1.28-.488-1.768 0zM38.75 45.853c-.764 0-1.385-.621-1.385-1.384 0-.764.621-1.385 1.385-1.385.763 0 1.384.621 1.384 1.385 0 .763-.621 1.384-1.384 1.384zM52.116 43.233h-1.158c-.69 0-1.25.56-1.25 1.25s.56 1.25 1.25 1.25h1.158c.69 0 1.25-.56 1.25-1.25s-.56-1.25-1.25-1.25zM26.544 43.203h-1.158c-.69 0-1.25.56-1.25 1.25s.56 1.25 1.25 1.25h1.158c.69 0 1.25-.56 1.25-1.25s-.56-1.25-1.25-1.25zM38.766 33.511c.69 0 1.25-.56 1.25-1.25v-1.158c0-.69-.56-1.25-1.25-1.25s-1.25.56-1.25 1.25v1.158c0 .69.56 1.25 1.25 1.25zM38.736 55.426c-.69 0-1.25.56-1.25 1.25v1.158c0 .69.56 1.25 1.25 1.25s1.25-.56 1.25-1.25v-1.158c0-.69-.56-1.25-1.25-1.25zM1.25 50.93c-.329 0-.651.134-.884.367-.232.232-.366.555-.366.884 0 .33.134.65.366.883.233.233.555.367.884.367.329 0 .651-.134.884-.367.232-.232.366-.555.366-.883 0-.33-.134-.652-.366-.884-.233-.233-.555-.366-.884-.366z"/>
</svg>
