<svg xmlns="http://www.w3.org/2000/svg" width="156" height="108" fill="none" viewBox="0 0 156 108">
    <path fill="#000" d="M11 102h2v-2h-2v2zm1-16C6.48 86 2 90.48 2 96s4.48 10 10 10 10-4.48 10-10-4.48-10-10-10zm0 18c-4.41 0-8-3.59-8-8s3.59-8 8-8 8 3.59 8 8-3.59 8-8 8zm0-14c-2.21 0-4 1.79-4 4h2c0-1.1.9-2 2-2s2 .9 2 2c0 2-3 1.75-3 5h2c0-2.25 3-2.5 3-5 0-2.21-1.79-4-4-4zM55 102h2v-2h-2v2zm1-16c-5.52 0-10 4.48-10 10s4.48 10 10 10 10-4.48 10-10-4.48-10-10-10zm0 18c-4.41 0-8-3.59-8-8s3.59-8 8-8 8 3.59 8 8-3.59 8-8 8zm0-14c-2.21 0-4 1.79-4 4h2c0-1.1.9-2 2-2s2 .9 2 2c0 2-3 1.75-3 5h2c0-2.25 3-2.5 3-5 0-2.21-1.79-4-4-4zM99 102h2v-2h-2v2zm1-16c-5.52 0-10 4.48-10 10s4.48 10 10 10 10-4.48 10-10-4.48-10-10-10zm0 18c-4.41 0-8-3.59-8-8s3.59-8 8-8 8 3.59 8 8-3.59 8-8 8zm0-14c-2.21 0-4 1.79-4 4h2c0-1.1.9-2 2-2s2 .9 2 2c0 2-3 1.75-3 5h2c0-2.25 3-2.5 3-5 0-2.21-1.79-4-4-4zM143 102h2v-2h-2v2zm1-16c-5.52 0-10 4.48-10 10s4.48 10 10 10 10-4.48 10-10-4.48-10-10-10zm0 18c-4.41 0-8-3.59-8-8s3.59-8 8-8 8 3.59 8 8-3.59 8-8 8zm0-14c-2.21 0-4 1.79-4 4h2c0-1.1.9-2 2-2s2 .9 2 2c0 2-3 1.75-3 5h2c0-2.25 3-2.5 3-5 0-2.21-1.79-4-4-4zM26 95H42V97H26zM70 95H86V97H70zM114 95H130V97H114zM61.75 25c.69 0 1.25-.56 1.25-1.25s-.56-1.25-1.25-1.25-1.25.56-1.25 1.25.56 1.25 1.25 1.25z"/>
    <path fill="#000" d="M99.25 7.5H95.5V3.75C95.5 1.682 93.818 0 91.75 0H70.285c-.993 0-1.953.4-2.651 1.099L54.099 14.633c-.69.69-1.099 1.646-1.099 2.652V52c0 2.068 1.682 3.75 3.75 3.75h3.75v4.5c0 2.068 1.682 3.75 3.75 3.75h35c2.068 0 3.75-1.682 3.75-3.75v-49c0-2.068-1.682-3.75-3.75-3.75zM68 4.268V15H57.268L68 4.268zM56.75 53.25c-.69 0-1.25-.56-1.25-1.25V17.5h13.75c.69 0 1.25-.56 1.25-1.25V2.5h21.25c.69 0 1.25.56 1.25 1.25V52c0 .69-.56 1.25-1.25 1.25h-35zm43.75 7c0 .69-.56 1.25-1.25 1.25h-35c-.69 0-1.25-.56-1.25-1.25v-4.5h28.75c2.068 0 3.75-1.682 3.75-3.75V10h3.75c.69 0 1.25.56 1.25 1.25v49z"/>
    <path fill="#000" d="M86.75 7.5h-10c-.69 0-1.25.56-1.25 1.25v7.5c0 .69.56 1.25 1.25 1.25h10c.69 0 1.25-.56 1.25-1.25v-7.5c0-.69-.56-1.25-1.25-1.25zM85.5 15H78v-5h7.5v5zM86.75 22.5h-20c-.69 0-1.25.56-1.25 1.25S66.06 25 66.75 25h20c.69 0 1.25-.56 1.25-1.25s-.56-1.25-1.25-1.25zM86.75 30h-25c-.69 0-1.25.56-1.25 1.25s.56 1.25 1.25 1.25h25c.69 0 1.25-.56 1.25-1.25S87.44 30 86.75 30zM86.75 37.5h-25c-.69 0-1.25.56-1.25 1.25S61.06 40 61.75 40h25c.69 0 1.25-.56 1.25-1.25s-.56-1.25-1.25-1.25zM86.75 45h-25c-.69 0-1.25.56-1.25 1.25s.56 1.25 1.25 1.25h25c.69 0 1.25-.56 1.25-1.25S87.44 45 86.75 45z"/>
</svg>
