<svg width="12" height="12" viewBox="0 0 12 12" fill="none" xmlns="http://www.w3.org/2000/svg">
<path d="M4.5 6.5C5.60457 6.5 6.5 5.60457 6.5 4.5C6.5 3.39543 5.60457 2.5 4.5 2.5C3.39543 2.5 2.5 3.39543 2.5 4.5C2.5 5.60457 3.39543 6.5 4.5 6.5Z" fill="black"/>
<path d="M4.5 7.5C3.165 7.5 0.5 8.17 0.5 9.5V10.5H8.5V9.5C8.5 8.17 5.835 7.5 4.5 7.5ZM8.38 2.68L7.54 3.525C7.96 4.115 7.96 4.88 7.54 5.47L8.38 6.315C9.39 5.305 9.39 3.78 8.38 2.68ZM10.035 1L9.22 1.815C10.605 3.325 10.605 5.595 9.22 7.185L10.035 8C11.985 6.055 11.99 3.025 10.035 1Z" fill="black"/>
</svg>
