<svg xmlns="http://www.w3.org/2000/svg" width="48" height="48" fill="none" viewBox="0 0 48 48">
    <path fill="#000" d="M42.703 1.197c-.18-.18-.448-.243-.69-.162L17.48 9.272c-.352.118-.542.5-.424.853.118.353.5.543.853.425l19.994-6.714-23.705 16.345-6.279-6.278 7.01-2.354c.352-.118.542-.5.424-.853-.119-.353-.5-.543-.854-.424l-8.04 2.7c-.22.074-.388.257-.441.485-.053.226.014.465.18.63l7.264 7.264.478 7.657-.166.166c-.263.263-.263.69 0 .953.132.131.304.197.477.197.172 0 .345-.066.476-.197l.166-.166 7.656.478 7.265 7.264c.128.128.3.198.476.198.052 0 .103-.006.155-.018.227-.053.41-.22.484-.442l5.518-16.435c.119-.352-.071-.735-.424-.853s-.735.071-.853.424l-5.172 15.404-6.278-6.278L40.065 5.997l-3.895 11.6c-.118.352.072.734.425.852.071.024.143.036.214.036.282 0 .544-.178.639-.46l5.418-16.137c.081-.242.018-.51-.163-.69zm-20.196 27.89l-6.343-.397 21.31-21.311-14.966 21.707zm14.014-22.66l-21.31 21.31-.396-6.344L36.52 6.426zM12.357 36.849h-1.149c-.372 0-.674.302-.674.674 0 .372.302.674.674.674h1.149c.372 0 .673-.302.673-.674 0-.372-.301-.674-.673-.674zM18.183 39.215c-.356-.107-.732.095-.84.451-.053.177-.151.338-.292.479l-.176.176c-.263.264-.263.69 0 .953.132.132.304.198.477.198.172 0 .344-.066.476-.198l.177-.176c.3-.3.51-.651.63-1.044.106-.356-.096-.732-.452-.839zM9.489 34.25c-.325-.18-.736-.064-.916.262-.2.36-.306.77-.306 1.183 0 .115.008.233.025.348.047.337.336.58.666.58.031 0 .063-.002.095-.007.369-.052.625-.393.573-.761-.007-.053-.011-.107-.011-.16 0-.188.046-.366.136-.53.18-.325.063-.735-.262-.915zM11.273 33.302c.172 0 .345-.066.476-.198l.812-.812c.264-.263.264-.69 0-.953-.263-.263-.69-.263-.953 0l-.812.812c-.263.264-.263.69 0 .953.132.132.304.198.477.198zM17.23 37.663c.063-.367-.184-.715-.55-.777-.142-.025-.288-.037-.436-.037h-.825c-.372 0-.674.302-.674.674 0 .372.302.674.674.674h.825c.072 0 .142.005.208.017.039.006.077.01.115.01.322 0 .607-.232.663-.56zM14.71 42.487l-.813.812c-.263.263-.263.69 0 .953.132.131.305.197.477.197s.345-.066.476-.197l.813-.812c.263-.263.263-.69 0-.953-.264-.263-.69-.263-.954 0zM11.728 45.469l-.381.38c-.263.264-.263.69 0 .954.131.131.304.197.476.197.173 0 .345-.066.477-.197l.38-.381c.264-.264.264-.69 0-.953-.262-.264-.689-.264-.952 0z"/>
    <path stroke="#000" stroke-width=".3" d="M42.703 1.197c-.18-.18-.448-.243-.69-.162L17.48 9.272c-.352.118-.542.5-.424.853.118.353.5.543.853.425l19.994-6.714-23.705 16.345-6.279-6.278 7.01-2.354c.352-.118.542-.5.424-.853-.119-.353-.5-.543-.854-.424l-8.04 2.7c-.22.074-.388.257-.441.485-.053.226.014.465.18.63l7.264 7.264.478 7.657-.166.166c-.263.263-.263.69 0 .953.132.131.304.197.477.197.172 0 .345-.066.476-.197l.166-.166 7.656.478 7.265 7.264c.128.128.3.198.476.198.052 0 .103-.006.155-.018.227-.053.41-.22.484-.442l5.518-16.435c.119-.352-.071-.735-.424-.853s-.735.071-.853.424l-5.172 15.404-6.278-6.278L40.065 5.997l-3.895 11.6c-.118.352.072.734.425.852.071.024.143.036.214.036.282 0 .544-.178.639-.46l5.418-16.137c.081-.242.018-.51-.163-.69zm-20.196 27.89l-6.343-.397 21.31-21.311-14.966 21.707zm14.014-22.66l-21.31 21.31-.396-6.344L36.52 6.426zM12.357 36.849h-1.149c-.372 0-.674.302-.674.674 0 .372.302.674.674.674h1.149c.372 0 .673-.302.673-.674 0-.372-.301-.674-.673-.674zM18.183 39.215c-.356-.107-.732.095-.84.451-.053.177-.151.338-.292.479l-.176.176c-.263.264-.263.69 0 .953.132.132.304.198.477.198.172 0 .344-.066.476-.198l.177-.176c.3-.3.51-.651.63-1.044.106-.356-.096-.732-.452-.839zM9.489 34.25c-.325-.18-.736-.064-.916.262-.2.36-.306.77-.306 1.183 0 .115.008.233.025.348.047.337.336.58.666.58.031 0 .063-.002.095-.007.369-.052.625-.393.573-.761-.007-.053-.011-.107-.011-.16 0-.188.046-.366.136-.53.18-.325.063-.735-.262-.915zM11.273 33.302c.172 0 .345-.066.476-.198l.812-.812c.264-.263.264-.69 0-.953-.263-.263-.69-.263-.953 0l-.812.812c-.263.264-.263.69 0 .953.132.132.304.198.477.198zM17.23 37.663c.063-.367-.184-.715-.55-.777-.142-.025-.288-.037-.436-.037h-.825c-.372 0-.674.302-.674.674 0 .372.302.674.674.674h.825c.072 0 .142.005.208.017.039.006.077.01.115.01.322 0 .607-.232.663-.56zM14.71 42.487l-.813.812c-.263.263-.263.69 0 .953.132.131.305.197.477.197s.345-.066.476-.197l.813-.812c.263-.263.263-.69 0-.953-.264-.263-.69-.263-.954 0zM11.728 45.469l-.381.38c-.263.264-.263.69 0 .954.131.131.304.197.476.197.173 0 .345-.066.477-.197l.38-.381c.264-.264.264-.69 0-.953-.262-.264-.689-.264-.952 0z"/>
</svg>
