<svg width="48" height="48" viewBox="0 0 48 48" fill="none" xmlns="http://www.w3.org/2000/svg">
<path d="M42.7034 1.1973C42.5223 1.01635 42.255 0.953823 42.0124 1.03495L17.4804 9.27185C17.1277 9.39035 16.9377 9.77237 17.0561 10.1252C17.1745 10.4779 17.5562 10.6678 17.9094 10.5495L37.9034 3.83629L14.1977 20.1813L7.9193 13.9031L14.9285 11.5494C15.2813 11.431 15.4712 11.049 15.3527 10.6961C15.2343 10.3433 14.8526 10.1531 14.4995 10.2719L6.45934 12.9718C6.23823 13.046 6.07121 13.2294 6.01784 13.4565C5.96456 13.6835 6.0324 13.9222 6.19735 14.0871L13.4617 21.3514L13.9402 29.0077L13.7741 29.1739C13.5109 29.4371 13.5109 29.8637 13.7742 30.1268C13.9058 30.2583 14.0782 30.3241 14.2506 30.3241C14.4231 30.3241 14.5956 30.2583 14.7271 30.1267L14.8933 29.9606L22.5495 30.4391L29.8139 37.7034C29.9418 37.8313 30.1138 37.9007 30.2904 37.9007C30.3417 37.9007 30.3934 37.8949 30.4445 37.8828C30.6717 37.8295 30.8549 37.6625 30.9293 37.4413L36.4475 21.0063C36.566 20.6535 36.3759 20.2714 36.0232 20.1529C35.6705 20.0346 35.2883 20.2244 35.1699 20.5774L29.9979 35.9814L23.7196 29.7031L40.0648 5.9965L36.1704 17.5963C36.052 17.9491 36.242 18.3311 36.5948 18.4495C36.666 18.4734 36.7382 18.4847 36.8093 18.4847C37.0909 18.4847 37.3535 18.3068 37.448 18.0252L42.8656 1.8882C42.947 1.6458 42.8842 1.37825 42.7034 1.1973ZM22.5075 29.0861L16.1639 28.6896L37.4746 7.37901L22.5075 29.0861ZM36.5214 6.42613L15.2109 27.7366L14.8145 21.3931L36.5214 6.42613Z" fill="black"/>
<path d="M12.3566 36.849H11.2081C10.8359 36.849 10.5343 37.1506 10.5343 37.5228C10.5343 37.895 10.8359 38.1966 11.2081 38.1966H12.3566C12.7288 38.1966 13.0304 37.895 13.0304 37.5228C13.0304 37.1506 12.7288 36.849 12.3566 36.849Z" fill="black"/>
<path d="M18.1827 39.2151C17.8267 39.1083 17.4507 39.3099 17.3434 39.6664C17.2901 39.8434 17.1919 40.0044 17.0514 40.1449L16.8749 40.3213C16.6118 40.5846 16.6118 41.0111 16.8749 41.2743C17.0066 41.4058 17.1791 41.4716 17.3515 41.4716C17.5239 41.4716 17.6964 41.4058 17.828 41.2743L18.0045 41.0978C18.3042 40.7981 18.5159 40.447 18.6341 40.0543C18.7412 39.6981 18.5391 39.3223 18.1827 39.2151Z" fill="black"/>
<path d="M9.48885 34.2497C9.16371 34.0691 8.75321 34.1864 8.57272 34.5118C8.37272 34.872 8.26716 35.2811 8.26716 35.6947C8.26716 35.8105 8.27542 35.9278 8.29159 36.043C8.33912 36.3795 8.62761 36.6226 8.95797 36.6226C8.98941 36.6226 9.02113 36.6205 9.05311 36.616C9.42165 36.5639 9.67816 36.223 9.62614 35.8545C9.61859 35.8015 9.61482 35.7477 9.61482 35.6947C9.61482 35.5067 9.66064 35.3288 9.75111 35.1658C9.9316 34.8405 9.81427 34.4302 9.48885 34.2497Z" fill="black"/>
<path d="M11.2727 33.3017C11.4452 33.3017 11.6177 33.2359 11.7493 33.1044L12.5614 32.2923C12.8245 32.0291 12.8245 31.6025 12.5614 31.3393C12.2981 31.0763 11.8715 31.0763 11.6084 31.3393L10.7963 32.1514C10.5331 32.4147 10.5331 32.8413 10.7963 33.1044C10.9278 33.2358 11.1003 33.3017 11.2727 33.3017Z" fill="black"/>
<path d="M17.2302 37.6632C17.2929 37.2964 17.0463 36.9482 16.6795 36.8855C16.5379 36.8613 16.3915 36.8491 16.2444 36.8491H15.4191C15.0469 36.8491 14.7453 37.1507 14.7453 37.5229C14.7453 37.8951 15.0469 38.1967 15.4191 38.1967H16.2444C16.3156 38.1967 16.3855 38.2025 16.4524 38.2139C16.4908 38.2204 16.529 38.2236 16.5667 38.2236C16.889 38.2236 17.174 37.9916 17.2302 37.6632Z" fill="black"/>
<path d="M14.7095 42.4869L13.8974 43.299C13.6343 43.5623 13.6343 43.9888 13.8974 44.252C14.0291 44.3835 14.2016 44.4493 14.374 44.4493C14.5464 44.4493 14.7189 44.3835 14.8505 44.252L15.6626 43.4399C15.9258 43.1766 15.9258 42.7501 15.6626 42.4869C15.3994 42.2239 14.9728 42.2239 14.7095 42.4869Z" fill="black"/>
<path d="M11.7278 45.4686L11.3467 45.8497C11.0835 46.113 11.0835 46.5396 11.3467 46.8027C11.4783 46.9342 11.6508 47 11.8232 47C11.9956 47 12.1681 46.9342 12.2997 46.8027L12.6809 46.4216C12.944 46.1583 12.944 45.7318 12.6809 45.4686C12.4176 45.2055 11.991 45.2055 11.7278 45.4686Z" fill="black"/>
<path d="M42.7034 1.1973C42.5223 1.01635 42.255 0.953823 42.0124 1.03495L17.4804 9.27185C17.1277 9.39035 16.9377 9.77237 17.0561 10.1252C17.1745 10.4779 17.5562 10.6678 17.9094 10.5495L37.9034 3.83629L14.1977 20.1813L7.9193 13.9031L14.9285 11.5494C15.2813 11.431 15.4712 11.049 15.3527 10.6961C15.2343 10.3433 14.8526 10.1531 14.4995 10.2719L6.45934 12.9718C6.23823 13.046 6.07121 13.2294 6.01784 13.4565C5.96456 13.6835 6.0324 13.9222 6.19735 14.0871L13.4617 21.3514L13.9402 29.0077L13.7741 29.1739C13.5109 29.4371 13.5109 29.8637 13.7742 30.1268C13.9058 30.2583 14.0782 30.3241 14.2506 30.3241C14.4231 30.3241 14.5956 30.2583 14.7271 30.1267L14.8933 29.9606L22.5495 30.4391L29.8139 37.7034C29.9418 37.8313 30.1138 37.9007 30.2904 37.9007C30.3417 37.9007 30.3934 37.8949 30.4445 37.8828C30.6717 37.8295 30.8549 37.6625 30.9293 37.4413L36.4475 21.0063C36.566 20.6535 36.3759 20.2714 36.0232 20.1529C35.6705 20.0346 35.2883 20.2244 35.1699 20.5774L29.9979 35.9814L23.7196 29.7031L40.0648 5.9965L36.1704 17.5963C36.052 17.9491 36.242 18.3311 36.5948 18.4495C36.666 18.4734 36.7382 18.4847 36.8093 18.4847C37.0909 18.4847 37.3535 18.3068 37.448 18.0252L42.8656 1.8882C42.947 1.6458 42.8842 1.37825 42.7034 1.1973ZM22.5075 29.0861L16.1639 28.6896L37.4746 7.37901L22.5075 29.0861ZM36.5214 6.42613L15.2109 27.7366L14.8145 21.3931L36.5214 6.42613Z" stroke="black" stroke-width="0.3"/>
<path d="M12.3566 36.849H11.2081C10.8359 36.849 10.5343 37.1506 10.5343 37.5228C10.5343 37.895 10.8359 38.1966 11.2081 38.1966H12.3566C12.7288 38.1966 13.0304 37.895 13.0304 37.5228C13.0304 37.1506 12.7288 36.849 12.3566 36.849Z" stroke="black" stroke-width="0.3"/>
<path d="M18.1827 39.2151C17.8267 39.1083 17.4507 39.3099 17.3434 39.6664C17.2901 39.8434 17.1919 40.0044 17.0514 40.1449L16.8749 40.3213C16.6118 40.5846 16.6118 41.0111 16.8749 41.2743C17.0066 41.4058 17.1791 41.4716 17.3515 41.4716C17.5239 41.4716 17.6964 41.4058 17.828 41.2743L18.0045 41.0978C18.3042 40.7981 18.5159 40.447 18.6341 40.0543C18.7412 39.6981 18.5391 39.3223 18.1827 39.2151Z" stroke="black" stroke-width="0.3"/>
<path d="M9.48885 34.2497C9.16371 34.0691 8.75321 34.1864 8.57272 34.5118C8.37272 34.872 8.26716 35.2811 8.26716 35.6947C8.26716 35.8105 8.27542 35.9278 8.29159 36.043C8.33912 36.3795 8.62761 36.6226 8.95797 36.6226C8.98941 36.6226 9.02113 36.6205 9.05311 36.616C9.42165 36.5639 9.67816 36.223 9.62614 35.8545C9.61859 35.8015 9.61482 35.7477 9.61482 35.6947C9.61482 35.5067 9.66064 35.3288 9.75111 35.1658C9.9316 34.8405 9.81427 34.4302 9.48885 34.2497Z" stroke="black" stroke-width="0.3"/>
<path d="M11.2727 33.3017C11.4452 33.3017 11.6177 33.2359 11.7493 33.1044L12.5614 32.2923C12.8245 32.0291 12.8245 31.6025 12.5614 31.3393C12.2981 31.0763 11.8715 31.0763 11.6084 31.3393L10.7963 32.1514C10.5331 32.4147 10.5331 32.8413 10.7963 33.1044C10.9278 33.2358 11.1003 33.3017 11.2727 33.3017Z" stroke="black" stroke-width="0.3"/>
<path d="M17.2302 37.6632C17.2929 37.2964 17.0463 36.9482 16.6795 36.8855C16.5379 36.8613 16.3915 36.8491 16.2444 36.8491H15.4191C15.0469 36.8491 14.7453 37.1507 14.7453 37.5229C14.7453 37.8951 15.0469 38.1967 15.4191 38.1967H16.2444C16.3156 38.1967 16.3855 38.2025 16.4524 38.2139C16.4908 38.2204 16.529 38.2236 16.5667 38.2236C16.889 38.2236 17.174 37.9916 17.2302 37.6632Z" stroke="black" stroke-width="0.3"/>
<path d="M14.7095 42.4869L13.8974 43.299C13.6343 43.5623 13.6343 43.9888 13.8974 44.252C14.0291 44.3835 14.2016 44.4493 14.374 44.4493C14.5464 44.4493 14.7189 44.3835 14.8505 44.252L15.6626 43.4399C15.9258 43.1766 15.9258 42.7501 15.6626 42.4869C15.3994 42.2239 14.9728 42.2239 14.7095 42.4869Z" stroke="black" stroke-width="0.3"/>
<path d="M11.7278 45.4686L11.3467 45.8497C11.0835 46.113 11.0835 46.5396 11.3467 46.8027C11.4783 46.9342 11.6508 47 11.8232 47C11.9956 47 12.1681 46.9342 12.2997 46.8027L12.6809 46.4216C12.944 46.1583 12.944 45.7318 12.6809 45.4686C12.4176 45.2055 11.991 45.2055 11.7278 45.4686Z" stroke="black" stroke-width="0.3"/>
</svg>
