<svg width="48" height="48" viewBox="0 0 48 48" fill="none" xmlns="http://www.w3.org/2000/svg">
<path d="M36.3133 32.7566L29.6984 36.1544C29.1256 35.5772 28.3324 35.2192 27.457 35.2192H22.8987C22.6959 35.2192 22.6217 35.2067 22.5994 35.2014C22.5581 35.1734 22.4551 35.0765 22.3715 34.9978L22.3279 34.9567C18.6177 31.4628 15.4826 31.6845 11.917 33.0917C11.359 33.3118 11.3484 33.3123 10.7953 33.3375L9.7912 33.3388C9.47775 32.4504 8.63091 31.8118 7.63755 31.8118H4.28364C3.02445 31.8118 2 32.8374 2 34.098V42.894C2 44.1533 3.02445 45.1777 4.28364 45.1777H7.63746C8.63091 45.1777 9.47775 44.5399 9.7912 43.6523H11.6355C11.8443 43.6704 12.0479 43.7129 12.2463 43.7797L20.9192 46.0988C21.299 46.2018 21.6477 46.3031 21.9849 46.4012C23.105 46.7267 24.0465 47.0002 25.0282 47.0001C26.1372 47.0001 27.2975 46.6509 28.8239 45.6328C28.8315 45.6276 28.8391 45.6225 28.8465 45.6172L39.54 38.0024C40.9457 36.9995 41.3554 35.1893 40.4928 33.791C39.6401 32.4124 37.8428 31.968 36.3133 32.7566ZM8.12431 42.8941C8.12431 43.158 7.90132 43.381 7.63746 43.381H4.28364C4.01969 43.381 3.7968 43.158 3.7968 42.8941V34.0981C3.7968 33.8328 4.01978 33.6087 4.28364 33.6087H7.63746C7.90141 33.6087 8.12431 33.8328 8.12431 34.0981V42.8941ZM38.497 36.5393L27.8154 44.1456C25.6413 45.5927 24.7161 45.3237 22.486 44.6758C22.1412 44.5756 21.7847 44.472 21.3863 44.3639L12.7111 42.0442C12.3621 41.9359 12.0034 41.873 11.6353 41.8556H9.92111V35.1366L10.8771 35.1325C11.5609 35.1014 11.7729 35.0802 12.5764 34.7632C15.6669 33.5433 18.0518 33.3981 21.0969 36.2656L21.1399 36.306C21.6642 36.7997 21.9891 37.0159 22.8987 37.0159H27.457C28.2085 37.0159 28.8199 37.6274 28.8199 38.3789C28.8199 39.1291 28.2085 39.7393 27.457 39.7393H20.067C19.5708 39.7393 19.1686 40.1416 19.1686 40.6377C19.1686 41.1339 19.5708 41.5361 20.067 41.5361H27.457C29.1993 41.5361 30.6167 40.1198 30.6167 38.3789C30.6167 38.1588 30.5938 37.9439 30.5508 37.7364L37.1354 34.3542C37.7356 34.0448 38.5566 34.0765 38.964 34.7353C39.3232 35.3176 39.1221 36.0934 38.497 36.5393Z" fill="black"/>
<path d="M22.6795 22.2499C21.7069 22.7236 21.035 23.7221 21.035 24.8746C21.035 26.1454 21.8533 27.2282 22.9908 27.6264V28.9644C22.9908 30.6029 24.3225 31.9358 25.9594 31.9358H29.9396C31.5779 31.9358 32.9109 30.6029 32.9109 28.9644V27.6264C34.0484 27.2282 34.8666 26.1453 34.8666 24.8746C34.8666 23.722 34.1947 22.7235 33.2221 22.2498C33.6155 20.7883 34.413 19.7 35.2518 18.5585C36.5421 16.8025 38.0045 14.8122 38.0013 11.3064C38.0013 10.9934 37.9884 10.6721 37.9629 10.3515C37.9235 9.85681 37.4917 9.48891 36.996 9.52709C36.5014 9.56644 36.1324 9.99929 36.1717 10.494C36.1935 10.7673 36.2045 11.0406 36.2045 11.3071C36.2071 14.2237 35.0397 15.8125 33.8037 17.4946C32.8659 18.7709 31.9007 20.0866 31.4408 21.9566H24.4604C24.0006 20.0868 23.0351 18.7712 22.0971 17.4949C20.8607 15.8128 19.693 14.224 19.6969 11.3074C19.7008 8.19737 21.0332 6.23329 22.1504 5.13329C23.6886 3.61858 25.7957 2.76726 27.938 2.79745C27.9466 2.79754 27.9551 2.79754 27.9638 2.79745C29.7093 2.77094 31.4599 3.3399 32.8891 4.39651C33.2879 4.69145 33.8506 4.60709 34.1456 4.20821C34.4405 3.80923 34.3562 3.24665 33.9573 2.9517C32.2172 1.66537 30.0845 0.973335 27.9506 1.00092C25.3373 0.969023 22.7651 2.00676 20.8898 3.85334C18.9378 5.77555 17.904 8.35244 17.9002 11.3053C17.8956 14.8126 19.3587 16.8031 20.6495 18.5593C21.4884 19.7006 22.2861 20.7886 22.6795 22.2499ZM31.1142 28.9645C31.1142 29.6122 30.5874 30.1391 29.9397 30.1391H25.9595C25.3133 30.1391 24.7876 29.6122 24.7876 28.9645V27.7901H31.1142V28.9645ZM23.9529 23.7536H31.9489C32.567 23.7536 33.0699 24.2565 33.0699 24.8746C33.0699 25.4914 32.5671 25.9932 31.9489 25.9932H23.9529C23.3348 25.9932 22.8318 25.4914 22.8318 24.8746C22.8318 24.2565 23.3348 23.7536 23.9529 23.7536Z" fill="black"/>
<path d="M28.8494 7.56282C28.8494 7.06664 28.4472 6.66442 27.951 6.66442C27.4548 6.66442 27.0526 7.06664 27.0526 7.56282V13.1348C27.0526 13.631 27.4548 14.0332 27.951 14.0332C28.4472 14.0332 28.8494 13.631 28.8494 13.1348V7.56282Z" fill="black"/>
<path d="M27.9511 16.3007C27.4549 16.3007 27.0526 16.703 27.0526 17.1992V17.2043C27.0526 17.7005 27.4549 18.1002 27.9511 18.1002C28.4473 18.1002 28.8495 17.6955 28.8495 17.1993C28.8495 16.7031 28.4473 16.3007 27.9511 16.3007Z" fill="black"/>
<path d="M45.9192 11.2993H42.2701C41.7739 11.2993 41.3717 11.7015 41.3717 12.1977C41.3717 12.6939 41.7739 13.0961 42.2701 13.0961H45.9192C46.4154 13.0961 46.8176 12.6939 46.8176 12.1977C46.8176 11.7015 46.4154 11.2993 45.9192 11.2993Z" fill="black"/>
<path d="M40.7609 5.51263C40.933 5.51263 41.107 5.46322 41.2607 5.36008L44.2885 3.3279C44.7005 3.05137 44.8102 2.49328 44.5337 2.08128C44.2573 1.66936 43.6992 1.55949 43.2871 1.83601L40.2593 3.8682C39.8473 4.14472 39.7375 4.7029 40.014 5.11482C40.1875 5.37311 40.4715 5.51263 40.7609 5.51263Z" fill="black"/>
<path d="M44.2883 21.068L41.2605 19.0358C40.8485 18.7593 40.2903 18.8692 40.0139 19.2811C39.7374 19.693 39.8472 20.2512 40.2591 20.5277L43.2869 22.5599C43.4406 22.663 43.6146 22.7124 43.7867 22.7124C44.0761 22.7124 44.3602 22.5729 44.5336 22.3146C44.8101 21.9026 44.7003 21.3444 44.2883 21.068Z" fill="black"/>
<path d="M9.98286 13.0961H13.6295C14.1256 13.0961 14.5279 12.6939 14.5279 12.1977C14.5279 11.7015 14.1256 11.2993 13.6295 11.2993H9.98286C9.48667 11.2993 9.08446 11.7015 9.08446 12.1977C9.08446 12.6939 9.48667 13.0961 9.98286 13.0961Z" fill="black"/>
<path d="M11.6135 3.32817L14.6413 5.36035C14.7949 5.46348 14.969 5.5129 15.1411 5.5129C15.4305 5.5129 15.7145 5.37337 15.8879 5.11508C16.1645 4.70317 16.0546 4.14499 15.6427 3.86846L12.6149 1.83628C12.2029 1.55975 11.6448 1.66963 11.3683 2.08154C11.0917 2.49346 11.2015 3.05164 11.6135 3.32817Z" fill="black"/>
<path d="M14.6416 19.0358L11.6138 21.068C11.2018 21.3445 11.092 21.9027 11.3685 22.3146C11.5419 22.5729 11.8259 22.7124 12.1154 22.7124C12.2875 22.7124 12.4615 22.663 12.6151 22.5599L15.6429 20.5277C16.0549 20.2512 16.1647 19.693 15.8882 19.2811C15.6117 18.8692 15.0535 18.7593 14.6416 19.0358Z" fill="black"/>
<path d="M35.3194 7.22031C35.4946 7.39542 35.7236 7.48284 35.9528 7.48284C36.1828 7.48284 36.413 7.39479 36.5887 7.21905C36.9395 6.86821 36.9383 6.29806 36.5874 5.94713C36.2366 5.59628 35.6677 5.59628 35.3168 5.94713C34.9659 6.29797 34.9659 6.86686 35.3168 7.2178L35.3194 7.22031Z" fill="black"/>
</svg>
