<svg xmlns="http://www.w3.org/2000/svg" width="48" height="48" fill="none" viewBox="0 0 48 48">
    <path fill="#000" stroke="#000" stroke-width=".3" d="M20.177 4.076c-8.888 0-16.094 7.205-16.094 16.094 0 8.888 7.206 16.093 16.094 16.093 8.888 0 16.094-7.205 16.094-16.093-.01-8.885-7.21-16.085-16.094-16.094zm0 1.532c4.734.004 9.17 2.311 11.891 6.185l-1.916 1.916c-.466-.282-1-.433-1.545-.437-1.693 0-3.066 1.373-3.066 3.066.003.545.153 1.08.435 1.547l-5.018 5.018c-.95-.58-2.145-.58-3.095 0l-3.485-3.485c.281-.467.432-1.002.434-1.547.002-1.69-1.366-3.062-3.055-3.064-1.398-.002-2.619.944-2.967 2.297H5.947c1.45-6.7 7.374-11.485 14.23-11.496zm9.963 10.73c0 .846-.686 1.532-1.533 1.532-.847 0-1.533-.686-1.533-1.532 0-.847.686-1.533 1.533-1.533.847 0 1.533.686 1.533 1.533zm-9.197 9.196c0 .847-.686 1.533-1.533 1.533-.846 0-1.532-.686-1.532-1.533 0-.846.686-1.532 1.532-1.532.847 0 1.533.686 1.533 1.532zm-7.664-7.663c0 .846-.686 1.532-1.532 1.532-.847 0-1.533-.686-1.533-1.532 0-.847.686-1.533 1.533-1.533.846 0 1.533.686 1.533 1.532zM27.253 32.9c-2.164 1.202-4.6 1.832-7.075 1.83-8.037.005-14.556-6.505-14.561-14.542 0-.518.027-1.037.082-1.552H8.79c.349 1.349 1.563 2.294 2.957 2.299.545-.003 1.08-.153 1.547-.435l3.485 3.486c-.281.467-.431 1.002-.434 1.547 0 1.693 1.373 3.066 3.066 3.066 1.692 0 3.065-1.373 3.065-3.066-.003-.545-.153-1.08-.434-1.547l5.018-5.018c.467.281 1.001.431 1.547.434 1.693 0 3.066-1.372 3.066-3.065-.003-.546-.153-1.08-.435-1.548l1.67-1.67c3.901 7.025 1.368 15.881-5.656 19.782z"/>
    <path fill="#000" stroke="#000" stroke-width=".3" d="M39.336 8.674c1.394-.005 2.608-.95 2.957-2.3H47V4.843h-4.707c-.349-1.35-1.563-2.294-2.957-2.299-1.693 0-3.065 1.372-3.065 3.065.002.546.153 1.08.434 1.548L35.36 8.502C28.916.108 16.889-1.473 8.495 4.97.1 11.412-1.481 23.44 4.962 31.834c6.082 7.923 17.23 9.845 25.613 4.416l2.313 2.313 1.084 1.083 6.169 6.17c1.569 1.569 4.113 1.569 5.682 0 1.569-1.57 1.569-4.113 0-5.682l-6.17-6.17-1.083-1.083-2.313-2.313c4.106-6.324 4.106-14.472 0-20.797L37.79 8.24c.467.281 1.001.432 1.546.435zm0-4.598c.847 0 1.533.686 1.533 1.532 0 .847-.686 1.533-1.533 1.533-.846 0-1.532-.686-1.532-1.533 0-.846.686-1.532 1.532-1.532zm5.403 37.141c.982.96 1 2.533.04 3.515-.96.981-2.533 1-3.514.04l-.04-.04-6.17-6.17 3.515-3.514 6.17 6.17zm-7.253-7.253l-3.514 3.515-2.122-2.121c.108-.083.21-.174.316-.26.107-.084.23-.186.344-.282.168-.141.334-.284.496-.43.084-.077.163-.153.245-.23.315-.294.619-.599.913-.913l.23-.245c.146-.162.289-.328.43-.496.096-.113.19-.228.283-.344.084-.106.175-.207.258-.315l2.121 2.121zm-2.972-3.56c-.241.338-.49.668-.753.986-.077.093-.159.183-.238.274-.234.272-.476.537-.726.794-.109.112-.22.223-.332.331-.256.25-.52.492-.794.727-.091.077-.18.16-.274.238-.318.263-.648.512-.985.753-7.934 5.668-18.96 3.831-24.628-4.102-5.667-7.934-3.83-18.96 4.103-24.628C17.82.11 28.847 1.946 34.514 9.88c4.386 6.14 4.386 14.387 0 20.526z"/>
</svg>
