<svg xmlns="http://www.w3.org/2000/svg" width="48" height="48" fill="none" viewBox="0 0 48 48">
    <g clip-path="url(#clip0)">
        <path fill="#000" d="M38.4 19.2c5.294 0 9.6-4.306 9.6-9.6S43.694 0 38.4 0c-3.844 0-7.159 2.276-8.69 5.547l-2.57-.949c.03-.196.06-.393.06-.598 0-2.205-1.794-4-4-4s-4 1.795-4 4 1.794 4 4 4c1.433 0 2.682-.764 3.389-1.9l2.566.948c-.225.814-.355 1.667-.355 2.552 0 1.048.174 2.054.486 3l-8.798 3.728C18.877 13.282 15.679 11.2 12 11.2c-1.192 0-2.33.229-3.384.627l-2.213-4.65C7.367 6.446 8 5.3 8 4c0-2.205-1.795-4-4-4S0 1.795 0 4s1.795 4 4 4c.333 0 .652-.053.962-.13l2.21 4.645C4.323 14.182 2.4 17.267 2.4 20.8c0 3.318 1.693 6.247 4.26 7.972l-1.464 2.63c-.38-.12-.777-.202-1.196-.202-2.205 0-4 1.795-4 4 0 2.206 1.795 4 4 4s4-1.794 4-4c0-1.211-.553-2.286-1.405-3.02l1.466-2.635c1.203.544 2.534.855 3.939.855 2.195 0 4.215-.749 5.834-1.994l3.148 3.464c-1.596 1.716-2.582 4.007-2.582 6.53 0 .49.049.966.12 1.436l-3.705.88c-.638-1.364-2.013-2.316-3.615-2.316-2.205 0-4 1.794-4 4s1.795 4 4 4c2.206 0 4-1.794 4-4 0-.044-.012-.085-.013-.13l3.698-.876C20.145 45.224 23.752 48 28 48c5.294 0 9.6-4.306 9.6-9.6 0-1.641-.415-3.187-1.145-4.54l4.7-3.055C41.88 31.541 42.886 32 44 32c2.206 0 4-1.794 4-4s-1.794-4-4-4-4 1.794-4 4c0 .517.106 1.008.285 1.462l-4.71 3.062c-.942-1.212-2.166-2.19-3.575-2.84l3.905-10.825c.797.215 1.63.341 2.495.341zM23.2 6.4c-1.323 0-2.4-1.077-2.4-2.4s1.077-2.4 2.4-2.4 2.4 1.077 2.4 2.4-1.077 2.4-2.4 2.4zM1.6 4c0-1.323 1.077-2.4 2.4-2.4S6.4 2.677 6.4 4 5.323 6.4 4 6.4 1.6 5.323 1.6 4zM4 37.6c-1.323 0-2.4-1.077-2.4-2.4s1.077-2.4 2.4-2.4 2.4 1.077 2.4 2.4-1.077 2.4-2.4 2.4zm7.2 7.2c-1.323 0-2.4-1.077-2.4-2.4S9.877 40 11.2 40s2.4 1.077 2.4 2.4-1.077 2.4-2.4 2.4zM44 25.6c1.323 0 2.4 1.077 2.4 2.4s-1.077 2.4-2.4 2.4-2.4-1.077-2.4-2.4 1.077-2.4 2.4-2.4zm-10.311-9.549c.357-1.85 1.988-3.251 3.911-3.251h1.6c1.923 0 3.554 1.4 3.911 3.251-1.323.969-2.948 1.549-4.711 1.549-1.762 0-3.388-.58-4.711-1.549zM38.4 11.2c-1.323 0-2.4-1.077-2.4-2.4s1.077-2.4 2.4-2.4 2.4 1.077 2.4 2.4-1.077 2.4-2.4 2.4zm0-9.6c4.411 0 8 3.589 8 8 0 2-.743 3.827-1.962 5.231-.56-1.476-1.729-2.654-3.185-3.236.708-.722 1.147-1.707 1.147-2.795 0-2.205-1.794-4-4-4s-4 1.795-4 4c0 1.088.44 2.073 1.147 2.795-1.456.582-2.625 1.76-3.185 3.236C31.143 13.427 30.4 11.6 30.4 9.6c0-4.411 3.589-8 8-8zM4 20.8c0-4.411 3.589-8 8-8s8 3.589 8 8c0 2.006-.748 3.838-1.973 5.244-.558-1.482-1.73-2.666-3.19-3.249.708-.722 1.147-1.707 1.147-2.795 0-2.206-1.794-4-4-4-2.205 0-4 1.794-4 4 0 1.088.439 2.073 1.147 2.795-1.452.58-2.619 1.753-3.181 3.223C4.738 24.616 4 22.794 4 20.8zm5.584-.8c0-1.323 1.077-2.4 2.4-2.4s2.4 1.077 2.4 2.4-1.077 2.4-2.4 2.4-2.4-1.077-2.4-2.4zm-2.309 7.24c.36-1.845 1.99-3.24 3.909-3.24h1.6c1.926 0 3.56 1.405 3.913 3.262-1.32.963-2.941 1.538-4.697 1.538-1.769 0-3.4-.584-4.725-1.56zm16 17.6c.36-1.845 1.99-3.24 3.909-3.24h1.6c1.927 0 3.56 1.405 3.913 3.262-1.32.963-2.941 1.538-4.697 1.538-1.769 0-3.4-.584-4.725-1.56zM27.984 40c-1.323 0-2.4-1.077-2.4-2.4s1.077-2.4 2.4-2.4 2.4 1.077 2.4 2.4-1.077 2.4-2.4 2.4zM36 38.4c0 2.006-.748 3.838-1.973 5.244-.558-1.481-1.73-2.666-3.19-3.249.708-.722 1.147-1.707 1.147-2.795 0-2.206-1.795-4-4-4-2.206 0-4 1.794-4 4 0 1.088.439 2.073 1.147 2.795-1.452.58-2.619 1.753-3.181 3.223C20.738 42.216 20 40.394 20 38.4c0-4.411 3.589-8 8-8s8 3.589 8 8zm-5.505-9.26c-.797-.214-1.63-.34-2.495-.34-2.195 0-4.215.749-5.834 1.994l-3.148-3.464c1.596-1.715 2.582-4.007 2.582-6.53 0-1.048-.174-2.054-.486-3l8.798-3.728c.986 1.863 2.567 3.358 4.489 4.244l-3.906 10.825z"/>
    </g>
    <defs>
        <clipPath id="clip0">
            <path fill="#fff" d="M0 0H48V48H0z"/>
        </clipPath>
    </defs>
</svg>
