<svg width="48" height="48" viewBox="0 0 48 48" fill="none" xmlns="http://www.w3.org/2000/svg">
<g clip-path="url(#clip0)">
<path d="M47.7582 18.4646L38.8918 10.7735C38.6843 10.5936 38.3911 10.5514 38.1413 10.6652C37.8914 10.7793 37.7312 11.0285 37.7312 11.3031V15.3076L34.185 15.3088L34.169 15.3084C31.7632 15.2551 29.4459 15.8294 27.4051 16.9561V10.2244H31.7943C32.0706 10.2244 32.321 10.0622 32.434 9.81013C32.5471 9.55804 32.5016 9.2631 32.3178 9.05685L24.5242 0.307354C24.3911 0.157916 24.2006 0.0725098 24.0005 0.0725098C23.8003 0.0725098 23.61 0.157916 23.4768 0.307354L15.6832 9.05704C15.4994 9.26329 15.4539 9.55823 15.5669 9.81032C15.68 10.0624 15.9305 10.2246 16.2067 10.2246H20.5958V13.3118C20.5958 13.6991 20.9098 14.0129 21.297 14.0129C21.6842 14.0129 21.9982 13.699 21.9982 13.3118V9.52345C21.9982 9.13617 21.6842 8.82229 21.297 8.82229H17.7701L24.0002 1.82798L30.2302 8.82229H26.7036C26.3163 8.82229 26.0024 9.13626 26.0024 9.52345V17.8503C25.5102 18.2094 25.0389 18.6037 24.5933 19.0335C23.5197 20.0687 22.6497 21.2401 21.9984 22.5149V16.1165C21.9984 15.7292 21.6845 15.4154 21.2973 15.4154C20.91 15.4154 20.5961 15.7293 20.5961 16.1165V25.9601C18.556 24.8327 16.24 24.2581 13.8332 24.3122L13.8162 24.3126L10.2686 24.3115V20.3069C10.2686 20.0324 10.1084 19.783 9.85856 19.6691C9.60862 19.5551 9.31537 19.5974 9.108 19.7774L0.241781 27.4683C0.088125 27.6014 0 27.7947 0 27.9979C0 28.2012 0.088125 28.3944 0.241781 28.5275L2.97263 30.8963C3.26522 31.1502 3.708 31.1186 3.96178 30.8261C4.21547 30.5336 4.18406 30.0907 3.89156 29.8369L1.77131 27.9977L8.8665 21.8431V25.0122C8.8665 25.3994 9.18028 25.7132 9.56747 25.7133L13.8244 25.7147C13.8289 25.7147 13.8333 25.7147 13.8378 25.7146L13.8619 25.7141C17.0868 25.6438 20.1311 26.8266 22.4332 29.0466C24.7103 31.2424 25.9745 34.1734 26.0015 37.3096V38.9716C26.0015 39.3589 26.3154 39.6728 26.7026 39.6728C26.7023 39.6728 26.7028 39.6728 26.7026 39.6728C26.7028 39.6728 26.7038 39.6728 26.7039 39.6728C27.0912 39.6728 27.4051 39.3588 27.4051 38.9716V37.412C27.4051 37.3778 27.4041 37.3438 27.4038 37.3095V28.4084C27.4038 26.6819 28.0934 25.0663 29.3455 23.8587C30.5972 22.6516 32.2504 22.0059 34.0047 22.0441C34.0097 22.0442 34.0147 22.045 34.0197 22.0442L37.7312 22.0428V26.6851C37.7312 26.9597 37.8914 27.209 38.1413 27.323C38.3911 27.437 38.6843 27.3946 38.8918 27.2147L47.7582 19.5237C47.9118 19.3905 48 19.1972 48 18.9941C48 18.7909 47.9119 18.5977 47.7582 18.4646ZM39.1336 25.1489V21.3416C39.1336 21.1556 39.0596 20.9773 38.9281 20.8457C38.7967 20.7143 38.6183 20.6404 38.4324 20.6404C38.4325 20.6404 38.4323 20.6404 38.4324 20.6404L34.0267 20.6421C31.9029 20.6012 29.8928 21.3831 28.372 22.8494C26.8433 24.3237 26.0014 26.2979 26.0014 28.4085V31.5302C25.3487 30.2498 24.478 29.0706 23.4066 28.0373C22.9891 27.6347 22.5496 27.2632 22.0913 26.9225C22.4244 24.292 23.6218 21.9187 25.5669 20.0429C27.869 17.8229 30.9122 16.6374 34.1457 16.7107C34.1469 16.7107 34.1569 16.711 34.158 16.711C34.1639 16.7112 34.1704 16.7117 34.1758 16.7113L38.4327 16.7099C38.8199 16.7098 39.1337 16.3958 39.1337 16.0087V12.8397L46.2288 18.9943L39.1336 25.1489Z" fill="black"/>
<path d="M26.7038 41.0752C26.3165 41.0752 26.0027 41.3892 26.0027 41.7764V46.525H21.9985V37.412C21.9985 35.3013 21.1566 33.3272 19.6278 31.8529C18.1073 30.3867 16.0971 29.6025 13.9733 29.6456L9.56773 29.6439C9.56782 29.6439 9.56764 29.6439 9.56773 29.6439C9.38192 29.6439 9.20323 29.7178 9.07179 29.8492C8.94026 29.9807 8.86629 30.1591 8.86629 30.3451V34.1524L6.01067 31.6754C5.71817 31.4217 5.2752 31.4532 5.02151 31.7456C4.76783 32.0381 4.79923 32.481 5.09173 32.7347L9.10789 36.2186C9.31526 36.3985 9.6086 36.4408 9.85845 36.3269C10.1083 36.2128 10.2685 35.9636 10.2685 35.689V31.0467L13.9799 31.0481C13.9855 31.0487 13.9899 31.0481 13.9949 31.048C15.7481 31.0114 17.4025 31.6556 18.6542 32.8626C19.9063 34.0699 20.5959 35.6858 20.5959 37.4122V47.2263C20.5959 47.6136 20.9099 47.9275 21.2971 47.9275H26.7035C27.0908 47.9275 27.4047 47.6135 27.4047 47.2263V41.7764C27.405 41.3891 27.0911 41.0752 26.7038 41.0752Z" fill="black"/>
<path d="M26.7026 39.6728C26.3154 39.6728 26.0015 39.3589 26.0015 38.9716V37.3096C25.9745 34.1734 24.7103 31.2424 22.4332 29.0466C20.1311 26.8266 17.0868 25.6438 13.8619 25.7141L13.8378 25.7146C13.8333 25.7147 13.8289 25.7147 13.8244 25.7147L9.56747 25.7133C9.18028 25.7132 8.8665 25.3994 8.8665 25.0122V21.8431L1.77131 27.9977L3.89156 29.8369C4.18406 30.0907 4.21547 30.5336 3.96178 30.8261C3.708 31.1186 3.26522 31.1502 2.97263 30.8963L0.241781 28.5275C0.088125 28.3944 0 28.2012 0 27.9979C0 27.7947 0.088125 27.6014 0.241781 27.4683L9.108 19.7774C9.31537 19.5974 9.60862 19.5551 9.85856 19.6691C10.1084 19.783 10.2686 20.0324 10.2686 20.3069V24.3115L13.8162 24.3126L13.8332 24.3122C16.24 24.2581 18.556 24.8327 20.5961 25.9601V16.1165C20.5961 15.7293 20.91 15.4154 21.2973 15.4154C21.6845 15.4154 21.9984 15.7292 21.9984 16.1165V22.5149C22.6497 21.2401 23.5197 20.0687 24.5933 19.0335C25.0389 18.6037 25.5102 18.2094 26.0024 17.8503V9.52345C26.0024 9.13626 26.3163 8.82229 26.7036 8.82229H30.2302L24.0002 1.82798L17.7701 8.82229H21.297C21.6842 8.82229 21.9982 9.13617 21.9982 9.52345V13.3118C21.9982 13.699 21.6842 14.0129 21.297 14.0129C20.9098 14.0129 20.5958 13.6991 20.5958 13.3118V10.2246H16.2067C15.9305 10.2246 15.68 10.0624 15.5669 9.81032C15.4539 9.55823 15.4994 9.26329 15.6832 9.05704L23.4768 0.307354C23.61 0.157916 23.8003 0.0725098 24.0005 0.0725098C24.2006 0.0725098 24.3911 0.157916 24.5242 0.307354L32.3178 9.05685C32.5016 9.2631 32.5471 9.55804 32.434 9.81013C32.321 10.0622 32.0706 10.2244 31.7943 10.2244H27.4051V16.9561C29.4459 15.8294 31.7632 15.2551 34.169 15.3084L34.185 15.3088L37.7312 15.3076V11.3031C37.7312 11.0285 37.8914 10.7793 38.1413 10.6652C38.3911 10.5514 38.6843 10.5936 38.8918 10.7735L47.7582 18.4646C47.9119 18.5977 48 18.7909 48 18.9941C48 19.1972 47.9118 19.3905 47.7582 19.5237L38.8918 27.2147C38.6843 27.3946 38.3911 27.437 38.1413 27.323C37.8914 27.209 37.7312 26.9597 37.7312 26.6851V22.0428L34.0197 22.0442C34.0147 22.045 34.0097 22.0442 34.0047 22.0441C32.2504 22.0059 30.5972 22.6516 29.3455 23.8587C28.0934 25.0663 27.4038 26.6819 27.4038 28.4084V37.3095C27.4041 37.3438 27.4051 37.3778 27.4051 37.412V38.9716C27.4051 39.3588 27.0912 39.6728 26.7039 39.6728C26.7038 39.6728 26.7028 39.6728 26.7026 39.6728ZM26.7026 39.6728C26.7028 39.6728 26.7023 39.6728 26.7026 39.6728ZM38.4324 20.6404C38.6183 20.6404 38.7967 20.7143 38.9281 20.8457C39.0596 20.9773 39.1336 21.1556 39.1336 21.3416V25.1489L46.2288 18.9943L39.1337 12.8397V16.0087C39.1337 16.3958 38.8199 16.7098 38.4327 16.7099L34.1758 16.7113C34.1704 16.7117 34.1639 16.7112 34.158 16.711C34.1569 16.711 34.1469 16.7107 34.1457 16.7107C30.9122 16.6374 27.869 17.8229 25.5669 20.0429C23.6218 21.9187 22.4244 24.292 22.0913 26.9225C22.5496 27.2632 22.9891 27.6347 23.4066 28.0373C24.478 29.0706 25.3487 30.2498 26.0014 31.5302V28.4085C26.0014 26.2979 26.8433 24.3237 28.372 22.8494C29.8928 21.3831 31.9029 20.6012 34.0267 20.6421L38.4324 20.6404ZM38.4324 20.6404C38.4323 20.6404 38.4325 20.6404 38.4324 20.6404ZM9.56773 29.6439L13.9733 29.6456C16.0971 29.6025 18.1073 30.3867 19.6278 31.8529C21.1566 33.3272 21.9985 35.3013 21.9985 37.412V46.525H26.0027V41.7764C26.0027 41.3892 26.3165 41.0752 26.7038 41.0752C27.0911 41.0752 27.405 41.3891 27.4047 41.7764V47.2263C27.4047 47.6135 27.0908 47.9275 26.7035 47.9275H21.2971C20.9099 47.9275 20.5959 47.6136 20.5959 47.2263V37.4122C20.5959 35.6858 19.9063 34.0699 18.6542 32.8626C17.4025 31.6556 15.7481 31.0114 13.9949 31.048C13.9899 31.0481 13.9855 31.0487 13.9799 31.0481L10.2685 31.0467V35.689C10.2685 35.9636 10.1083 36.2128 9.85845 36.3269C9.6086 36.4408 9.31526 36.3985 9.10789 36.2186L5.09173 32.7347C4.79923 32.481 4.76783 32.0381 5.02151 31.7456C5.2752 31.4532 5.71817 31.4217 6.01067 31.6754L8.86629 34.1524V30.3451C8.86629 30.1591 8.94026 29.9807 9.07179 29.8492C9.20323 29.7178 9.38192 29.6439 9.56773 29.6439ZM9.56773 29.6439C9.56764 29.6439 9.56782 29.6439 9.56773 29.6439Z" stroke="black" stroke-width="0.3"/>
</g>
<defs>
<clipPath id="clip0">
<rect width="48" height="48" fill="white"/>
</clipPath>
</defs>
</svg>
