<svg xmlns="http://www.w3.org/2000/svg" width="48" height="48" fill="none" viewBox="0 0 48 48">
    <path fill="#000" d="M43.553 25.07c-.14-.732-.781-1.261-1.527-1.262h-1.501l-.11-.662c-.11-.664-.634-1.184-1.3-1.288-.148-.024-.297-.04-.444-.06.255-1.188.043-2.43-.591-3.467.335-.869.272-1.841-.171-2.66-.444-.82-1.224-1.403-2.135-1.597-.582-3.117-3.294-5.382-6.465-5.401-.077 0-.147.01-.22.012-.507-.796-1.342-1.324-2.278-1.44-.936-.117-1.876.19-2.562.838-.864-.562-1.873-.861-2.904-.862-1.66.006-3.226.777-4.244 2.09-1.13-.33-2.35-.127-3.312.55-.963.677-1.566 1.756-1.639 2.93-1.187.5-1.96 1.662-1.96 2.95.002.223.028.445.078.663-1.05 1.583-1.325 3.557-.746 5.366-.209.029-.422.054-.622.084-.67.1-1.198.62-1.31 1.288l-.11.664H5.974c-.744 0-1.384.528-1.526 1.259L1.043 42.548c-.133.685.047 1.393.492 1.93.444.539 1.105.85 1.803.848h16.217c.644 1.062 2.6 1.555 4.445 1.555 1.826 0 3.763-.481 4.426-1.555h16.237c.697.001 1.358-.31 1.803-.847.444-.537.624-1.245.492-1.93L43.553 25.07zm-31.011-7.922c-.632-.38-.933-1.133-.738-1.843.196-.71.84-1.204 1.577-1.207.516-.001 1.001.244 1.306.66.166.223.438.34.714.309.276-.032.514-.209.624-.464.11-.255.077-.55-.089-.772-.528-.706-1.328-1.157-2.205-1.245.231-1.089 1.192-1.868 2.305-1.871.095.005.19.015.283.03-.062.16-.117.323-.163.488-.097.411.153.825.563.93.41.106.828-.135.943-.542.088-.341.224-.67.403-.973.69-1.156 1.934-1.866 3.28-1.872.733.003 1.449.22 2.06.622-.116.328-.178.672-.182 1.02 0 .43.348.777.777.777.43 0 .778-.348.778-.777 0-.904.732-1.636 1.636-1.636.903 0 1.636.732 1.636 1.636 0 .43.348.777.777.777.43 0 .778-.348.778-.777 0-.06-.015-.117-.018-.177 2.227.138 4.1 1.72 4.605 3.893-.362.106-.703.276-1.006.502-.222.166-.339.439-.306.715.034.276.212.513.467.622.256.11.55.074.772-.093.622-.46 1.48-.424 2.06.088.58.511.724 1.358.345 2.033-.17.297-.427.535-.737.68-.325.158-.499.518-.42.87.08.353.39.605.752.608.114 0 .226-.025.33-.073.205-.1.4-.222.58-.364.402 1.143.15 2.414-.658 3.317l-.018.02c-1.014 1.097-2.63 1.394-3.966.727-.131-.069-.257-.147-.377-.235.573-.802.652-1.857.206-2.737-.126-.248-.373-.41-.651-.427-.277-.015-.542.118-.695.35-.152.233-.17.529-.044.777.255.514.096 1.138-.375 1.466-.277.184-.618.242-.94.16-.322-.082-.595-.297-.75-.59-.123-.25-.37-.413-.648-.43-.278-.016-.543.117-.696.349-.153.232-.17.528-.046.776.456.92 1.395 1.502 2.423 1.5.334-.003.665-.068.976-.193.278.244.584.452.911.622 1.109.575 2.397.694 3.592.332-.768 1.05-1.918 1.755-3.202 1.964-.4.065-.682.426-.65.829.031.403.367.715.772.716.041 0 .083-.003.124-.009.473-.082.936-.217 1.38-.403.239.424.433.871.58 1.335.026.082.04.166.04.252 0 .336-.201.64-.51.771-.358.138-.764.03-1.004-.27-.603-.707-1.391-1.231-2.277-1.512-1.68-.563-2.329-1.066-2.604-1.614.404-.05.802-.134 1.192-.249.266-.081.468-.299.53-.57.062-.27-.025-.554-.229-.743-.203-.19-.492-.255-.758-.174-.436.134-.887.217-1.342.247-.878.068-1.76-.065-2.578-.389-.307-.12-.656-.033-.871.217-1.133 1.3-3.07 1.522-4.466.51-1.396-1.013-1.789-2.923-.905-4.404.143-.239.148-.536.013-.78-.136-.243-.39-.396-.67-.4-.278-.005-.538.14-.681.378-.186.316-.335.652-.445 1.001-.612-.032-1.095-.533-1.105-1.146v-.02c0-.205-.083-.401-.229-.545-.146-.145-.343-.224-.549-.222-.431.004-.778.356-.777.787.003 1.38 1.043 2.535 2.414 2.684.003.26.027.52.071.777-1.736.376-3.537-.248-4.669-1.618-1.131-1.37-1.404-3.256-.708-4.89.174.176.369.33.579.461.367.215.84.095 1.06-.27.219-.364.104-.838-.258-1.062v.003zM9.12 23.395c.358-.053.728-.1 1.096-.148 1.438 2.298 4.188 3.414 6.82 2.767.708 1.343 2 2.279 3.496 2.532 1.496.254 3.025-.204 4.135-1.238.528.157 1.073.256 1.623.294.375 1.424 1.461 2.287 3.742 3.052.615.193 1.163.554 1.583 1.043.467.555 1.154.877 1.879.882.317 0 .631-.064.923-.188.882-.377 1.453-1.243 1.453-2.201.001-.25-.039-.499-.118-.736-.175-.55-.405-1.08-.687-1.583 1.322-.95 2.243-2.359 2.584-3.952.166-.196.315-.406.448-.627.26.034.521.063.783.107l2.807 16.886c-5.487-1.832-11.421-1.832-16.909 0V30.55c0-.43-.348-.777-.778-.777-.43 0-.777.348-.777.777v9.738c-5.487-1.834-11.421-1.836-16.91-.006L9.12 23.395zm-6.388 20.09c-.147-.178-.207-.412-.163-.638l3.405-17.484h1.244L4.778 40.03c-.086.534.11 1.074.52 1.428.408.354.971.471 1.487.31 4.146-1.344 8.563-1.624 12.845-.815l-.232 2.819H3.338c-.235 0-.457-.105-.606-.287zM24 45.324c-1.873 0-2.948-.553-3.106-.8l.268-3.227c.855.213 1.692.494 2.502.84.105.05.22.077.336.077.117 0 .232-.027.337-.078.81-.347 1.647-.63 2.502-.844l.267 3.232c-.158.247-1.232.8-3.106.8zm21.269-1.84c-.15.18-.372.286-.606.286H28.605l-.233-2.825c4.284-.806 8.703-.524 12.85.822.515.16 1.077.04 1.484-.314.407-.354.602-.894.516-1.427l-2.438-14.663h1.244l3.406 17.482c.043.227-.017.461-.165.638z"/>
    <path fill="#000" d="M21.423 18.64c-.318.289-.343.78-.055 1.099.66.728 1.531 1.23 2.492 1.437-.435.613-1.14.977-1.893.976-.43 0-.777.348-.777.777 0 .43.348.778.777.778 1.61.006 3.055-.988 3.623-2.494 1.934-.32 3.465-1.809 3.84-3.733.058-.275-.037-.56-.25-.745-.21-.185-.506-.242-.77-.148-.266.094-.46.324-.508.601-.152.802-.615 1.512-1.287 1.975-1.294.87-3.03.673-4.094-.467-.288-.319-.78-.343-1.098-.055zM18.712 17.797c.43 0 .778-.348.778-.777 0-.537.213-1.051.592-1.43.38-.38.894-.592 1.43-.592.43 0 .778-.348.778-.778 0-.43-.349-.778-.778-.778-1.975.002-3.575 1.603-3.577 3.578 0 .206.082.404.228.55.145.145.343.227.55.227zM24.778 2.555v-.778c0-.43-.348-.777-.778-.777-.43 0-.777.348-.777.777v.778c0 .43.348.778.777.778.43 0 .778-.349.778-.778zM36.762 6.58l-.778.778c-.202.195-.283.484-.212.756.071.272.283.484.555.555.272.072.561-.01.757-.212l.777-.777c.202-.196.283-.485.212-.757-.07-.271-.283-.484-.555-.555-.272-.071-.561.01-.756.212zM11.467 8.685c.314 0 .598-.19.718-.48s.054-.625-.168-.847l-.778-.778c-.195-.202-.484-.283-.756-.212-.272.071-.484.284-.556.555-.07.272.01.561.213.757l.777.777c.146.146.344.228.55.228zM17.453 5.413c.102 0 .204-.02.298-.059.19-.079.342-.23.421-.42.079-.191.079-.406 0-.596l-.894-2.156c-.102-.262-.338-.45-.617-.488-.28-.038-.558.077-.728.302-.17.225-.204.524-.091.782l.893 2.155c.12.291.404.48.718.48zM31.738 1.76c-.397-.163-.851.025-1.016.421l-.893 2.156c-.08.19-.08.405 0 .596.078.19.23.342.42.421.095.04.196.06.298.06.315 0 .598-.19.719-.48l.893-2.156c.08-.19.08-.405 0-.596-.079-.19-.23-.342-.42-.421zM39.806 14.672c.102 0 .204-.02.298-.06l2.155-.892c.257-.106.437-.342.474-.617.036-.275-.077-.55-.298-.719-.22-.169-.514-.207-.77-.101l-2.157.893c-.344.14-.54.506-.467.87.073.365.393.628.765.627zM7.897 14.612c.396.165.851-.024 1.016-.42.164-.397-.024-.852-.42-1.017l-2.156-.893c-.397-.164-.852.025-1.016.422-.165.396.024.851.42 1.016l2.156.892z"/>
</svg>
