<svg xmlns="http://www.w3.org/2000/svg" width="48" height="48" fill="none" viewBox="0 0 48 48">
    <path fill="#000" stroke="#000" stroke-width=".3" d="M42.234 42.022h-.753c.05-.168.077-.346.077-.53V40.27c0-1.035-.842-1.877-1.877-1.877h-1.264l-1.155-13.537h1.807c.872 0 1.581-.709 1.581-1.58v-1.09c0-.872-.709-1.581-1.58-1.581h-.02c.095-.241.148-.504.148-.779 0-1.172-.953-2.126-2.126-2.126h-.863c1.055-.954 1.719-2.333 1.719-3.864 0-2.874-2.338-5.211-5.212-5.211-2.874 0-5.212 2.337-5.212 5.211 0 1.531.664 2.91 1.719 3.864h-.863c-1.172 0-2.126.954-2.126 2.126 0 .275.053.538.148.779h-.02c-.871 0-1.58.71-1.58 1.581v1.09c0 .871.709 1.58 1.58 1.58h1.809l-1.156 13.537h-1.264c-.457 0-.877.165-1.203.438-.326-.273-.745-.438-1.203-.438h-.429l-1.796-5.388c-.41-1.23-.617-2.51-.617-3.805V21.84c.842-.283 1.452-1.079 1.452-2.016 0-.274-.053-.537-.148-.778h.018c.872 0 1.582-.71 1.582-1.582v-1.089c0-.872-.71-1.581-1.582-1.581h-.018c.095-.241.148-.504.148-.778 0-.938-.61-1.734-1.454-2.017l1.243-2.485c.138-.276.21-.585.21-.893 0-1.1-.894-1.995-1.995-1.995h-1.736c.46-.591.736-1.334.736-2.14C18.96 2.564 17.395 1 15.472 1s-3.487 1.564-3.487 3.487c0 .806.276 1.549.737 2.14h-1.736c-1.1 0-1.996.895-1.996 1.995 0 .308.073.617.21.893L10.445 12c-.844.283-1.454 1.08-1.454 2.017 0 .274.053.537.148.778H9.12c-.872 0-1.581.71-1.581 1.581v1.09c0 .871.71 1.58 1.581 1.58h.02c-.096.242-.149.505-.149.78 0 .936.61 1.732 1.452 2.015V29.2c0 1.295-.207 2.576-.617 3.805l-1.797 5.388H7.6c-1.035 0-1.877.842-1.877 1.877v1.224c0 .184.028.361.077.53h-.754C3.918 42.022 3 42.94 3 44.067v.886C3 46.082 3.918 47 5.046 47h37.188c1.129 0 2.047-.918 2.047-2.046v-.886c0-1.128-.918-2.046-2.047-2.046zM28.852 13.835c0-2.13 1.733-3.864 3.864-3.864 2.13 0 3.864 1.733 3.864 3.864 0 2.13-1.733 3.864-3.864 3.864-2.13 0-3.864-1.733-3.864-3.864zm-2.723 9.44v-1.09c0-.129.105-.233.234-.233h4.772c.372 0 .674-.302.674-.674 0-.372-.302-.674-.674-.674H28.36c-.43 0-.779-.35-.779-.779 0-.429.35-.778.779-.778h8.712c.43 0 .779.35.779.778 0 .43-.35.779-.779.779h-2.774c-.373 0-.674.302-.674.674 0 .372.301.674.674.674h4.771c.13 0 .234.104.234.233v1.09c0 .128-.105.233-.234.233H26.363c-.13 0-.234-.105-.234-.234zm3.394 1.58h6.386l1.156 13.537h-8.698l1.156-13.537zM13.333 4.487c0-1.18.96-2.14 2.14-2.14 1.179 0 2.139.96 2.139 2.14 0 1.18-.96 2.14-2.14 2.14-1.18 0-2.14-.96-2.14-2.14zm-2.995 4.135c0-.357.29-.647.647-.647h8.974c.357 0 .648.29.648.647 0 .1-.024.2-.069.29l-1.489 2.979h-7.154l-1.49-2.979c-.044-.09-.067-.19-.067-.29zm0 5.395c0-.43.349-.778.778-.778h8.713c.429 0 .778.349.778.778 0 .429-.35.778-.778.778h-8.713c-.43 0-.778-.35-.778-.778zm-1.452 3.449v-1.09c0-.128.104-.233.233-.233h12.706c.13 0 .234.105.234.233v1.09c0 .128-.105.233-.234.233H9.12c-.129 0-.233-.105-.233-.233zm2.23 1.58h8.713c.429 0 .778.35.778.78 0 .428-.35.777-.778.777h-8.713c-.43 0-.778-.349-.778-.778 0-.429.349-.778.778-.778zM7.6 42.023c-.292 0-.53-.237-.53-.53V40.27c0-.292.238-.53.53-.53h5.582c.372 0 .673-.3.673-.673 0-.372-.301-.674-.673-.674H9.449l1.654-4.962c.456-1.367.687-2.79.687-4.231V21.95h7.365V29.2c0 1.44.23 2.864.686 4.23l1.655 4.963h-5.152c-.372 0-.674.302-.674.674 0 .372.302.674.674.674h7.001c.292 0 .53.237.53.529v1.224c0 .291-.238.529-.53.529H7.6zm18.298 3.63H5.046c-.385 0-.698-.313-.698-.698v-.886c0-.385.313-.698.698-.698h20.853c.385 0 .698.313.698.698v.886c0 .385-.314.698-.699.698zm17.036-.698c0 .385-.314.698-.7.698H27.822c.079-.218.122-.453.122-.698v-.886c0-.245-.043-.48-.122-.698h6.815c.373 0 .674-.302.674-.674 0-.372-.301-.674-.674-.674h-8.886c-.292 0-.53-.237-.53-.53V40.27c0-.292.238-.53.53-.53h13.93c.292 0 .53.238.53.53v1.224c0 .29-.234.525-.523.529H37.8c-.372 0-.674.302-.674.674 0 .372.302.674.674.674h4.434c.386 0 .7.313.7.699v.885z"/>
</svg>
