<svg xmlns="http://www.w3.org/2000/svg" width="48" height="48" fill="none" viewBox="0 0 48 48">
    <path fill="#000" stroke="#000" stroke-width=".3" d="M18.051 38.147c4.52 0 8.198-3.678 8.198-8.198 0-4.52-3.677-8.198-8.198-8.198-4.52 0-8.197 3.678-8.197 8.198 0 4.52 3.677 8.198 8.197 8.198zm0-14.99c3.746 0 6.793 3.046 6.793 6.792 0 3.745-3.047 6.792-6.793 6.792-3.745 0-6.792-3.047-6.792-6.792 0-3.746 3.047-6.793 6.792-6.793z"/>
    <path fill="#000" stroke="#000" stroke-width=".3" d="M8.26 29.949c0-5.399 4.393-9.79 9.791-9.79 1.469 0 2.88.316 4.196.941.35.167.77.018.936-.333.167-.35.018-.77-.333-.936-1.505-.715-3.12-1.078-4.799-1.078-6.173 0-11.196 5.022-11.196 11.196 0 2.541.83 4.937 2.402 6.929.138.176.344.267.552.267.152 0 .306-.05.434-.15.305-.241.357-.683.117-.988-1.373-1.74-2.1-3.835-2.1-6.058zM27.233 24.817c-.35.166-.5.585-.333.936.625 1.316.942 2.727.942 4.196 0 5.398-4.392 9.79-9.79 9.79-2.224 0-4.32-.726-6.06-2.1-.305-.24-.747-.188-.988.116-.24.305-.188.747.117.987 1.991 1.572 4.388 2.403 6.93 2.403 6.174 0 11.196-5.023 11.196-11.196 0-1.679-.363-3.293-1.078-4.799-.166-.35-.585-.5-.936-.333zM24.346 22.45c.434.365.84.77 1.205 1.204.139.166.338.251.538.251.16 0 .32-.054.452-.165.297-.25.335-.692.085-.99-.416-.496-.88-.959-1.375-1.375-.298-.25-.74-.212-.99.085s-.212.74.085.99z"/>
    <path fill="#000" stroke="#000" stroke-width=".3" d="M46.666 12.693l-1.697-1.043c.02-.368.016-.735-.013-1.097l1.668-1.089c.25-.163.37-.467.298-.757-.276-1.111-.728-2.163-1.345-3.127-.16-.252-.464-.375-.755-.305l-1.937.462c-.243-.27-.506-.526-.787-.765l.41-1.949c.061-.292-.07-.592-.326-.746-.533-.321-1.032-.573-1.525-.77-.494-.196-1.03-.357-1.637-.49-.292-.065-.592.063-.75.318L37.229 3.03c-.368-.02-.735-.016-1.098.013l-1.088-1.667c-.163-.25-.467-.37-.758-.298-1.11.275-2.162.727-3.126 1.344-.252.161-.375.464-.305.755l.461 1.937c-.27.244-.526.507-.764.787l-1.949-.41c-.293-.06-.592.07-.746.326-.321.533-.573 1.032-.77 1.525-.197.494-.357 1.03-.49 1.637-.065.292.063.593.317.75l1.697 1.043c-.02.367-.016.734.013 1.097l-1.668 1.088c-.25.164-.37.468-.298.758.223.896.562 1.752 1.007 2.556l-1.687 1.011c-.283-.175-.587-.347-.918-.52l.033-2.028c.005-.288-.166-.55-.432-.66-1.397-.582-2.876-.976-4.397-1.172-.285-.036-.564.104-.704.356l-.98 1.765c-.342-.021-.711-.021-1.053 0l-.98-1.765c-.14-.252-.419-.392-.704-.356-1.521.196-3 .59-4.397 1.172-.266.11-.437.372-.433.66l.034 2.028c-.33.173-.635.345-.918.52L8.4 16.248c-.247-.148-.56-.13-.789.045-1.209.925-2.291 2.008-3.217 3.216-.175.23-.193.542-.044.789l1.035 1.726c-.175.283-.347.588-.52.918l-2.028-.033c-.283-.005-.55.166-.66.432-.582 1.397-.977 2.876-1.172 4.397-.037.285.104.564.355.704l1.766.98c-.01.171-.019.346-.019.527 0 .18.008.355.019.526l-1.766.98c-.251.14-.392.42-.355.705.195 1.52.59 3 1.172 4.397.11.265.373.434.66.432l2.028-.034c.173.331.345.636.52.919L4.35 39.6c-.149.247-.13.56.044.788.926 1.21 2.008 2.291 3.217 3.217.229.175.542.193.789.045l1.726-1.035c.283.174.587.347.918.52l-.034 2.028c-.004.287.167.549.433.66 1.396.582 2.876.976 4.397 1.172.285.036.564-.105.704-.356l.98-1.765c.342.02.711.02 1.053 0l.98 1.765c.125.225.362.361.614.361.03 0 .06-.002.09-.005 1.521-.196 3-.59 4.397-1.172.266-.111.437-.373.432-.66l-.033-2.028c.33-.173.635-.346.918-.52l1.726 1.035c.247.148.56.13.789-.045 1.209-.925 2.291-2.008 3.217-3.217.175-.229.193-.541.044-.788l-1.035-1.727c.175-.282.347-.587.52-.918l2.028.034c.289.002.55-.167.66-.432.582-1.397.977-2.876 1.172-4.397.037-.286-.104-.564-.356-.704l-1.765-.98c.01-.171.019-.346.019-.527 0-.18-.008-.356-.019-.527l1.765-.98c.252-.14.393-.419.356-.704-.195-1.52-.59-3-1.172-4.397-.11-.266-.374-.434-.66-.432l-2.028.033c-.173-.33-.345-.635-.52-.918l1.011-1.685c.41.23.804.42 1.193.576.494.197 1.03.357 1.637.491.05.011.1.016.15.016.241 0 .47-.123.6-.334l1.043-1.697c.367.02.734.016 1.097-.013l1.088 1.668c.164.25.468.37.758.298 1.11-.276 2.162-.728 3.127-1.345.251-.16.374-.464.304-.755l-.461-1.937c.27-.243.526-.506.764-.787l1.949.41c.293.06.592-.07.747-.325.32-.533.572-1.033.769-1.526.197-.494.357-1.029.49-1.636.065-.293-.063-.593-.317-.75zM30.822 24.355l1.982-.033c.382 1.005.661 2.053.832 3.126l-1.732.962c-.237.132-.377.389-.36.66l.014.196c.016.237.032.46.032.683 0 .222-.016.446-.032.682l-.014.197c-.017.271.123.528.36.66l1.732.961c-.17 1.074-.45 2.122-.832 3.127l-1.982-.033c-.273-.004-.522.148-.642.391-.294.596-.58 1.098-.873 1.536-.152.226-.16.52-.02.752l1.01 1.684c-.682.84-1.45 1.606-2.288 2.29l-1.684-1.01c-.234-.14-.527-.133-.752.018-.439.293-.94.579-1.536.874-.244.12-.396.37-.392.641l.033 1.982c-1.004.383-2.052.662-3.126.832l-.962-1.731c-.125-.224-.36-.362-.614-.362-.015 0-.03 0-.045.002l-.197.013c-.237.017-.46.032-.683.032-.222 0-.445-.016-.682-.032l-.197-.013c-.272-.019-.527.122-.66.36l-.961 1.731c-1.074-.17-2.122-.45-3.127-.832l.033-1.982c.005-.271-.148-.521-.39-.641-.596-.295-1.099-.58-1.537-.874-.226-.151-.519-.159-.752-.019l-1.684 1.01c-.839-.683-1.606-1.45-2.289-2.289l1.01-1.684c.14-.233.133-.526-.019-.752-.293-.438-.579-.94-.873-1.536-.12-.243-.367-.393-.642-.391l-1.982.033c-.383-1.005-.662-2.053-.832-3.127l1.732-.962c.237-.131.377-.388.36-.659l-.014-.197c-.016-.236-.032-.46-.032-.682 0-.223.016-.446.032-.683l.014-.196c.017-.271-.123-.528-.36-.66l-1.732-.962c.17-1.073.45-2.121.832-3.126l1.982.033c.271.003.521-.148.642-.391.294-.595.58-1.098.873-1.536.152-.226.159-.52.02-.753l-1.01-1.684c.682-.838 1.45-1.606 2.288-2.288l1.684 1.01c.233.14.526.132.752-.02.438-.293.94-.578 1.536-.873.243-.12.396-.37.391-.641l-.033-1.982c1.005-.383 2.053-.662 3.127-.833l.962 1.732c.132.237.388.378.66.36l.196-.013c.236-.017.46-.032.682-.032.223 0 .446.015.683.032l.197.013c.27.017.527-.123.659-.36l.962-1.732c1.074.17 2.122.45 3.126.833l-.033 1.982c-.004.271.148.52.392.641.595.295 1.098.58 1.536.874.226.151.519.159.752.018l1.684-1.01c.839.683 1.606 1.45 2.289 2.29l-1.01 1.683c-.14.234-.133.527.018.753.294.438.58.94.874 1.536.12.243.368.394.642.39zm-1.463-7.351l1.334-.318c.243.27.506.526.787.764l-.297 1.412c-.56-.664-1.17-1.286-1.824-1.858zm15.828-2.445c-.115.29-.254.583-.42.89l-1.872-.393c-.266-.056-.54.047-.704.263-.338.445-.725.843-1.15 1.184-.212.17-.307.447-.244.711l.442 1.857c-.572.324-1.177.584-1.807.777L38.39 18.25c-.148-.228-.414-.35-.684-.313-.54.075-1.095.081-1.65.02-.27-.029-.533.1-.676.33l-1.001 1.63c-.338-.09-.647-.192-.937-.308-.289-.115-.583-.254-.89-.42l.393-1.872c.056-.265-.046-.54-.263-.704-.444-.338-.843-.725-1.184-1.15-.17-.212-.447-.307-.711-.244l-1.857.443c-.323-.573-.584-1.178-.776-1.808l1.598-1.043c.227-.148.349-.415.312-.684-.074-.54-.081-1.095-.02-1.65.03-.27-.1-.533-.33-.675L28.082 8.8c.091-.338.192-.647.308-.936.115-.29.254-.584.421-.891l1.871.393c.266.056.54-.046.704-.262.338-.445.725-.844 1.15-1.185.212-.17.307-.447.244-.71l-.442-1.857c.573-.324 1.178-.584 1.807-.777l1.043 1.598c.148.227.414.349.684.312.54-.074 1.095-.08 1.65-.02.27.03.533-.1.676-.33l1.001-1.63c.338.091.647.192.937.308.289.115.583.254.89.421l-.393 1.871c-.056.266.046.54.263.704.445.338.843.725 1.184 1.15.17.212.447.307.711.244l1.857-.442c.324.573.584 1.178.777 1.807l-1.599 1.043c-.227.149-.349.415-.312.684.074.54.081 1.095.02 1.65-.029.27.1.534.33.676l1.63 1.002c-.09.337-.192.646-.308.936z"/>
    <path fill="#000" stroke="#000" stroke-width=".3" d="M38.437 7.077c-2.28-.908-4.873.207-5.782 2.486-.909 2.28.207 4.874 2.486 5.782.539.215 1.095.316 1.643.316 1.768 0 3.445-1.061 4.139-2.802.908-2.28-.207-4.873-2.486-5.782zm1.18 5.262c-.621 1.56-2.396 2.322-3.956 1.7-1.56-.621-2.322-2.396-1.7-3.955.474-1.191 1.621-1.918 2.832-1.918.374 0 .755.07 1.123.217 1.56.621 2.323 2.396 1.701 3.956z"/>
</svg>
