<svg width="48" height="48" viewBox="0 0 48 48" fill="none" xmlns="http://www.w3.org/2000/svg">
<g clip-path="url(#clip0)">
<path d="M0.277154 14.6379L2.56551 16.9076C2.93329 17.2724 3.52692 17.2699 3.89161 16.9022C4.25639 16.5345 4.25386 15.9408 3.88617 15.5761L1.59791 13.3064C1.41509 13.125 1.17631 13.0344 0.937624 13.0344C0.696404 13.0344 0.455186 13.1269 0.271904 13.3118C-0.0929731 13.6795 -0.0905356 14.2732 0.277154 14.6379Z" fill="black"/>
<path d="M4.89712 19.2299C5.26331 19.5961 5.85684 19.5961 6.22321 19.2299L6.22481 19.2283C6.59099 18.8621 6.59015 18.2691 6.22396 17.9029C6.04115 17.72 5.80125 17.6286 5.56143 17.6286C5.32106 17.6286 5.0805 17.7204 4.89722 17.9037C4.53103 18.2699 4.53103 18.8636 4.89712 19.2299Z" fill="black"/>
<path d="M12.8912 14.9062L3.79486 24.0025C2.41721 25.3803 2.41721 27.622 3.79496 28.9998C4.28077 29.4856 4.87411 29.7993 5.49905 29.9424C5.28474 30.4031 5.1713 30.9087 5.1713 31.4319C5.1713 32.3758 5.5389 33.2631 6.20621 33.9304C6.72961 34.4539 7.38858 34.792 8.1038 34.9138C7.70114 36.1406 7.98577 37.5456 8.95955 38.5193C9.49496 39.0546 10.1609 39.3809 10.8558 39.5001C10.7394 39.8535 10.678 40.2266 10.678 40.6095C10.678 41.5534 11.0456 42.4407 11.7129 43.108C12.3803 43.7753 13.2676 44.1429 14.2114 44.1429C14.8108 44.1429 15.3871 43.9942 15.899 43.715L15.9895 43.8123C17.1653 45.0758 18.8296 45.8004 20.5555 45.8004L27.9186 45.8004C28.4364 45.8004 28.8563 45.3805 28.8563 44.8627L28.8563 43.6331C28.8563 43.141 28.773 42.6619 28.6139 42.2115C29.038 42.3876 29.4969 42.4802 29.97 42.4802C30.9138 42.4802 31.8012 42.1126 32.4686 41.4453C33.4428 40.471 33.7272 39.0649 33.3236 37.8378C34.0191 37.7188 34.686 37.3924 35.2218 36.8566C35.8891 36.1892 36.2567 35.3018 36.2567 34.358C36.2567 33.9759 36.1955 33.6034 36.0795 33.2508C36.7939 33.1286 37.4522 32.7907 37.9752 32.2677C39.0511 31.1917 39.2867 29.5886 38.682 28.2818C39.3224 28.1355 39.9105 27.813 40.3866 27.337C41.7643 25.9594 41.7643 23.7176 40.3866 22.3399L38.5159 20.4693L47.7254 11.26C48.0915 10.8938 48.0915 10.3001 47.7254 9.93382C47.5423 9.75082 47.3023 9.65913 47.0624 9.65913C46.8225 9.65913 46.5825 9.75073 46.3994 9.93382L37.101 19.2321C36.5746 18.9318 35.9773 18.7711 35.3547 18.7711C34.4109 18.7711 33.5235 19.1387 32.8561 19.8061C32.1311 20.531 31.7881 21.4954 31.8263 22.4472C31.7788 22.4452 31.7312 22.4438 31.6837 22.4438C30.779 22.4439 29.8739 22.7884 29.1852 23.477C28.5179 24.1444 28.1503 25.0318 28.1503 25.9756C28.1503 26.0233 28.1519 26.0707 28.1537 26.1182C28.1068 26.1163 28.0598 26.1148 28.0127 26.1148C27.108 26.1148 26.203 26.4592 25.5142 27.148C24.8469 27.8154 24.4793 28.7028 24.4793 29.6465C24.4793 29.6943 24.4809 29.7417 24.4828 29.7891C24.4358 29.7873 24.3888 29.7858 24.3418 29.7858C23.4369 29.7858 22.532 30.1302 21.8432 30.819C20.5487 32.1135 20.4708 34.1706 21.6089 35.5573L15.3844 41.7817C15.0712 42.095 14.655 42.2674 14.212 42.2674C13.769 42.2674 13.3527 42.095 13.0395 41.7817C12.7262 41.4685 12.5538 41.0523 12.5538 40.6093C12.5538 40.1664 12.7262 39.75 13.0395 39.4369L13.9573 38.5191L17.2871 35.1893C17.6533 34.8231 17.6533 34.2294 17.2871 33.8631C17.104 33.6801 16.864 33.5884 16.6241 33.5884C16.3842 33.5884 16.1442 33.68 15.9611 33.8631L12.6313 37.1929C11.9849 37.8394 10.9329 37.8395 10.2863 37.193C9.6398 36.5464 9.6398 35.4946 10.2863 34.848L11.2041 33.9302L13.6161 31.5182C13.9823 31.152 13.9823 30.5583 13.6161 30.192C13.433 30.009 13.193 29.9173 12.9531 29.9173C12.7132 29.9173 12.4732 30.0089 12.2901 30.192L9.87811 32.604C9.56489 32.9173 9.14855 33.0897 8.70567 33.0897C8.26271 33.0897 7.84636 32.9173 7.53314 32.604C7.21993 32.2908 7.04752 31.8745 7.04752 31.4315C7.04752 30.9887 7.21993 30.5722 7.53324 30.2591L8.79296 28.9994L9.94524 27.8471C10.3114 27.4809 10.3114 26.8872 9.94524 26.5209C9.76214 26.3379 9.52214 26.2462 9.28224 26.2462C9.04233 26.2462 8.80233 26.3378 8.61924 26.5209L7.46611 27.674C6.81952 28.3195 5.76821 28.3194 5.12199 27.6732C4.47539 27.0267 4.47539 25.9747 5.12199 25.3281L14.2184 16.2319C16.5025 13.9476 19.5382 12.6253 22.7663 12.5081C23.0036 12.4995 23.229 12.4011 23.3966 12.2328L31.7996 3.79863C32.1651 3.43179 32.1641 2.83807 31.7971 2.47254C31.6142 2.29029 31.3748 2.19907 31.1354 2.19907C30.8949 2.19907 30.6542 2.29104 30.4711 2.47498L24.2905 8.67842C22.7205 7.67126 20.8742 7.19238 18.9969 7.31651L14.1596 2.4791C13.9765 2.2961 13.7365 2.20442 13.4966 2.20442C13.2566 2.20442 13.0167 2.29601 12.8336 2.4791C12.4674 2.84529 12.4674 3.43901 12.8336 3.80529L17.9767 8.94898C18.1714 9.1436 18.442 9.24307 18.7164 9.22057L19.0137 9.1962C20.3859 9.0837 21.7423 9.38426 22.9265 10.0479L22.3239 10.6527C18.7599 10.8725 15.4231 12.3742 12.8912 14.9062ZM34.1821 21.1321C34.4954 20.8188 34.9118 20.6464 35.3546 20.6464C35.7975 20.6464 36.2139 20.8188 36.527 21.1321L39.0607 23.6657C39.7072 24.3122 39.7072 25.3641 39.0607 26.0107C38.7475 26.324 38.331 26.4964 37.8882 26.4964C37.4453 26.4964 37.0289 26.324 36.7157 26.0107L34.182 23.4771C33.5356 22.8306 33.5356 21.7787 34.1821 21.1321ZM30.511 24.8032C31.1576 24.1567 32.2097 24.1567 32.856 24.8032L35.3897 27.3369L36.6495 28.5967C37.296 29.2432 37.296 30.2952 36.6495 30.9417C36.3363 31.255 35.9199 31.4274 35.4771 31.4274C35.0341 31.4274 34.6178 31.255 34.3047 30.9417L30.5113 27.1483C30.5113 27.1483 30.5113 27.1483 30.5112 27.1483C30.1979 26.835 30.0255 26.4186 30.0255 25.9758C30.0255 25.5329 30.1979 25.1164 30.511 24.8032ZM26.84 28.4743C27.4866 27.8279 28.5387 27.8278 29.1851 28.4743L33.8963 33.1855C34.2095 33.4987 34.3819 33.915 34.3819 34.3579C34.3819 34.8008 34.2095 35.2173 33.8962 35.5304C33.573 35.8536 33.1483 36.0153 32.7238 36.0153C32.2995 36.0153 31.8752 35.8538 31.5521 35.5311L29.4048 33.3839L26.8402 30.8193L26.8401 30.8193C26.527 30.506 26.3546 30.0898 26.3546 29.6468C26.3544 29.2039 26.5268 28.7874 26.84 28.4743ZM23.169 32.1454C23.8155 31.4989 24.8674 31.4989 25.5139 32.1454L30.2251 36.8566C30.2256 36.857 30.2262 36.8575 30.2267 36.8581L31.143 37.7743C31.7895 38.4209 31.7895 39.4728 31.143 40.1194C30.8197 40.4427 30.395 40.6043 29.9704 40.6043C29.5458 40.6043 29.1211 40.4427 28.798 40.1194L23.1691 34.4905C22.8558 34.1773 22.6834 33.7609 22.6834 33.3181C22.6833 32.875 22.8556 32.4585 23.169 32.1454ZM22.9224 36.8959L25.4979 39.4714C25.2059 39.409 24.9056 39.3759 24.6 39.376C24.5931 39.376 24.5862 39.376 24.5792 39.376L22.006 39.3881C21.4882 39.3905 21.0703 39.8123 21.0727 40.3302C21.0751 40.8466 21.4945 41.2635 22.0103 41.2635C22.0118 41.2635 22.0133 41.2635 22.0148 41.2635L24.588 41.2514C24.592 41.2514 24.5957 41.2514 24.5997 41.2514C25.2337 41.2514 25.83 41.4975 26.2797 41.9449C26.7321 42.3953 26.9812 42.9948 26.9812 43.6332L26.9812 43.9251L20.5558 43.9251C19.3487 43.9251 18.1848 43.4184 17.3625 42.5347L17.3243 42.4938L22.9224 36.8959Z" fill="black"/>
</g>
<defs>
<clipPath id="clip0">
<rect width="48" height="48" fill="white" transform="translate(48 48) rotate(180)"/>
</clipPath>
</defs>
</svg>
