<svg width="48" height="48" viewBox="0 0 48 48" fill="none" xmlns="http://www.w3.org/2000/svg">
<path d="M24.7439 5.93975C24.7439 6.43942 24.3388 6.84449 23.8392 6.84449C23.3396 6.84449 22.9345 6.43942 22.9344 5.93975V1.90449C22.9344 1.40483 23.3395 0.999756 23.8392 0.999756C24.3388 0.999756 24.7439 1.40483 24.7439 1.90449V5.93975Z" fill="black"/>
<path d="M32.1077 32.5456C31.9767 32.6116 31.8371 32.6429 31.6994 32.6429C31.3683 32.6429 31.0489 32.4616 30.89 32.1464C30.6651 31.7003 30.8418 31.1575 31.2879 30.9325L31.2929 30.9299C31.739 30.7049 32.2831 30.8842 32.5081 31.3303C32.7331 31.7765 32.5539 32.3205 32.1077 32.5456Z" fill="black"/>
<path fill-rule="evenodd" clip-rule="evenodd" d="M44.3544 30.4919L45.9527 32.0857C46.5221 32.6544 46.8353 33.4122 46.8354 34.2201C46.8354 35.0281 46.5222 35.786 45.9533 36.3541L36.2563 46.0393C35.6878 46.6073 34.93 46.92 34.1226 46.92C33.3152 46.92 32.5574 46.6072 31.9889 46.0393L30.3901 44.4425C29.8213 43.8743 29.508 43.1169 29.508 42.3097C29.508 41.7942 29.6364 41.2992 29.8769 40.8607L26.1645 37.1527C25.3554 37.246 24.5273 37.1886 23.7846 37.1369C22.7393 37.0644 21.6581 36.9893 21.27 37.3905L21.2591 37.4016L17.8691 40.7875C18.1672 41.2624 18.3276 41.8131 18.3276 42.3897C18.3276 43.1978 18.0143 43.9557 17.4455 44.5239L15.8468 46.1207C15.2581 46.7067 14.4852 46.9998 13.7126 46.9998C12.9402 46.9998 12.1681 46.7072 11.5803 46.1217L9.58294 44.1242C9.22961 43.7709 9.22961 43.1981 9.58294 42.8448C9.93626 42.4914 10.5091 42.4914 10.8624 42.8448L12.8583 44.8408C13.3289 45.3093 14.0968 45.3094 14.5689 44.8394L16.1667 43.2435C16.3932 43.0172 16.518 42.714 16.518 42.3897C16.518 42.0909 16.4108 41.8108 16.2169 41.5915C16.1249 41.5482 16.0382 41.4894 15.9622 41.4133C15.8841 41.3351 15.8243 41.2458 15.7807 41.1508L6.60909 31.9926C6.51512 31.9491 6.42664 31.8895 6.34911 31.8118C6.30581 31.7684 6.26799 31.7217 6.23528 31.6726C5.77083 31.3949 5.15923 31.4544 4.75964 31.8535L3.16029 33.4484C2.93426 33.6741 2.80948 33.9773 2.80948 34.3015C2.80948 34.6258 2.93426 34.9291 3.16083 35.1554L5.15671 37.1489C5.51022 37.5019 5.51058 38.0748 5.15743 38.4283C4.80438 38.7818 4.23149 38.7822 3.87799 38.429L1.8821 36.4356C1.31326 35.8674 1 35.1094 1 34.3014C1.00009 33.4935 1.31326 32.7357 1.8821 32.1676L3.48136 30.5728C4.40515 29.6502 5.7844 29.4527 6.90385 29.9798L9.91605 26.9731L9.76988 26.8275C8.54596 25.6014 8.54641 23.6119 9.76908 22.3908C10.1136 22.0466 10.525 21.7932 10.9742 21.6409C10.6185 21.1235 10.4265 20.5109 10.4265 19.8678C10.4265 19.0283 10.7526 18.2402 11.3448 17.6486C11.7812 17.2127 12.3255 16.922 12.9189 16.7997C12.8368 16.5167 12.7938 16.2202 12.794 15.9169C12.7947 15.078 13.1212 14.2912 13.7134 13.7014C14.1485 13.2655 14.6925 12.9743 15.2855 12.8516C15.2039 12.5694 15.161 12.2739 15.161 11.9713C15.161 11.1314 15.4866 10.3437 16.0776 9.75338C16.9685 8.86346 18.2661 8.62198 19.3787 9.0275C19.4241 8.97459 19.4703 8.92707 19.5156 8.88574C20.2331 8.23128 21.3698 8.34547 22.28 8.51813L28.2483 9.64782C29.1596 9.55116 30.1054 9.84941 30.8023 10.5434C31.6396 11.3821 31.9033 12.5795 31.5946 13.6438C32.1717 13.7641 32.7212 14.0467 33.1682 14.4932C33.7601 15.0826 34.0866 15.8706 34.0866 16.7111C34.0866 17.0137 34.0436 17.3091 33.9618 17.5913C34.5556 17.714 35.1001 18.0056 35.5367 18.4429C36.1277 19.0315 36.4542 19.8195 36.4542 20.6599C36.4542 20.9624 36.4111 21.258 36.3294 21.5401C36.9231 21.6629 37.4678 21.9545 37.9043 22.3918C39.1258 23.6119 39.1262 25.6014 37.9044 26.8256L37.7577 26.9722L40.7695 29.9804C41.2087 29.7397 41.7043 29.6113 42.2206 29.6113C43.0281 29.6113 43.7859 29.9241 44.3544 30.4919ZM25.8678 11.0388L21.9431 10.296C21.2077 10.1565 20.8935 10.1884 20.7752 10.2171C20.7747 10.2397 20.7756 10.2692 20.7791 10.3062L20.7793 10.3073C20.828 10.8225 21.363 11.6486 22.1108 12.364C22.6572 12.8867 23.1553 13.2124 23.5187 13.3871L25.8678 11.0388ZM19.0446 10.8736C18.5267 10.5229 17.8146 10.5757 17.3563 11.0336C17.1075 11.2821 16.9705 11.6151 16.9704 11.9713C16.9704 12.3274 17.1074 12.6605 17.3562 12.9089L21.4364 16.9817C21.6865 17.2322 22.0206 17.37 22.3775 17.37C22.7343 17.37 23.0679 17.2328 23.3168 16.9834C23.5665 16.734 23.7035 16.401 23.7035 16.0448C23.7035 15.7683 23.62 15.5062 23.4666 15.2864C22.3331 15.0104 21.2101 14.0063 20.8601 13.6714C20.3878 13.2195 19.3381 12.1042 19.0446 10.8736ZM15.9306 14.595C15.5743 14.595 15.2411 14.7324 14.9921 14.9817C14.7411 15.2316 14.6039 15.5635 14.6035 15.9183C14.6032 16.2742 14.741 16.6079 14.9912 16.8578L15.7709 17.6372L15.778 17.6438L15.783 17.6486L18.2755 20.1406C18.5247 20.3888 18.8595 20.5262 19.217 20.5262C19.5744 20.5262 19.9091 20.3889 20.1594 20.1396C20.675 19.6232 20.675 18.78 20.1576 18.2618L16.8721 14.9829C16.6216 14.7326 16.2873 14.595 15.9306 14.595ZM13.5639 18.5431C13.2066 18.5431 12.8726 18.6801 12.6235 18.9289C12.3737 19.1784 12.2361 19.512 12.2361 19.8677C12.2361 20.2234 12.3737 20.5569 12.6236 20.8065L15.1159 23.2959C15.3653 23.5442 15.7 23.6816 16.0572 23.6816C16.414 23.6816 16.7475 23.5446 16.9966 23.2959C17.2468 23.0466 17.3842 22.7139 17.3842 22.3583C17.3842 22.0025 17.2468 21.6699 16.9976 21.4216L14.4974 18.9226C14.2494 18.6781 13.9183 18.5431 13.5639 18.5431ZM11.9893 23.2834C11.6324 23.2834 11.298 23.421 11.0478 23.671C10.5309 24.1872 10.5313 25.0289 11.0487 25.5474L11.8327 26.3283L11.8379 26.333C11.8393 26.3344 11.8405 26.336 11.842 26.3376L11.9557 26.4508C12.2064 26.7019 12.54 26.8392 12.8969 26.8392C13.2537 26.8392 13.5873 26.7018 13.8362 26.4526C14.0874 26.2023 14.2248 25.8697 14.2248 25.5139C14.2248 25.1582 14.0875 24.8255 13.8381 24.5772L12.9305 23.6707C12.6804 23.4209 12.3461 23.2834 11.9893 23.2834ZM28.2058 33.9526C28.5592 33.5995 29.1321 33.5998 29.4852 33.9534C29.8384 34.3069 29.838 34.8798 29.4843 35.2328L28.6798 36.0363C28.4929 36.2232 28.2937 36.3806 28.0856 36.5145L31.0712 39.4965L39.4039 31.1739L36.4773 28.2507L35.8667 28.8606C35.6901 29.037 35.4587 29.1252 35.2274 29.1252C34.9957 29.1252 34.7639 29.0367 34.5872 28.8598C34.2341 28.5063 34.2345 27.9334 34.588 27.5803L35.8363 26.3334L35.8372 26.3325L35.8381 26.3317L36.6246 25.5461C37.1409 25.0288 37.1414 24.1871 36.6246 23.6708C36.3747 23.4205 36.0412 23.2832 35.6843 23.2832C35.3274 23.2832 34.9939 23.4205 34.7449 23.6699C34.7425 23.6723 34.74 23.6745 34.7375 23.6767L34.7314 23.6822L33.9578 24.456C33.7812 24.6327 33.5496 24.7211 33.318 24.7211C33.0865 24.7211 32.8551 24.6329 32.6783 24.4563C32.325 24.1031 32.3249 23.5303 32.6782 23.1769L34.2566 21.5978C34.5074 21.3481 34.6447 21.0154 34.6447 20.6597C34.6447 20.304 34.5074 19.9713 34.258 19.7229C34.0073 19.4718 33.6736 19.3345 33.3167 19.3345C32.9599 19.3345 32.6263 19.4718 32.3774 19.7211L31.4666 20.6282C31.1126 20.9807 30.5398 20.9796 30.1872 20.6256C29.8346 20.2716 29.8357 19.6988 30.1898 19.3462L31.0964 18.4432L31.8884 17.6495C32.1398 17.3992 32.2771 17.0666 32.2771 16.7109C32.2771 16.3552 32.1398 16.0225 31.8904 15.7742C31.3721 15.2566 30.5316 15.2556 30.0128 15.7696L29.8933 15.8886L29.1024 16.6785C28.749 17.0315 28.1762 17.0313 27.823 16.6777C27.4698 16.3242 27.4702 15.7513 27.8238 15.3982L28.7305 14.493L28.7385 14.4855L29.5257 13.7015C30.0412 13.1851 30.0412 12.3419 29.5238 11.8236C29.2184 11.5195 28.799 11.3962 28.3995 11.4513C28.3732 11.4565 28.3466 11.4608 28.3197 11.4637C28.0707 11.5134 27.8332 11.6337 27.6406 11.8255L25.0558 14.4093C25.3536 14.8958 25.5133 15.4573 25.5133 16.0448C25.5133 16.8847 25.1877 17.6724 24.5967 18.2627C24.0069 18.8536 23.2186 19.1794 22.3778 19.1795L22.3644 19.1792L22.3536 19.179C22.3594 19.9899 22.0546 20.8026 21.4383 21.4198C20.8447 22.0111 20.0565 22.3356 19.2171 22.3356L19.1933 22.3351L19.1939 22.3585C19.1939 23.1989 18.8673 23.9869 18.2745 24.5773C17.6848 25.1663 16.897 25.4912 16.0574 25.4912L16.0444 25.4909L16.034 25.4907L16.0345 25.514C16.0345 26.3545 15.708 27.1425 15.1151 27.7329C14.5263 28.3228 13.7379 28.6488 12.8971 28.6488C12.3086 28.6488 11.7461 28.4886 11.2586 28.1898L8.30951 31.1336L16.643 39.4549L19.9754 36.1265C20.9494 35.1266 22.4544 35.231 23.9098 35.3321C25.2498 35.4251 26.6361 35.5213 27.4008 34.7565L28.2058 33.9526ZM34.9775 44.7591L44.6745 35.0738C44.9011 34.8476 45.0259 34.5444 45.0259 34.22C45.0259 33.8957 44.9012 33.5926 44.6746 33.3663L43.0763 31.7725C42.8489 31.5454 42.5452 31.4206 42.2207 31.4206C41.8961 31.4206 41.5926 31.5454 41.3657 31.772L31.6687 41.4572C31.4421 41.6835 31.3173 41.9863 31.3173 42.3097C31.3173 42.6332 31.4421 42.9359 31.6687 43.1621L33.2675 44.759C33.4944 44.9856 33.7981 45.1104 34.1225 45.1104C34.447 45.1104 34.7507 44.9856 34.9775 44.7591Z" fill="black"/>
<path d="M11.826 6.08499C12.0026 6.26125 12.2339 6.34929 12.4651 6.34929C12.6969 6.34929 12.9288 6.26071 13.1055 6.08365C13.4584 5.72996 13.4579 5.15717 13.1042 4.8042L9.8074 1.51396C9.45381 1.16099 8.88092 1.16144 8.52796 1.51522C8.17499 1.8689 8.17553 2.44169 8.52922 2.79466L11.826 6.08499Z" fill="black"/>
<path d="M35.8528 6.08469C35.6761 6.26104 35.4447 6.34926 35.2134 6.34926C34.9817 6.34926 34.75 6.26086 34.5733 6.08397C34.2202 5.73047 34.2205 5.15758 34.574 4.80453L37.8683 1.51419C38.2219 1.16105 38.7947 1.16141 39.1478 1.51491C39.5009 1.86842 39.5006 2.4413 39.1471 2.79436L35.8528 6.08469Z" fill="black"/>
<path d="M6.56621 39.9157C6.21594 40.272 6.22079 40.8449 6.57717 41.1952L6.57978 41.1977C6.75559 41.3705 6.98386 41.4566 7.21204 41.4566C7.44625 41.4566 7.68045 41.3659 7.85787 41.1855C8.20814 40.8292 8.20195 40.255 7.84566 39.9047C7.48946 39.5545 6.91666 39.5594 6.56621 39.9157Z" fill="black"/>
</svg>
