<svg width="40" height="40" viewBox="0 0 40 40" fill="none" xmlns="http://www.w3.org/2000/svg">
<g clip-path="url(#clip0)">
<path d="M23.75 35H16.25C15.56 35 15 34.44 15 33.75C15 33.06 15.56 32.5 16.25 32.5H23.75C24.44 32.5 25 33.06 25 33.75C25 34.44 24.44 35 23.75 35Z" fill="black"/>
<path d="M20 5.76167C19.31 5.76167 18.75 5.20167 18.75 4.51167V1.25C18.75 0.56 19.31 0 20 0C20.69 0 21.25 0.56 21.25 1.25V4.51167C21.25 5.20167 20.69 5.76167 20 5.76167Z" fill="black"/>
<path d="M30.952 10.2983C30.632 10.2983 30.312 10.1766 30.0686 9.9316C29.5803 9.44327 29.5803 8.6516 30.0686 8.16327L32.3753 5.85661C32.8636 5.36827 33.6553 5.36827 34.1436 5.85661C34.632 6.34494 34.632 7.1366 34.1436 7.62494L31.837 9.9316C31.592 10.1749 31.272 10.2983 30.952 10.2983Z" fill="black"/>
<path d="M38.7503 21.25H35.4886C34.7986 21.25 34.2386 20.69 34.2386 20C34.2386 19.31 34.7986 18.75 35.4886 18.75H38.7503C39.4403 18.75 40.0003 19.31 40.0003 20C40.0003 20.69 39.4403 21.25 38.7503 21.25Z" fill="black"/>
<path d="M33.2586 34.5081C32.9386 34.5081 32.6186 34.3864 32.3753 34.1414L30.0686 31.8348C29.5803 31.3464 29.5803 30.5548 30.0686 30.0664C30.557 29.5781 31.3486 29.5781 31.837 30.0664L34.1436 32.3731C34.632 32.8614 34.632 33.6531 34.1436 34.1414C33.8986 34.3864 33.5786 34.5081 33.2586 34.5081Z" fill="black"/>
<path d="M6.7414 34.5081C6.4214 34.5081 6.1014 34.3864 5.85807 34.1414C5.36974 33.6531 5.36974 32.8614 5.85807 32.3731L8.16473 30.0664C8.65306 29.5781 9.44473 29.5781 9.93306 30.0664C10.4214 30.5548 10.4214 31.3464 9.93306 31.8348L7.6264 34.1414C7.3814 34.3864 7.0614 34.5081 6.7414 34.5081Z" fill="black"/>
<path d="M4.51167 21.25H1.25C0.56 21.25 0 20.69 0 20C0 19.31 0.56 18.75 1.25 18.75H4.51167C5.20167 18.75 5.76167 19.31 5.76167 20C5.76167 20.69 5.20167 21.25 4.51167 21.25Z" fill="black"/>
<path d="M9.04806 10.2983C8.72806 10.2983 8.40806 10.1766 8.16473 9.9316L5.85807 7.62494C5.36974 7.1366 5.36974 6.34494 5.85807 5.85661C6.3464 5.36827 7.13807 5.36827 7.6264 5.85661L9.93306 8.16327C10.4214 8.6516 10.4214 9.44327 9.93306 9.9316C9.68639 10.1749 9.36806 10.2983 9.04806 10.2983Z" fill="black"/>
<path d="M26.2497 20.8333C25.5597 20.8333 24.9997 20.2733 24.9997 19.5833C24.9997 17.055 22.9447 15 20.4164 15C19.7264 15 19.1664 14.44 19.1664 13.75C19.1664 13.06 19.7264 12.5 20.4164 12.5C24.3214 12.5 27.4997 15.6783 27.4997 19.5833C27.4997 20.2733 26.9397 20.8333 26.2497 20.8333Z" fill="black"/>
<path d="M22.0833 40H17.9166C16.5116 40 14.9999 38.9334 14.9999 36.5934V33.6534C14.9999 31.885 14.2466 30.2617 12.9849 29.3117C9.34325 26.57 7.65825 22.06 8.58659 17.5417C9.49492 13.115 13.0766 9.52003 17.4983 8.59503C21.0149 7.85503 24.6116 8.7117 27.3549 10.9417C30.0949 13.1684 31.6666 16.47 31.6666 20C31.6666 23.5967 30.0416 26.935 27.2083 29.1634C25.8049 30.2667 24.9999 31.8034 24.9999 33.3784V37.0834C24.9999 38.6917 23.6916 40 22.0833 40ZM19.9766 10.8367C19.3233 10.8367 18.6649 10.905 18.0066 11.0417C14.5466 11.765 11.7449 14.5784 11.0333 18.0434C10.3016 21.605 11.6249 25.1584 14.4866 27.3134C16.3716 28.7334 17.4983 31.1034 17.4983 33.6534V36.5934C17.4983 36.745 17.5183 37.5 17.9149 37.5H22.0816C22.3116 37.5 22.4983 37.3134 22.4983 37.0834V33.3784C22.4983 31.03 23.6516 28.7784 25.6616 27.1967C27.8899 25.4467 29.1666 22.8234 29.1666 20C29.1666 17.2267 27.9299 14.6317 25.7766 12.8817C24.1299 11.545 22.0883 10.8367 19.9766 10.8367Z" fill="black"/>
</g>
<defs>
<clipPath id="clip0">
<rect width="40" height="40" fill="white"/>
</clipPath>
</defs>
</svg>
