<svg xmlns="http://www.w3.org/2000/svg" width="48" height="48" fill="none" viewBox="0 0 48 48">
    <path fill="#000" stroke="#000" stroke-width=".3" d="M33.2 5.983c-1.691 0-3.067 1.376-3.067 3.067v.554l-17.918 7.167c-.29.118-.482.399-.482.712v10.734c0 .313.191.595.482.711l17.918 7.167v.555c0 1.692 1.376 3.067 3.067 3.067 1.691 0 3.067-1.376 3.067-3.067V9.05c0-1.691-1.376-3.067-3.067-3.067zm1.533 30.667c0 .846-.687 1.533-1.533 1.533-.846 0-1.533-.687-1.533-1.533v-1.073c0-.315-.191-.596-.483-.712l-17.917-7.167v-9.695l17.917-7.167c.292-.118.483-.399.483-.713V9.05c0-.846.687-1.533 1.533-1.533.846 0 1.533.687 1.533 1.533v27.6z"/>
    <path fill="#000" stroke="#000" stroke-width=".3" d="M12.5 16.717H7.133C3.752 16.717 1 19.468 1 22.85s2.752 6.133 6.133 6.133H12.5c.423 0 .767-.342.767-.766V17.483c0-.423-.344-.766-.767-.766zm-.767 10.733h-4.6c-2.537 0-4.6-2.063-4.6-4.6 0-2.537 2.063-4.6 4.6-4.6h4.6v9.2zM40.342 19.822l-4.6-1.533c-.234-.077-.49-.038-.69.106-.2.144-.319.375-.319.622v7.666c0 .246.118.478.319.623.132.095.29.144.448.144.081 0 .163-.013.242-.04l4.6-1.533c.314-.104.525-.397.525-.727v-4.6c0-.33-.211-.623-.525-.728zm-1.009 4.775l-3.066 1.022V20.08l3.066 1.022v3.495z"/>
    <path fill="#000" stroke="#000" stroke-width=".3" d="M16.262 37.795l-.77-.77-2.248-8.994c-.085-.341-.392-.581-.744-.581H6.367c-.235 0-.456.107-.601.29-.146.184-.2.424-.146.652l3.067 13.034c.083.352.397.59.746.59.048 0 .096-.004.145-.014l5.758-1.111.023-.005c.337-.076.645-.245.89-.486.35-.346.544-.806.547-1.298.003-.492-.185-.955-.534-1.307zm-1.09 1.513c-.039.04-.088.066-.141.08l-5.02.97-2.676-11.375H11.9l2.156 8.62c.034.134.104.258.202.356l.917.917c.077.077.088.168.088.217-.001.046-.013.138-.091.215zM47 22.083h-4.6v1.534H47v-1.534zM45.837 12.994l-3.833 2.3.789 1.315 3.833-2.3-.79-1.315zM42.8 29.092l-.79 1.315 3.834 2.3.79-1.315-3.834-2.3zM31.667 9.817h-1.534v26.066h1.534V9.817zM10.2 19.783H8.667v3.067H10.2v-3.067zM7.133 19.783H5.6v3.067h1.533v-3.067z"/>
</svg>
