<svg xmlns="http://www.w3.org/2000/svg" width="48" height="48" fill="none" viewBox="0 0 48 48">
    <path fill="#000" stroke="#000" stroke-width=".3" d="M44.665 7.184l-1.994-1.731 1.994-1.73c.31-.27.416-.69.27-1.071-.146-.382-.507-.628-.92-.628H35.76v-.35c0-.372-.306-.674-.684-.674-.377 0-.683.302-.683.674v9.093l-5.618 3.006c-.031-.243-.105-.483-.222-.708l-.792-1.523c-.543-1.046-1.849-1.46-2.909-.925l-.612.309c-.514.26-.895.7-1.072 1.242-.178.542-.13 1.119.133 1.625l.792 1.524c.185.355.458.637.779.834-.42.558-.62 1.243-.825 1.956l-.147.514c-.103.359.108.731.472.832.062.018.125.026.186.026.299 0 .573-.194.658-.49l.148-.514c.3-1.042.484-1.6 1.07-1.914l1.05-.563.13-.065c.043-.022.083-.046.124-.07l7.49-4.009c-.048.923-.552 1.795-1.382 2.291l-4.87 2.917-.016.01-1.516.907c-.323.193-.426.608-.23.927.185.3.57.406.884.256l-1.15 3.427-.841.34-2.286.923.659-2.296c.102-.358-.11-.73-.473-.832-.363-.102-.741.107-.844.465l-1.041 3.628c-.014.047-.022.098-.025.147l-.272 4.931c-.008.188.032.544-.056.727l-3.025 6.273h-2.198c-1.288 0-2.336 1.033-2.336 2.302v1.946c-.295-.133-.622-.208-.967-.208H7.661c-1.287 0-2.335 1.033-2.335 2.302v2.415H3.684c-.378 0-.684.301-.684.674 0 .372.306.674.684.674h40.33c.377 0 .684-.302.684-.674 0-.373-.306-.674-.684-.674h-1.78V28.274c0-1.269-1.047-2.301-2.334-2.301H35.76V14.21c.759-1.013 1.04-2.341.688-3.603-.055-.198-.2-.361-.392-.442-.094-.04-.195-.057-.296-.053v-1.23h8.253c.414 0 .775-.247.921-.628.146-.381.04-.802-.27-1.071v0zm-20.194 5.398c.065-.199.205-.361.393-.456l.613-.309c.115-.058.238-.086.36-.086.288 0 .567.155.707.425l.792 1.524c.185.356.065.787-.263 1.005l-.223.119-.47.238c-.39.196-.869.044-1.068-.34l-.792-1.523c-.097-.186-.114-.398-.05-.597v0zm-1.375 24.52c-.232-.104-.485-.172-.75-.196l.75-.983v1.18zm3.248-5.432c.33-.388.42-.842.493-1.208.019-.087.356-1.904.356-1.904s.32.196.353.21c.023.01.04.033.042.06l.372 3.728h-2.292l.676-.886zm4.045-3.72l-.577 4.602h-.477l-.385-3.857c-.05-.494-.356-.925-.806-1.14l-.688-.43.459-2.503s1.93 2.26 1.975 2.318c.4.512.536.717.5 1.01zm-7.388 3.262c.138-.41.202-.827.191-1.251l.249-4.498 3.164-1.278-.576 3.14-.004.025-.476 2.596c-.062.269-.116.677-.286.898l-4.622 6.051h-.381L23 31.212zM6.694 43.237c0-.526.434-.953.967-.953h5.583c.534 0 .967.427.967.953v2.415H6.694v-2.415zm8.885 0v-4.04c0-.526.434-.953.968-.953h5.582c.534 0 .967.427.967.953v6.455H15.58v-2.415h0zm25.288-14.963v17.378H33.35v-4.043c0-.372-.306-.674-.684-.674-.378 0-.684.302-.684.674v4.043h-7.517V34.857c0-.526.433-.953.967-.953h5.582c.534 0 .968.427.968.953v3.38c0 .372.306.674.684.674.378 0 .684-.302.684-.675v-9.962c0-.526.433-.953.967-.953H39.899c.534 0 .968.428.968.953v0zm-6.55-2.301c-1.288 0-2.335 1.032-2.335 2.301v4.489c-.245-.11-.512-.18-.793-.2l.558-4.448c.11-.867-.34-1.441-.773-1.997-.046-.059-2.704-3.17-2.704-3.17l1.63-4.861 4.494-2.69v10.576h-.077zm1.444-18.44v-4.16h7.237l-1.559 1.352c-.212.184-.334.45-.334.728 0 .279.122.544.334.728l1.559 1.353h-7.236v0z"/>
</svg>
