<svg width="48" height="48" viewBox="0 0 48 48" fill="none" xmlns="http://www.w3.org/2000/svg">
<g clip-path="url(#clip0)">
<path d="M47.9809 38.6141V34.3904H43.4757V31.5746H41.974V29.2282H43.4757V25.0045H32.2461V26.4124H42.0678V27.8203H12.938V29.2282H40.566V31.5746H9.92106C9.27409 31.5746 8.74783 31.0484 8.74783 30.4014C8.74783 29.7544 9.27409 29.2282 9.92106 29.2282H11.5301V27.8203H9.92106C8.49788 27.8203 7.33994 28.9781 7.33994 30.4014C7.33994 31.8247 8.49788 32.9825 9.92106 32.9825H42.0677V34.3904H17.8052V35.7983H46.573V37.2062H6.82372C4.62414 37.2062 2.83472 38.9956 2.83472 41.1952C2.83472 43.3948 4.62414 45.1842 6.82372 45.1842H39.9827V43.7763H6.82381C5.40054 43.7763 4.24269 42.6185 4.24269 41.1952C4.24269 39.7719 5.40054 38.6141 6.82381 38.6141H45.0713V40.9605H13.8632V42.3684H45.0713V43.7763H41.3906V45.1842H46.5731V46.5921H6.82381C3.84792 46.5921 1.42693 44.1711 1.42693 41.1952C1.42693 38.2193 3.84792 35.7983 6.82381 35.7983H16.3974V34.3904H9.92116C7.72157 34.3904 5.93215 32.601 5.93215 30.4014C5.93215 28.2018 7.72157 26.4124 9.92116 26.4124H30.8383V25.0045H9.92116C6.94527 25.0045 4.52427 27.4255 4.52427 30.4014C4.52427 31.9916 5.21592 33.4229 6.31378 34.4115C2.79914 34.6735 0.019043 37.6147 0.019043 41.1952C0.019043 44.9474 3.07162 48 6.82381 48H47.9809V43.7763H46.4792V38.6141H47.9809Z" fill="black"/>
<path d="M11.0474 40.9606H12.4552V42.3685H11.0474V40.9606Z" fill="black"/>
<path d="M12.9716 20.9229L13.2851 21.132C13.4073 21.2134 16.3659 23.1274 24 23.1274C31.6342 23.1274 34.5928 21.2134 34.715 21.132L35.0285 20.9229V9.07099L39.2521 7.66311V14.3092C38.1701 14.6165 37.3749 15.6128 37.3749 16.7919V20.3116H42.5372V16.7919C42.5372 15.6128 41.742 14.6165 40.66 14.3092V7.19381L43.1207 6.37358L35.7278 3.90922L35.2825 5.24483L38.6686 6.37349L24 11.2631L9.3315 6.37358L24 1.4841L33.9469 4.79976L34.3922 3.46414L24 0L4.87939 6.37358L12.9716 9.07099V20.9229ZM41.1293 16.7919V18.9037H38.7828V16.7919C38.7828 16.1449 39.3091 15.6187 39.9561 15.6187C40.603 15.6187 41.1293 16.1449 41.1293 16.7919ZM14.3795 9.54029L24 12.7472L33.6206 9.54029V15.0555H31.8842V16.4634H33.6206V17.8713H30.5702V19.2792H33.6206V20.1279C32.7133 20.5696 29.7944 21.7195 24 21.7195C18.2013 21.7195 15.2822 20.5679 14.3795 20.1282V9.54029Z" fill="black"/>
<path d="M8.23193 40.9606H9.63981V42.3685H8.23193V40.9606Z" fill="black"/>
<path d="M27.7544 17.8712H29.1623V19.2791H27.7544V17.8712Z" fill="black"/>
</g>
<defs>
<clipPath id="clip0">
<rect width="48" height="48" fill="white"/>
</clipPath>
</defs>
</svg>
