<svg xmlns="http://www.w3.org/2000/svg" width="48" height="48" fill="none" viewBox="0 0 48 48">
    <path fill="#000" d="M44.622 28.927l-3.22-6.323c-.153-.302-.463-.492-.8-.492H8.118c-.338 0-.648.19-.801.492l-3.22 6.323c-.142.28-.129.612.035.878.163.267.453.43.766.43h1.122V46.1c0 .496.402.899.899.899h34.877c.497 0 .9-.403.9-.899V30.234h1.124c.313 0 .603-.162.766-.429.164-.266.177-.599.035-.878zM40.05 23.91l2.305 4.526H28.13l-2.305-4.526H40.05zm-31.38 0h14.224l-2.305 4.526H6.365L8.67 23.91zm32.229 21.292h-15.64V40.22c0-.496-.402-.899-.899-.899-.496 0-.899.403-.899.9v4.981H7.82V30.234H21.14c.338 0 .648-.19.801-.49l1.52-2.986v5.39c0 .497.403.9.9.9.495 0 .898-.403.898-.9v-5.39l1.52 2.985c.153.302.463.491.8.491H40.9v14.968z"/>
    <path fill="#000" d="M16.674 40.28h-5.119c-.496 0-.899.403-.899.899s.403.899.9.899h5.118c.496 0 .899-.403.899-.9 0-.495-.403-.898-.9-.898zM24.36 19.47c5.086 0 9.224-4.144 9.224-9.237C33.584 5.143 29.446 1 24.36 1c-5.088 0-9.227 4.142-9.227 9.233 0 5.093 4.14 9.236 9.227 9.236zm0-16.672c4.095 0 7.427 3.335 7.427 7.435 0 4.102-3.332 7.439-7.427 7.439-4.096 0-7.43-3.337-7.43-7.439 0-4.1 3.334-7.435 7.43-7.435z"/>
    <path fill="#000" d="M20.33 11.582l2.393 2.028c.163.138.369.213.581.213.026 0 .051-.001.077-.003.238-.02.459-.136.612-.32l4.503-5.38c.319-.381.268-.948-.113-1.267-.38-.318-.947-.268-1.266.113l-3.922 4.687-1.702-1.443c-.379-.32-.946-.274-1.267.105-.321.379-.274.946.104 1.267zM6.701 11.132h3.89c.496 0 .898-.403.898-.899s-.402-.899-.899-.899H6.701c-.496 0-.899.403-.899.899s.403.899.9.899zM6.282 4.877l3.889 2.051c.134.07.277.104.418.104.323 0 .635-.174.796-.48.232-.439.064-.982-.375-1.214L7.12 3.287c-.438-.232-.982-.063-1.214.376-.231.439-.063.983.376 1.214zM5.906 16.803c.16.306.473.48.796.48.141 0 .285-.033.418-.103l3.89-2.049c.438-.231.607-.775.376-1.214-.232-.44-.775-.608-1.215-.377L6.282 15.59c-.439.231-.607.775-.376 1.214zM38.127 11.132h3.89c.496 0 .898-.403.898-.899s-.402-.899-.898-.899h-3.89c-.496 0-.898.403-.898.899s.402.899.898.899zM38.128 7.033c.141 0 .285-.034.419-.104l3.889-2.052c.439-.231.607-.775.376-1.214-.232-.44-.776-.607-1.215-.376l-3.889 2.051c-.44.232-.607.776-.376 1.215.161.305.473.48.796.48zM37.708 15.131l3.89 2.049c.133.07.276.104.417.104.323 0 .635-.175.796-.48.232-.44.063-.983-.376-1.215l-3.89-2.048c-.438-.232-.982-.063-1.213.376-.232.44-.063.983.376 1.214zM24.36 35.285c-.497 0-.899.403-.899.9v.005c0 .496.402.896.899.896.496 0 .899-.405.899-.901 0-.497-.403-.9-.9-.9z"/>
</svg>
