<svg width="40" height="40" viewBox="0 0 40 40" fill="none" xmlns="http://www.w3.org/2000/svg">
<path d="M7.34375 11.25H8.90625V12.8125C8.90625 13.4597 9.43094 13.9844 10.0781 13.9844C10.7253 13.9844 11.25 13.4597 11.25 12.8125V11.25H12.8125C13.4597 11.25 13.9844 10.7253 13.9844 10.0781C13.9844 9.43094 13.4597 8.90625 12.8125 8.90625H11.25V7.34375C11.25 6.69656 10.7253 6.17188 10.0781 6.17188C9.43094 6.17188 8.90625 6.69656 8.90625 7.34375V8.90625H7.34375C6.69656 8.90625 6.17188 9.43094 6.17188 10.0781C6.17188 10.7253 6.69656 11.25 7.34375 11.25Z" fill="black"/>
<path d="M25.5469 11.25H30.2344C30.8816 11.25 31.4062 10.7253 31.4062 10.0781C31.4062 9.43094 30.8816 8.90625 30.2344 8.90625H25.5469C24.8997 8.90625 24.375 9.43094 24.375 10.0781C24.375 10.7253 24.8997 11.25 25.5469 11.25Z" fill="black"/>
<path d="M30.625 28.6719H25.1562C24.5091 28.6719 23.9844 29.1966 23.9844 29.8438C23.9844 30.4909 24.5091 31.0156 25.1562 31.0156H30.625C31.2722 31.0156 31.7969 30.4909 31.7969 29.8438C31.7969 29.1966 31.2722 28.6719 30.625 28.6719Z" fill="black"/>
<path d="M30.625 24.7656H25.1562C24.5091 24.7656 23.9844 25.2903 23.9844 25.9375C23.9844 26.5847 24.5091 27.1094 25.1562 27.1094H30.625C31.2722 27.1094 31.7969 26.5847 31.7969 25.9375C31.7969 25.2903 31.2722 24.7656 30.625 24.7656Z" fill="black"/>
<path d="M12.8598 25.1085C12.4022 24.6508 11.6601 24.6508 11.2025 25.1085L10.078 26.2329L8.95351 25.1084C8.49593 24.6507 7.7539 24.6507 7.29624 25.1084C6.83859 25.566 6.83859 26.308 7.29624 26.7656L8.42078 27.8902L7.29624 29.0147C6.83859 29.4724 6.83859 30.2143 7.29624 30.672C7.52507 30.9008 7.82499 31.0152 8.12492 31.0152C8.42484 31.0152 8.72476 30.9008 8.95351 30.6719L10.078 29.5474L11.2026 30.672C11.4313 30.9008 11.7312 31.0152 12.0312 31.0152C12.3311 31.0152 12.631 30.9008 12.8598 30.6719C13.3174 30.2142 13.3174 29.4723 12.8598 29.0146L11.7353 27.8902L12.8598 26.7656C13.3175 26.3081 13.3175 25.566 12.8598 25.1085Z" fill="black"/>
<path d="M37.9688 21.1851V3.51562C37.9688 1.57711 36.3916 0 34.4531 0H3.51562C1.57711 0 0 1.57711 0 3.51562V34.4531C0 36.3916 1.57711 37.9688 3.51562 37.9688H21.185C23.1061 39.2513 25.4124 40 27.8906 40C34.5678 40 40 34.5677 40 27.8906C40 25.4125 39.2513 23.1062 37.9688 21.1851ZM35.625 3.51562V18.5805C33.5257 16.8335 30.8288 15.7812 27.8906 15.7812C24.9524 15.7812 22.2555 16.8335 20.1562 18.5805V2.34375H34.4531C35.0993 2.34375 35.625 2.86945 35.625 3.51562ZM3.51562 2.34375H17.8125V17.8125H2.34375V3.51562C2.34375 2.86945 2.86945 2.34375 3.51562 2.34375ZM2.34375 34.4531V20.1562H17.8125V21.1851C16.53 23.1062 15.7812 25.4125 15.7812 27.8906C15.7812 30.8288 16.8335 33.5257 18.5805 35.625H3.51562C2.86945 35.625 2.34375 35.0993 2.34375 34.4531ZM27.8906 37.6562C22.5059 37.6562 18.125 33.2754 18.125 27.8906C18.125 22.5059 22.5059 18.125 27.8906 18.125C33.2754 18.125 37.6562 22.5059 37.6562 27.8906C37.6562 33.2754 33.2754 37.6562 27.8906 37.6562Z" fill="black"/>
</svg>
