<svg width="48" height="48" viewBox="0 0 48 48" fill="none" xmlns="http://www.w3.org/2000/svg">
<path d="M11.8128 15.5625V19.8824C10.8696 20.2109 10.0929 20.9018 9.65629 21.8357L7.80361 25.8081C6.60876 28.3719 7.18579 31.4017 9.23976 33.3471L14.6253 38.4462V47.0625C14.6253 47.5803 15.0451 48 15.5628 48H19.7816C20.2993 48 20.7191 47.5803 20.7191 47.0625C20.7191 46.5447 20.2993 46.125 19.7816 46.125H16.5003V38.0428C16.5003 37.7853 16.3944 37.5391 16.2074 37.3621L10.5291 31.9856C9.06192 30.596 8.64961 28.4317 9.50311 26.6003L11.3552 22.629C11.8048 21.6675 12.9282 21.2919 13.8476 21.7212L23.1088 26.0393C21.8108 27.7922 19.4124 28.454 17.3607 27.4976L14.8116 26.3089C14.3423 26.0899 13.7845 26.2931 13.5658 26.7622C13.3469 27.2315 13.5499 27.7893 14.0191 28.0082L16.5683 29.197C17.6132 29.6842 18.7873 29.901 19.9998 29.7766C21.978 31.9138 23.0628 34.6757 23.0628 37.605C23.0628 38.1228 23.4826 38.5425 24.0003 38.5425C24.518 38.5425 24.9378 38.1228 24.9378 37.605C24.9378 34.527 23.9074 31.6081 22.0111 29.2403C23.4074 28.6193 24.5946 27.5122 25.2896 26.0219C25.29 26.0212 25.2901 26.0204 25.2905 26.0197C25.7562 26.2273 26.271 26.3438 26.8128 26.3438C27.6498 26.3438 28.4236 26.0679 29.0483 25.6026C29.6504 26.8708 30.9432 27.75 32.4378 27.75C33.0152 27.75 33.5624 27.6186 34.0514 27.3845C33.7929 29.0675 33.374 30.6021 32.9398 32.1902C32.2321 34.7782 31.5003 37.4543 31.5003 40.875V46.125H28.2191C27.7014 46.125 27.2816 46.5447 27.2816 47.0625C27.2816 47.5803 27.7014 48 28.2191 48H32.4378C32.9555 48 33.3753 47.5803 33.3753 47.0625V40.875C33.3753 37.7061 34.0423 35.267 34.7484 32.6848C35.456 30.0968 36.1878 27.4207 36.1878 24V18.375C36.1878 16.3073 34.5056 14.625 32.4378 14.625C31.6008 14.625 30.827 14.9008 30.2024 15.3662C29.6003 14.0979 28.3075 13.2188 26.8128 13.2188C25.9758 13.2188 25.202 13.4946 24.5774 13.9599C23.9753 12.6917 22.6825 11.8125 21.1878 11.8125C20.0686 11.8125 19.063 12.306 18.3753 13.0861C17.6877 12.306 16.682 11.8125 15.5628 11.8125C13.4951 11.8125 11.8128 13.4948 11.8128 15.5625V15.5625ZM30.5628 18.375C30.5628 17.3411 31.4039 16.5 32.4378 16.5C33.4717 16.5 34.3128 17.3411 34.3128 18.375V24C34.3128 25.0339 33.4717 25.875 32.4378 25.875C31.4039 25.875 30.5628 25.0339 30.5628 24V18.375ZM24.9378 16.9688C24.9378 15.9349 25.779 15.0938 26.8128 15.0938C27.8467 15.0938 28.6878 15.9349 28.6878 16.9688V22.5938C28.6878 23.6276 27.8467 24.4688 26.8128 24.4688C25.779 24.4688 24.9378 23.6276 24.9378 22.5938V16.9688ZM19.3128 15.5625C19.3128 14.5286 20.154 13.6875 21.1878 13.6875C22.2217 13.6875 23.0628 14.5286 23.0628 15.5625V22.5938C23.0628 23.1278 23.1758 23.6357 23.3779 24.096L19.3128 22.2007V15.5625ZM13.6878 15.5625C13.6878 14.5286 14.5289 13.6875 15.5628 13.6875C16.5967 13.6875 17.4378 14.5286 17.4378 15.5625V21.3264L14.6404 20.0222C14.3359 19.88 14.0154 19.7806 13.6878 19.7243V15.5625Z" fill="black"/>
<path d="M24.9375 4.3125V0.9375C24.9375 0.419719 24.5177 0 24 0C23.4823 0 23.0625 0.419719 23.0625 0.9375V4.3125C23.0625 4.83028 23.4823 5.25 24 5.25C24.5177 5.25 24.9375 4.83028 24.9375 4.3125Z" fill="black"/>
<path d="M16.0313 7.38576C16.4797 7.12691 16.6335 6.55363 16.3746 6.10513L14.9684 3.66857C14.7095 3.22007 14.1362 3.06632 13.6878 3.32516C13.2394 3.584 13.0856 4.15729 13.3445 4.60579L14.7507 7.04235C15.0087 7.48944 15.5817 7.64535 16.0313 7.38576Z" fill="black"/>
<path d="M8.44885 11.938L6.01228 10.5317C5.56341 10.2728 4.99031 10.4267 4.73166 10.8752C4.47281 11.3236 4.62656 11.8969 5.07497 12.1558L7.51153 13.562C7.95806 13.8197 8.53228 13.6691 8.79216 13.2186C9.051 12.7701 8.89725 12.1968 8.44885 11.938Z" fill="black"/>
<path d="M33.2496 7.04237L34.6559 4.6058C34.9147 4.1574 34.761 3.58402 34.3126 3.32518C33.8638 3.06624 33.2908 3.22018 33.032 3.66859L31.6257 6.10515C31.3669 6.55355 31.5206 7.12693 31.969 7.38577C32.4156 7.6433 32.9897 7.49274 33.2496 7.04237Z" fill="black"/>
<path d="M40.4888 13.562L42.9254 12.1558C43.3738 11.8969 43.5276 11.3236 43.2687 10.8751C43.0098 10.4267 42.4366 10.2728 41.9881 10.5317L39.5515 11.938C39.1031 12.1968 38.9494 12.7701 39.2082 13.2186C39.4662 13.6657 40.0392 13.8216 40.4888 13.562V13.562Z" fill="black"/>
<path d="M24 48C24.5178 48 24.9375 47.5803 24.9375 47.0625C24.9375 46.5447 24.5178 46.125 24 46.125C23.4822 46.125 23.0625 46.5447 23.0625 47.0625C23.0625 47.5803 23.4822 48 24 48Z" fill="black"/>
</svg>
