<svg width="48" height="48" viewBox="0 0 48 48" fill="none" xmlns="http://www.w3.org/2000/svg">
<path d="M37.4751 15.48C37.1324 15.051 36.7649 14.634 36.3824 14.2402L35.3061 15.2842C35.6549 15.6442 35.9909 16.0252 36.3036 16.4167L37.4751 15.48Z" fill="black"/>
<path d="M37.9547 18.9398L39.283 18.243C39.0265 17.7547 38.7445 17.2747 38.4452 16.818L37.1905 17.643C37.4635 18.057 37.7207 18.4943 37.9547 18.9398Z" fill="black"/>
<path d="M35.1748 13.11C34.7563 12.7545 34.3168 12.4148 33.8675 12.1013L33.0088 13.3298C33.4183 13.617 33.8203 13.9298 34.2028 14.253L35.1748 13.11Z" fill="black"/>
<path d="M39.6747 24.69L41.168 24.54C41.114 23.9902 41.033 23.4397 40.9272 22.9027L39.4557 23.1929C39.5502 23.6857 39.6245 24.1882 39.6747 24.69Z" fill="black"/>
<path d="M39.0924 21.7319L40.5294 21.3014C40.3726 20.7764 40.1874 20.2514 39.9804 19.7429L38.5906 20.3084C38.7804 20.7749 38.9491 21.2519 39.0924 21.7319Z" fill="black"/>
<path d="M39.6841 27.7057L41.1774 27.843C41.2254 27.318 41.2524 26.7817 41.2524 26.193L39.7501 26.25C39.7501 26.736 39.7276 27.225 39.6841 27.7057Z" fill="black"/>
<path d="M20.3252 43.107C20.8059 43.2113 21.2964 43.296 21.7839 43.3583L21.9737 41.871C21.5297 41.8133 21.0819 41.736 20.6439 41.6408L20.3252 43.107Z" fill="black"/>
<path d="M23.3176 41.9849L23.2523 43.4849C23.5008 43.4949 23.7501 43.4999 24.0001 43.4999C24.2453 43.4999 24.4891 43.4947 24.7328 43.4842L24.6691 41.9842C24.2198 42.0052 23.7653 42.0044 23.3176 41.9849Z" fill="black"/>
<path d="M17.4973 42.2325C17.9548 42.4185 18.4236 42.5865 18.8908 42.7305L19.3333 41.2972C18.9081 41.166 18.4806 41.013 18.0628 40.8427L17.4973 42.2325Z" fill="black"/>
<path d="M28.6499 41.3017L29.0916 42.7349C29.5611 42.5902 30.0299 42.4222 30.4859 42.2369L29.9249 40.8479C29.5086 41.0167 29.0804 41.1697 28.6499 41.3017Z" fill="black"/>
<path d="M26.0161 41.8717L26.2058 43.3597C26.6926 43.2974 27.1808 43.2097 27.6646 43.1092L27.3473 41.6429C26.9078 41.7382 26.4601 41.8154 26.0161 41.8717Z" fill="black"/>
<path d="M8.31522 27.6885C8.27172 27.2138 8.24997 26.7293 8.24997 26.25V26.175L6.74997 26.25C6.74997 26.775 6.77397 27.3038 6.82497 27.825L8.31522 27.6885Z" fill="black"/>
<path d="M9.4139 20.2965L8.0249 19.7288C7.8179 20.2358 7.63265 20.76 7.4744 21.2865L8.9114 21.7178C9.0554 21.237 9.2249 20.7593 9.4139 20.2965Z" fill="black"/>
<path d="M14.9998 13.3244L14.1418 12.0944C13.6918 12.4094 13.25 12.7492 12.833 13.1039L13.7998 14.2499C14.1838 13.9222 14.585 13.6117 14.9998 13.3244Z" fill="black"/>
<path d="M8.55019 23.1809L7.07719 22.8899C6.97069 23.4284 6.88968 23.9789 6.83493 24.5249L8.32819 24.6749C8.37694 24.1747 8.45194 23.6722 8.55019 23.1809Z" fill="black"/>
<path d="M10.8159 17.6294L9.56189 16.8044C9.26189 17.2642 8.97839 17.7434 8.72339 18.2294L10.0509 18.9277C10.2841 18.4867 10.5414 18.0494 10.8159 17.6294Z" fill="black"/>
<path d="M12.7006 15.2782L11.6251 14.2327C11.2433 14.6249 10.8751 15.0419 10.5316 15.4702L11.7016 16.4092C12.0166 16.0169 12.3526 15.6367 12.7006 15.2782Z" fill="black"/>
<path d="M39.0001 29.2499C37.847 29.2506 36.7069 29.4938 35.654 29.9639C34.601 30.434 33.6587 31.1204 32.8884 31.9784L27.9961 28.3094C28.3222 27.6811 28.4949 26.9846 28.5002 26.2767C28.5055 25.5689 28.3432 24.8698 28.0267 24.2367C27.7101 23.6035 27.2482 23.0543 26.6787 22.6338C26.1093 22.2134 25.4484 21.9336 24.7501 21.8174V18.7117C26.8644 18.5187 28.8229 17.518 30.2182 15.9179C31.6135 14.3178 32.3382 12.2413 32.2416 10.1205C32.145 7.99961 31.2345 5.99764 29.6995 4.53098C28.1645 3.06431 26.1232 2.24585 24.0001 2.24585C21.8771 2.24585 19.8358 3.06431 18.3008 4.53098C16.7658 5.99764 15.8553 7.99961 15.7587 10.1205C15.6621 12.2413 16.3868 14.3178 17.7821 15.9179C19.1774 17.518 21.1359 18.5187 23.2501 18.7117V21.8174C22.5518 21.9337 21.891 22.2136 21.3215 22.6341C20.7521 23.0547 20.2902 23.604 19.9736 24.2372C19.6571 24.8704 19.4948 25.5694 19.5001 26.2773C19.5054 26.9852 19.6781 27.6818 20.0041 28.3102L15.1126 31.9784C13.6857 30.3976 11.7042 29.4277 9.58042 29.2706C7.45661 29.1136 5.35401 29.7814 3.71004 31.1351C2.06607 32.4888 1.00732 34.4243 0.754062 36.5388C0.500799 38.6533 1.07252 40.784 2.35029 42.4877C3.62805 44.1914 5.51348 45.3369 7.61431 45.6858C9.71514 46.0347 11.8696 45.5602 13.6295 44.3611C15.3894 43.1619 16.6192 41.3304 17.0631 39.2476C17.507 37.1647 17.1307 34.9909 16.0126 33.1784L20.9049 29.5102C21.7382 30.3068 22.8466 30.7513 23.9994 30.7513C25.1522 30.7513 26.2606 30.3068 27.0939 29.5102L31.9861 33.1784C31.0314 34.7329 30.6194 36.5603 30.8147 38.374C31.01 40.1878 31.8016 41.8855 33.0654 43.2012C34.3291 44.5168 35.9937 45.3759 37.7981 45.644C39.6026 45.912 41.445 45.5738 43.0366 44.6824C44.6282 43.7909 45.8791 42.3966 46.5932 40.7179C47.3073 39.0392 47.4443 37.1711 46.9827 35.4062C46.521 33.6413 45.4869 32.0794 44.0423 30.9653C42.5978 29.8513 40.8244 29.248 39.0001 29.2499ZM6.00014 43.5374V41.9999C6.00014 41.2043 6.31621 40.4412 6.87882 39.8786C7.44143 39.316 8.20449 38.9999 9.00014 38.9999C9.79579 38.9999 10.5589 39.316 11.1215 39.8786C11.6841 40.4412 12.0001 41.2043 12.0001 41.9999V43.5374C11.0694 44.0057 10.042 44.2496 9.00014 44.2496C7.95827 44.2496 6.93086 44.0057 6.00014 43.5374ZM7.50014 35.9999V35.2499C7.50014 34.8521 7.65818 34.4706 7.93948 34.1893C8.22079 33.908 8.60232 33.7499 9.00014 33.7499C9.39797 33.7499 9.7795 33.908 10.0608 34.1893C10.3421 34.4706 10.5001 34.8521 10.5001 35.2499V35.9999C10.5001 36.3978 10.3421 36.7793 10.0608 37.0606C9.7795 37.3419 9.39797 37.4999 9.00014 37.4999C8.60232 37.4999 8.22079 37.3419 7.93948 37.0606C7.65818 36.7793 7.50014 36.3978 7.50014 35.9999ZM13.5001 42.5167V41.9999C13.4997 41.1948 13.2832 40.4046 12.8734 39.7117C12.4635 39.0187 11.8752 38.4484 11.1699 38.0602C11.7015 37.5059 11.9989 36.768 12.0001 35.9999V35.2499C12.0001 34.4543 11.6841 33.6912 11.1215 33.1286C10.5589 32.566 9.79579 32.2499 9.00014 32.2499C8.20449 32.2499 7.44143 32.566 6.87882 33.1286C6.31621 33.6912 6.00014 34.4543 6.00014 35.2499V35.9999C6.0014 36.768 6.29878 37.5059 6.83039 38.0602C6.12506 38.4484 5.53679 39.0187 5.12693 39.7117C4.71706 40.4046 4.50061 41.1948 4.50014 41.9999V42.5167C3.48121 41.6053 2.76301 40.4061 2.44058 39.0776C2.11815 37.7491 2.20669 36.354 2.69448 35.077C3.18227 33.7999 4.04632 32.7011 5.1723 31.9259C6.29827 31.1506 7.6331 30.7355 9.00014 30.7355C10.3672 30.7355 11.702 31.1506 12.828 31.9259C13.954 32.7011 14.818 33.7999 15.3058 35.077C15.7936 36.354 15.8821 37.7491 15.5597 39.0776C15.2373 40.4061 14.5191 41.6053 13.5001 42.5167ZM22.5001 8.99994V8.24994C22.5001 7.85211 22.6582 7.47058 22.9395 7.18928C23.2208 6.90797 23.6023 6.74994 24.0001 6.74994C24.398 6.74994 24.7795 6.90797 25.0608 7.18928C25.3421 7.47058 25.5001 7.85211 25.5001 8.24994V8.99994C25.5001 9.39776 25.3421 9.77929 25.0608 10.0606C24.7795 10.3419 24.398 10.4999 24.0001 10.4999C23.6023 10.4999 23.2208 10.3419 22.9395 10.0606C22.6582 9.77929 22.5001 9.39776 22.5001 8.99994ZM24.0001 11.9999C24.7958 11.9999 25.5589 12.316 26.1215 12.8786C26.6841 13.4412 27.0001 14.2043 27.0001 14.9999V16.5374C26.0694 17.0057 25.042 17.2496 24.0001 17.2496C22.9583 17.2496 21.9309 17.0057 21.0001 16.5374V14.9999C21.0001 14.2043 21.3162 13.4412 21.8788 12.8786C22.4414 12.316 23.2045 11.9999 24.0001 11.9999ZM17.2501 10.4999C17.2477 9.37339 17.5273 8.26416 18.0634 7.27334C18.5995 6.28253 19.3751 5.44166 20.3194 4.82736C21.2638 4.21307 22.3468 3.8449 23.4699 3.75641C24.593 3.66791 25.7203 3.86192 26.7492 4.32073C27.7781 4.77955 28.6758 5.48858 29.3605 6.3832C30.0451 7.27782 30.495 8.32958 30.6691 9.4426C30.8431 10.5556 30.7359 11.6945 30.357 12.7555C29.9782 13.8164 29.3398 14.7657 28.5001 15.5167V14.9999C28.4997 14.1948 28.2832 13.4046 27.8734 12.7117C27.4635 12.0187 26.8752 11.4484 26.1699 11.0602C26.7015 10.5059 26.9989 9.76795 27.0001 8.99994V8.24994C27.0001 7.45429 26.6841 6.69123 26.1215 6.12862C25.5589 5.56601 24.7958 5.24994 24.0001 5.24994C23.2045 5.24994 22.4414 5.56601 21.8788 6.12862C21.3162 6.69123 21.0001 7.45429 21.0001 8.24994V8.99994C21.0014 9.76795 21.2988 10.5059 21.8304 11.0602C21.1251 11.4484 20.5368 12.0187 20.1269 12.7117C19.7171 13.4046 19.5006 14.1948 19.5001 14.9999V15.5167C18.793 14.886 18.227 14.1132 17.8393 13.2486C17.4516 12.3841 17.2508 11.4474 17.2501 10.4999ZM24.0001 29.2499C23.4068 29.2499 22.8268 29.074 22.3334 28.7444C21.8401 28.4147 21.4556 27.9462 21.2285 27.398C21.0014 26.8498 20.942 26.2466 21.0578 25.6647C21.1735 25.0827 21.4593 24.5482 21.8788 24.1286C22.2984 23.7091 22.8329 23.4233 23.4149 23.3076C23.9968 23.1918 24.6 23.2512 25.1482 23.4783C25.6964 23.7054 26.1649 24.0899 26.4945 24.5832C26.8242 25.0766 27.0001 25.6566 27.0001 26.2499C27.0001 27.0456 26.6841 27.8087 26.1215 28.3713C25.5589 28.9339 24.7958 29.2499 24.0001 29.2499ZM36.0001 43.5374V41.9999C36.0001 41.2043 36.3162 40.4412 36.8788 39.8786C37.4414 39.316 38.2045 38.9999 39.0001 38.9999C39.7958 38.9999 40.5589 39.316 41.1215 39.8786C41.6841 40.4412 42.0001 41.2043 42.0001 41.9999V43.5374C41.0694 44.0057 40.042 44.2496 39.0001 44.2496C37.9583 44.2496 36.9309 44.0057 36.0001 43.5374ZM37.5001 35.9999V35.2499C37.5001 34.8521 37.6582 34.4706 37.9395 34.1893C38.2208 33.908 38.6023 33.7499 39.0001 33.7499C39.398 33.7499 39.7795 33.908 40.0608 34.1893C40.3421 34.4706 40.5001 34.8521 40.5001 35.2499V35.9999C40.5001 36.3978 40.3421 36.7793 40.0608 37.0606C39.7795 37.3419 39.398 37.4999 39.0001 37.4999C38.6023 37.4999 38.2208 37.3419 37.9395 37.0606C37.6582 36.7793 37.5001 36.3978 37.5001 35.9999ZM43.5001 42.5167V41.9999C43.4997 41.1948 43.2832 40.4046 42.8734 39.7117C42.4635 39.0187 41.8752 38.4484 41.1699 38.0602C41.7015 37.5059 41.9989 36.768 42.0001 35.9999V35.2499C42.0001 34.4543 41.6841 33.6912 41.1215 33.1286C40.5589 32.566 39.7958 32.2499 39.0001 32.2499C38.2045 32.2499 37.4414 32.566 36.8788 33.1286C36.3162 33.6912 36.0001 34.4543 36.0001 35.2499V35.9999C36.0014 36.768 36.2988 37.5059 36.8304 38.0602C36.1251 38.4484 35.5368 39.0187 35.1269 39.7117C34.7171 40.4046 34.5006 41.1948 34.5001 41.9999V42.5167C33.4812 41.6053 32.763 40.4061 32.4406 39.0776C32.1181 37.7491 32.2067 36.354 32.6945 35.077C33.1823 33.7999 34.0463 32.7011 35.1723 31.9259C36.2983 31.1506 37.6331 30.7355 39.0001 30.7355C40.3672 30.7355 41.702 31.1506 42.828 31.9259C43.954 32.7011 44.818 33.7999 45.3058 35.077C45.7936 36.354 45.8821 37.7491 45.5597 39.0776C45.2373 40.4061 44.5191 41.6053 43.5001 42.5167Z" fill="black"/>
<path d="M37.4751 15.48C37.1324 15.051 36.7649 14.634 36.3824 14.2402L35.3061 15.2842C35.6549 15.6442 35.9909 16.0252 36.3036 16.4167L37.4751 15.48Z" stroke="black" stroke-width="0.3"/>
<path d="M37.9547 18.9398L39.283 18.243C39.0265 17.7547 38.7445 17.2747 38.4452 16.818L37.1905 17.643C37.4635 18.057 37.7207 18.4943 37.9547 18.9398Z" stroke="black" stroke-width="0.3"/>
<path d="M35.1748 13.11C34.7563 12.7545 34.3168 12.4148 33.8675 12.1013L33.0088 13.3298C33.4183 13.617 33.8203 13.9298 34.2028 14.253L35.1748 13.11Z" stroke="black" stroke-width="0.3"/>
<path d="M39.6747 24.69L41.168 24.54C41.114 23.9902 41.033 23.4397 40.9272 22.9027L39.4557 23.1929C39.5502 23.6857 39.6245 24.1882 39.6747 24.69Z" stroke="black" stroke-width="0.3"/>
<path d="M39.0924 21.7319L40.5294 21.3014C40.3726 20.7764 40.1874 20.2514 39.9804 19.7429L38.5906 20.3084C38.7804 20.7749 38.9491 21.2519 39.0924 21.7319Z" stroke="black" stroke-width="0.3"/>
<path d="M39.6841 27.7057L41.1774 27.843C41.2254 27.318 41.2524 26.7817 41.2524 26.193L39.7501 26.25C39.7501 26.736 39.7276 27.225 39.6841 27.7057Z" stroke="black" stroke-width="0.3"/>
<path d="M20.3252 43.107C20.8059 43.2113 21.2964 43.296 21.7839 43.3583L21.9737 41.871C21.5297 41.8133 21.0819 41.736 20.6439 41.6408L20.3252 43.107Z" stroke="black" stroke-width="0.3"/>
<path d="M23.3176 41.9849L23.2523 43.4849C23.5008 43.4949 23.7501 43.4999 24.0001 43.4999C24.2453 43.4999 24.4891 43.4947 24.7328 43.4842L24.6691 41.9842C24.2198 42.0052 23.7653 42.0044 23.3176 41.9849Z" stroke="black" stroke-width="0.3"/>
<path d="M17.4973 42.2325C17.9548 42.4185 18.4236 42.5865 18.8908 42.7305L19.3333 41.2972C18.9081 41.166 18.4806 41.013 18.0628 40.8427L17.4973 42.2325Z" stroke="black" stroke-width="0.3"/>
<path d="M28.6499 41.3017L29.0916 42.7349C29.5611 42.5902 30.0299 42.4222 30.4859 42.2369L29.9249 40.8479C29.5086 41.0167 29.0804 41.1697 28.6499 41.3017Z" stroke="black" stroke-width="0.3"/>
<path d="M26.0161 41.8717L26.2058 43.3597C26.6926 43.2974 27.1808 43.2097 27.6646 43.1092L27.3473 41.6429C26.9078 41.7382 26.4601 41.8154 26.0161 41.8717Z" stroke="black" stroke-width="0.3"/>
<path d="M8.31522 27.6885C8.27172 27.2138 8.24997 26.7293 8.24997 26.25V26.175L6.74997 26.25C6.74997 26.775 6.77397 27.3038 6.82497 27.825L8.31522 27.6885Z" stroke="black" stroke-width="0.3"/>
<path d="M9.4139 20.2965L8.0249 19.7288C7.8179 20.2358 7.63265 20.76 7.4744 21.2865L8.9114 21.7178C9.0554 21.237 9.2249 20.7593 9.4139 20.2965Z" stroke="black" stroke-width="0.3"/>
<path d="M14.9998 13.3244L14.1418 12.0944C13.6918 12.4094 13.25 12.7492 12.833 13.1039L13.7998 14.2499C14.1838 13.9222 14.585 13.6117 14.9998 13.3244Z" stroke="black" stroke-width="0.3"/>
<path d="M8.55019 23.1809L7.07719 22.8899C6.97069 23.4284 6.88968 23.9789 6.83493 24.5249L8.32819 24.6749C8.37694 24.1747 8.45194 23.6722 8.55019 23.1809Z" stroke="black" stroke-width="0.3"/>
<path d="M10.8159 17.6294L9.56189 16.8044C9.26189 17.2642 8.97839 17.7434 8.72339 18.2294L10.0509 18.9277C10.2841 18.4867 10.5414 18.0494 10.8159 17.6294Z" stroke="black" stroke-width="0.3"/>
<path d="M12.7006 15.2782L11.6251 14.2327C11.2433 14.6249 10.8751 15.0419 10.5316 15.4702L11.7016 16.4092C12.0166 16.0169 12.3526 15.6367 12.7006 15.2782Z" stroke="black" stroke-width="0.3"/>
<path d="M39.0001 29.2499C37.847 29.2506 36.7069 29.4938 35.654 29.9639C34.601 30.434 33.6587 31.1204 32.8884 31.9784L27.9961 28.3094C28.3222 27.6811 28.4949 26.9846 28.5002 26.2767C28.5055 25.5689 28.3432 24.8698 28.0267 24.2367C27.7101 23.6035 27.2482 23.0543 26.6787 22.6338C26.1093 22.2134 25.4484 21.9336 24.7501 21.8174V18.7117C26.8644 18.5187 28.8229 17.518 30.2182 15.9179C31.6135 14.3178 32.3382 12.2413 32.2416 10.1205C32.145 7.99961 31.2345 5.99764 29.6995 4.53098C28.1645 3.06431 26.1232 2.24585 24.0001 2.24585C21.8771 2.24585 19.8358 3.06431 18.3008 4.53098C16.7658 5.99764 15.8553 7.99961 15.7587 10.1205C15.6621 12.2413 16.3868 14.3178 17.7821 15.9179C19.1774 17.518 21.1359 18.5187 23.2501 18.7117V21.8174C22.5518 21.9337 21.891 22.2136 21.3215 22.6341C20.7521 23.0547 20.2902 23.604 19.9736 24.2372C19.6571 24.8704 19.4948 25.5694 19.5001 26.2773C19.5054 26.9852 19.6781 27.6818 20.0041 28.3102L15.1126 31.9784C13.6857 30.3976 11.7042 29.4277 9.58042 29.2706C7.45661 29.1136 5.35401 29.7814 3.71004 31.1351C2.06607 32.4888 1.00732 34.4243 0.754062 36.5388C0.500799 38.6533 1.07252 40.784 2.35029 42.4877C3.62805 44.1914 5.51348 45.3369 7.61431 45.6858C9.71514 46.0347 11.8696 45.5602 13.6295 44.3611C15.3894 43.1619 16.6192 41.3304 17.0631 39.2476C17.507 37.1647 17.1307 34.9909 16.0126 33.1784L20.9049 29.5102C21.7382 30.3068 22.8466 30.7513 23.9994 30.7513C25.1522 30.7513 26.2606 30.3068 27.0939 29.5102L31.9861 33.1784C31.0314 34.7329 30.6194 36.5603 30.8147 38.374C31.01 40.1878 31.8016 41.8855 33.0654 43.2012C34.3291 44.5168 35.9937 45.3759 37.7981 45.644C39.6026 45.912 41.445 45.5738 43.0366 44.6824C44.6282 43.7909 45.8791 42.3966 46.5932 40.7179C47.3073 39.0392 47.4443 37.1711 46.9827 35.4062C46.521 33.6413 45.4869 32.0794 44.0423 30.9653C42.5978 29.8513 40.8244 29.248 39.0001 29.2499ZM6.00014 43.5374V41.9999C6.00014 41.2043 6.31621 40.4412 6.87882 39.8786C7.44143 39.316 8.20449 38.9999 9.00014 38.9999C9.79579 38.9999 10.5589 39.316 11.1215 39.8786C11.6841 40.4412 12.0001 41.2043 12.0001 41.9999V43.5374C11.0694 44.0057 10.042 44.2496 9.00014 44.2496C7.95827 44.2496 6.93086 44.0057 6.00014 43.5374ZM7.50014 35.9999V35.2499C7.50014 34.8521 7.65818 34.4706 7.93948 34.1893C8.22079 33.908 8.60232 33.7499 9.00014 33.7499C9.39797 33.7499 9.7795 33.908 10.0608 34.1893C10.3421 34.4706 10.5001 34.8521 10.5001 35.2499V35.9999C10.5001 36.3978 10.3421 36.7793 10.0608 37.0606C9.7795 37.3419 9.39797 37.4999 9.00014 37.4999C8.60232 37.4999 8.22079 37.3419 7.93948 37.0606C7.65818 36.7793 7.50014 36.3978 7.50014 35.9999ZM13.5001 42.5167V41.9999C13.4997 41.1948 13.2832 40.4046 12.8734 39.7117C12.4635 39.0187 11.8752 38.4484 11.1699 38.0602C11.7015 37.5059 11.9989 36.768 12.0001 35.9999V35.2499C12.0001 34.4543 11.6841 33.6912 11.1215 33.1286C10.5589 32.566 9.79579 32.2499 9.00014 32.2499C8.20449 32.2499 7.44143 32.566 6.87882 33.1286C6.31621 33.6912 6.00014 34.4543 6.00014 35.2499V35.9999C6.0014 36.768 6.29878 37.5059 6.83039 38.0602C6.12506 38.4484 5.53679 39.0187 5.12693 39.7117C4.71706 40.4046 4.50061 41.1948 4.50014 41.9999V42.5167C3.48121 41.6053 2.76301 40.4061 2.44058 39.0776C2.11815 37.7491 2.20669 36.354 2.69448 35.077C3.18227 33.7999 4.04632 32.7011 5.1723 31.9259C6.29827 31.1506 7.6331 30.7355 9.00014 30.7355C10.3672 30.7355 11.702 31.1506 12.828 31.9259C13.954 32.7011 14.818 33.7999 15.3058 35.077C15.7936 36.354 15.8821 37.7491 15.5597 39.0776C15.2373 40.4061 14.5191 41.6053 13.5001 42.5167ZM22.5001 8.99994V8.24994C22.5001 7.85211 22.6582 7.47058 22.9395 7.18928C23.2208 6.90797 23.6023 6.74994 24.0001 6.74994C24.398 6.74994 24.7795 6.90797 25.0608 7.18928C25.3421 7.47058 25.5001 7.85211 25.5001 8.24994V8.99994C25.5001 9.39776 25.3421 9.77929 25.0608 10.0606C24.7795 10.3419 24.398 10.4999 24.0001 10.4999C23.6023 10.4999 23.2208 10.3419 22.9395 10.0606C22.6582 9.77929 22.5001 9.39776 22.5001 8.99994ZM24.0001 11.9999C24.7958 11.9999 25.5589 12.316 26.1215 12.8786C26.6841 13.4412 27.0001 14.2043 27.0001 14.9999V16.5374C26.0694 17.0057 25.042 17.2496 24.0001 17.2496C22.9583 17.2496 21.9309 17.0057 21.0001 16.5374V14.9999C21.0001 14.2043 21.3162 13.4412 21.8788 12.8786C22.4414 12.316 23.2045 11.9999 24.0001 11.9999ZM17.2501 10.4999C17.2477 9.37339 17.5273 8.26416 18.0634 7.27334C18.5995 6.28253 19.3751 5.44166 20.3194 4.82736C21.2638 4.21307 22.3468 3.8449 23.4699 3.75641C24.593 3.66791 25.7203 3.86192 26.7492 4.32073C27.7781 4.77955 28.6758 5.48858 29.3605 6.3832C30.0451 7.27782 30.495 8.32958 30.6691 9.4426C30.8431 10.5556 30.7359 11.6945 30.357 12.7555C29.9782 13.8164 29.3398 14.7657 28.5001 15.5167V14.9999C28.4997 14.1948 28.2832 13.4046 27.8734 12.7117C27.4635 12.0187 26.8752 11.4484 26.1699 11.0602C26.7015 10.5059 26.9989 9.76795 27.0001 8.99994V8.24994C27.0001 7.45429 26.6841 6.69123 26.1215 6.12862C25.5589 5.56601 24.7958 5.24994 24.0001 5.24994C23.2045 5.24994 22.4414 5.56601 21.8788 6.12862C21.3162 6.69123 21.0001 7.45429 21.0001 8.24994V8.99994C21.0014 9.76795 21.2988 10.5059 21.8304 11.0602C21.1251 11.4484 20.5368 12.0187 20.1269 12.7117C19.7171 13.4046 19.5006 14.1948 19.5001 14.9999V15.5167C18.793 14.886 18.227 14.1132 17.8393 13.2486C17.4516 12.3841 17.2508 11.4474 17.2501 10.4999ZM24.0001 29.2499C23.4068 29.2499 22.8268 29.074 22.3334 28.7444C21.8401 28.4147 21.4556 27.9462 21.2285 27.398C21.0014 26.8498 20.942 26.2466 21.0578 25.6647C21.1735 25.0827 21.4593 24.5482 21.8788 24.1286C22.2984 23.7091 22.8329 23.4233 23.4149 23.3076C23.9968 23.1918 24.6 23.2512 25.1482 23.4783C25.6964 23.7054 26.1649 24.0899 26.4945 24.5832C26.8242 25.0766 27.0001 25.6566 27.0001 26.2499C27.0001 27.0456 26.6841 27.8087 26.1215 28.3713C25.5589 28.9339 24.7958 29.2499 24.0001 29.2499ZM36.0001 43.5374V41.9999C36.0001 41.2043 36.3162 40.4412 36.8788 39.8786C37.4414 39.316 38.2045 38.9999 39.0001 38.9999C39.7958 38.9999 40.5589 39.316 41.1215 39.8786C41.6841 40.4412 42.0001 41.2043 42.0001 41.9999V43.5374C41.0694 44.0057 40.042 44.2496 39.0001 44.2496C37.9583 44.2496 36.9309 44.0057 36.0001 43.5374ZM37.5001 35.9999V35.2499C37.5001 34.8521 37.6582 34.4706 37.9395 34.1893C38.2208 33.908 38.6023 33.7499 39.0001 33.7499C39.398 33.7499 39.7795 33.908 40.0608 34.1893C40.3421 34.4706 40.5001 34.8521 40.5001 35.2499V35.9999C40.5001 36.3978 40.3421 36.7793 40.0608 37.0606C39.7795 37.3419 39.398 37.4999 39.0001 37.4999C38.6023 37.4999 38.2208 37.3419 37.9395 37.0606C37.6582 36.7793 37.5001 36.3978 37.5001 35.9999ZM43.5001 42.5167V41.9999C43.4997 41.1948 43.2832 40.4046 42.8734 39.7117C42.4635 39.0187 41.8752 38.4484 41.1699 38.0602C41.7015 37.5059 41.9989 36.768 42.0001 35.9999V35.2499C42.0001 34.4543 41.6841 33.6912 41.1215 33.1286C40.5589 32.566 39.7958 32.2499 39.0001 32.2499C38.2045 32.2499 37.4414 32.566 36.8788 33.1286C36.3162 33.6912 36.0001 34.4543 36.0001 35.2499V35.9999C36.0014 36.768 36.2988 37.5059 36.8304 38.0602C36.1251 38.4484 35.5368 39.0187 35.1269 39.7117C34.7171 40.4046 34.5006 41.1948 34.5001 41.9999V42.5167C33.4812 41.6053 32.763 40.4061 32.4406 39.0776C32.1181 37.7491 32.2067 36.354 32.6945 35.077C33.1823 33.7999 34.0463 32.7011 35.1723 31.9259C36.2983 31.1506 37.6331 30.7355 39.0001 30.7355C40.3672 30.7355 41.702 31.1506 42.828 31.9259C43.954 32.7011 44.818 33.7999 45.3058 35.077C45.7936 36.354 45.8821 37.7491 45.5597 39.0776C45.2373 40.4061 44.5191 41.6053 43.5001 42.5167Z" stroke="black" stroke-width="0.3"/>
</svg>
