<svg xmlns="http://www.w3.org/2000/svg" width="48" height="48" fill="none" viewBox="0 0 48 48">
    <path fill="#000" d="M25.638 41.61h-3.9c-.519 0-.938.402-.938.898s.42.898.937.898h3.901c.518 0 .938-.402.938-.898s-.42-.899-.938-.899z"/>
    <path fill="#000" d="M42.438 8.188h-5.626V6.236c1.092-.37 1.876-1.37 1.876-2.54C38.688 2.208 37.425 1 35.874 1H11.5C9.95 1 8.687 2.21 8.687 3.695c0 1.172.784 2.17 1.876 2.541v1.952H4.936c-.517 0-.937.402-.937.898v6.29c0 3.962 3.364 7.187 7.5 7.187h.793c.18.3.372.596.58.885 1.327 1.845 3.118 3.305 5.21 4.257-.013.104-.02.209-.02.316 0 1.258.905 2.318 2.124 2.613-1.126 3.597-3.128 7.382-5.5 7.382h-2.25c-.472 0-.871.337-.93.787l-.937 7.187c-.034.256.05.513.227.706.178.193.434.304.703.304h24.375c.269 0 .525-.11.703-.304.178-.193.26-.45.227-.706l-.937-7.187c-.059-.45-.458-.787-.93-.787h-2.25c-1.436 0-2.648-1.445-3.413-2.656-.982-1.557-1.669-3.391-2.087-4.726 1.22-.295 2.125-1.355 2.125-2.613 0-.107-.008-.212-.02-.316 2.092-.952 3.883-2.412 5.21-4.258.207-.288.4-.584.58-.884h.792c4.136 0 7.5-3.225 7.5-7.188V9.086c0-.496-.42-.898-.938-.898zM5.874 15.375v-5.39h4.688v6.356c0 1.525.288 3.018.843 4.422-3.058-.048-5.531-2.446-5.531-5.388zm28.938 29.828H12.562l.703-5.39H34.11l.703 5.39zm-5.821-7.187H18.383c.456-.479.895-1.052 1.317-1.72 1.198-1.896 1.985-4.13 2.415-5.58h3.145c.43 1.45 1.215 3.68 2.41 5.573.424.671.865 1.246 1.322 1.727zM26.5 28.919h-5.625c-.517 0-.938-.403-.938-.898 0-.496.421-.899.938-.899H26.5c.517 0 .938.403.938.899 0 .495-.421.898-.938.898zm1.964-2.825c-.507-.475-1.2-.769-1.964-.769h-5.625c-.764 0-1.456.294-1.964.769-3.952-1.784-6.474-5.547-6.474-9.753V6.39h7.031c.518 0 .938-.403.938-.899s-.42-.898-.938-.898H11.5c-.517 0-.938-.403-.938-.899 0-.495.421-.898.938-.898h24.375c.517 0 .938.403.938.898 0 .496-.421.899-.938.899h-7.969c-.518 0-.938.402-.938.898s.42.899.938.899h7.032v9.95c0 4.205-2.522 7.97-6.474 9.753zM41.5 15.375c0 2.942-2.473 5.34-5.531 5.389.555-1.405.843-2.898.843-4.423V9.984H41.5v5.391z"/>
    <path fill="#000" d="M28.477 12.715l-2.102-.357-1.044-1.84c-.176-.31-.44-.56-.764-.726-.44-.225-.947-.272-1.425-.133-.478.14-.871.45-1.107.872l-1.003 1.806-2.11.376c-.377.058-.723.223-1 .478-.36.332-.564.78-.573 1.259-.01.479.175.933.523 1.28l1.483 1.473-.272 1.988c-.073.38-.018.763.158 1.111.22.432.601.755 1.074.912.2.066.407.099.613.099.28 0 .56-.061.82-.182l1.918-.895 1.974.901c.33.151.698.205 1.064.157.495-.066.934-.313 1.236-.695.302-.382.43-.854.362-1.33l-.296-2.028 1.45-1.466c.287-.265.474-.604.543-.982.178-.975-.506-1.908-1.522-2.078zm-.365 1.807l-1.777 1.797c-.196.198-.288.471-.248.742l.36 2.454-2.383-1.088c-.257-.117-.557-.116-.813.004l-2.324 1.085c.005-.021.008-.042.011-.064l.335-2.444c.037-.271-.057-.543-.255-.74l-1.798-1.781.032-.005 2.566-.457c.28-.05.522-.22.656-.461l1.211-2.185 1.258 2.218c.136.24.38.408.66.455l2.55.431-.041.04zM23.687 6.39c.518 0 .938-.402.938-.898s-.42-.898-.938-.898c-.517 0-.937.402-.937.898s.42.899.937.899z"/>
</svg>
