<svg xmlns="http://www.w3.org/2000/svg" width="48" height="48" fill="none" viewBox="0 0 48 48">
    <path fill="#000" d="M47.721 20.188c-.221-.221-.54-.318-.847-.256l-8.08 1.626c-.338.068-.612.317-.712.648-.1.33-.01.69.234.934l1.093 1.093-4.29 4.29-3.32-3.321c-.176-.176-.415-.275-.663-.275-.249 0-.487.1-.663.275l-4.075 4.075 1.529-5.492c.371-1.335.103-2.734-.735-3.838-.513-.676-1.191-1.174-1.958-1.46l1.222-3.49c.337.03.674.045 1.006.045 2.707 0 5.346-.954 7.432-2.687l.223-.185c1.1-.914 1.288-2.501.428-3.614-.436-.565-1.065-.919-1.773-.997-.708-.078-1.4.13-1.948.585l-.254.21c-.374.311-.782.58-1.215.797-1.446.73-3.25.405-4.45-.782 1.745-.54 3.016-2.17 3.016-4.09C28.92 1.92 27 0 24.64 0c-2.36 0-4.28 1.92-4.28 4.28 0 .939.305 1.808.82 2.514-.974.21-1.85.712-2.52 1.421-.04.035-.077.072-.111.114-1.653 2.03-3.856 3.486-6.371 4.21-.681.196-1.22.649-1.544 1.222L8.714 11.84c-.841-.841-2.209-.84-3.05 0L3.15 14.354.636 16.87c-.408.407-.632.948-.632 1.524 0 .576.224 1.118.631 1.525l6.929 6.928c.407.407.948.631 1.524.631.576 0 1.118-.224 1.525-.631l2.603-2.604-1.234 3.238c-.185.483.058 1.025.542 1.21.11.041.223.061.334.061.377 0 .733-.23.876-.603l3.074-8.062h6.884c.795 0 1.526.363 2.007.996.481.632.635 1.434.421 2.2l-2.13 7.654c-.095.344-.412.585-.77.585-.32 0-.518-.176-.608-.28-.089-.105-.231-.328-.181-.645l1.133-7.126c.043-.27-.034-.547-.212-.755-.179-.21-.44-.33-.713-.33h-2.223c-.353 0-.677.2-.837.515-.054.108-5.493 10.862-7.326 14.496-.184.364-.582.572-.992.516l-.044-.006c-.279-.038-.521-.198-.665-.44-.144-.243-.169-.532-.069-.795l.578-1.515c.184-.484-.058-1.025-.542-1.21-.483-.184-1.025.058-1.21.542l-.577 1.514c-.306.802-.23 1.684.208 2.421.438.737 1.176 1.226 2.025 1.34l.044.007c.13.017.257.026.384.026 1.062 0 2.049-.593 2.534-1.555 1.6-3.175 5.955-11.784 7.066-13.98h.547l-.96 6.04c-.124.775.098 1.56.606 2.157.328.383.752.66 1.221.81L11.964 43.711c-.175.176-.274.414-.274.663 0 .248.099.487.274.663l2.69 2.688c.182.183.422.275.662.275.24 0 .48-.092.663-.275l5.169-5.169c.366-.366.366-.96 0-1.325-.366-.366-.96-.366-1.326 0l-4.506 4.506-1.363-1.363L31.136 27.19l3.321 3.321c.176.176.414.275.663.275.248 0 .487-.099.663-.275l5.615-5.615c.366-.366.366-.96 0-1.326l-.519-.52 4.982-1.002-1.002 4.983-.772-.772c-.366-.366-.96-.366-1.326 0l-7.641 7.642-3.321-3.321c-.366-.366-.96-.366-1.326 0l-5.348 5.348c-.366.366-.366.96 0 1.326.366.366.96.366 1.326 0l4.685-4.686 3.32 3.321c.367.366.96.366 1.327 0l7.641-7.641 1.346 1.345c.244.245.603.335.934.235.33-.1.58-.374.648-.713l1.626-8.079c.061-.308-.035-.626-.257-.848zM24.641 1.875c1.326 0 2.405 1.079 2.405 2.405 0 1.326-1.08 2.405-2.405 2.405-1.326 0-2.405-1.08-2.405-2.405 0-1.326 1.079-2.405 2.405-2.405zM15.365 18.49l-1.141-1.141c.542-.177 1.074-.38 1.595-.605l-.454 1.746zM12.2 15.239c-.11-.385.112-.787.497-.898 1.54-.444 2.978-1.13 4.273-2.025l-.53 2.035c-1.053.583-2.175 1.048-3.342 1.384-.022.007-.044.012-.067.016-.173.033-.346-.001-.491-.084l-.275-.274c-.027-.048-.05-.1-.065-.154zm-5.21-2.074c.054-.054.126-.082.198-.082.072 0 .144.027.199.082l3.417 3.418c.159.216.348.405.56.56l2.951 2.95c.11.11.11.289 0 .398l-1.852 1.852-2.059-2.06.392-.392c.367-.366.367-.96 0-1.325l-2.11-2.11c-.366-.367-.96-.367-1.326 0l-.392.392-1.83-1.831 1.851-1.852zm1.282 6.599c-.09.09-.194.103-.249.103-.054 0-.159-.013-.248-.103l-.287-.287c-.09-.09-.103-.194-.103-.248 0-.055.013-.16.103-.25l.535-.535.785.785-.536.535zm1.014 5.756c-.068.068-.146.083-.199.083-.053 0-.13-.015-.199-.083l-6.928-6.928c-.068-.068-.082-.146-.082-.199 0-.053.014-.13.082-.198l1.852-1.852L5.73 18.26c-.144.298-.22.627-.22.968 0 .594.232 1.154.652 1.574l.287.287c.42.42.98.652 1.574.652.341 0 .67-.076.968-.22l2.147 2.147-1.852 1.851zm13.39-7.31h-5.302l1.926-7.402c.344-1.324 1.54-2.248 2.908-2.248.844 0 1.626.34 2.2.959 1.761 1.898 4.554 2.435 6.79 1.306.559-.281 1.087-.627 1.57-1.028l.253-.211c.153-.127.346-.185.544-.163.197.022.373.12.495.279.236.305.172.765-.142 1.026l-.223.185c-1.75 1.454-3.963 2.254-6.234 2.254-.493 0-.997-.04-1.497-.117-.448-.07-.88.19-1.03.616l-1.59 4.545h-.668z"/>
    <path fill="#000" d="M23.154 38.322c-.246 0-.488.1-.663.275-.174.174-.274.416-.274.663 0 .247.1.488.274.662.175.175.417.275.663.275.247 0 .488-.1.663-.275.174-.174.274-.415.274-.662 0-.247-.1-.489-.274-.663-.175-.175-.416-.275-.663-.275zM11.52 32.26c.246 0 .488-.1.662-.274.175-.174.275-.416.275-.663 0-.246-.1-.488-.275-.663-.175-.174-.416-.274-.662-.274-.247 0-.489.1-.664.274-.174.175-.274.417-.274.663 0 .247.1.489.274.663.175.174.416.275.664.275z"/>
</svg>
