<svg width="48" height="48" viewBox="0 0 48 48" fill="none" xmlns="http://www.w3.org/2000/svg">
<path d="M46.7975 14.5433C46.1788 13.9246 45.3915 13.5752 44.582 13.4949C44.6479 13.2183 44.6817 12.9317 44.6817 12.6396C44.6817 11.6634 44.3035 10.7477 43.6169 10.0611C43.0058 9.45008 42.2304 9.10165 41.4316 9.01578C41.736 7.81068 41.4179 6.47921 40.4768 5.53825C39.5359 4.5973 38.2044 4.27896 36.9992 4.58362C36.9134 3.78487 36.5649 3.00927 35.954 2.39828C35.2675 1.71164 34.3517 1.3335 33.3755 1.3335C33.3755 1.3335 33.3755 1.3335 33.3755 1.3335C32.3994 1.3335 31.4835 1.71164 30.797 2.39818L29.8934 3.30164C26.9409 2.37428 23.7819 2.05276 20.6962 2.36359C19.8365 1.60487 18.8511 0.93548 17.7439 0.483001C14.5664 -0.815659 13.1134 0.856645 12.7438 1.40014C12.0685 2.39331 12.0144 3.71025 12.5295 4.78122C11.7354 5.19076 10.9631 5.64737 10.2244 6.14615C9.7954 6.4359 9.68254 7.01858 9.97229 7.44762C10.1534 7.71581 10.449 7.86045 10.7499 7.86045C10.9305 7.86045 11.1129 7.80843 11.2738 7.69978C12.0511 7.17475 12.8693 6.70071 13.7116 6.2847C15.1292 7.90901 17.2638 10.9151 16.7192 13.8015C16.3465 15.7766 16.4273 17.683 16.5185 19.5284C16.3982 19.5133 16.2763 19.5049 16.1531 19.5049C15.3831 19.5049 14.6606 19.8034 14.1188 20.3452L2.99361 31.4705C1.10973 25.5141 1.91148 18.833 5.58868 13.3872C5.87842 12.9582 5.76547 12.3755 5.33642 12.0857C4.90738 11.796 4.3247 11.9089 4.03495 12.338C-2.07552 21.3874 -0.898626 33.5674 6.83334 41.2993C11.1544 45.6203 16.8995 48 23.0104 48C29.1212 48 34.8664 45.6203 39.1873 41.2993C44.5252 35.9614 46.8697 28.4005 45.511 20.9869L46.7975 19.7004C48.2193 18.2786 48.2193 15.9651 46.7975 14.5433V14.5433ZM28.3784 4.81703L24.956 8.23934C24.947 8.21994 24.9377 8.19951 24.9279 8.17785C24.7756 7.83964 23.912 5.99551 22.386 4.13123C24.403 4.07358 26.4306 4.30587 28.3784 4.81703ZM15.4445 21.6709C15.6323 21.4832 15.8839 21.3798 16.1532 21.3798C16.4223 21.3798 16.674 21.4832 16.8617 21.6709L28.8096 33.6187L28.8101 33.6192L28.8103 33.6194C29.2007 34.0102 29.2008 34.6458 28.8101 35.0364L25.2597 38.5868L11.8941 25.2213L15.4445 21.6709ZM3.71202 33.4034L10.5684 26.547L23.934 39.9125L18.2589 45.5875C14.464 44.714 10.9805 42.7952 8.15891 39.9736C6.22516 38.0398 4.73903 35.8027 3.71202 33.4034V33.4034ZM37.8615 39.9737C33.8947 43.9406 28.6204 46.1253 23.0103 46.1253C22.1711 46.1253 21.3397 46.0753 20.519 45.979L30.1357 36.3622C31.0126 35.4853 31.2039 34.1787 30.7099 33.1142C31.5433 32.4617 32.5654 31.9534 33.6356 31.4217C35.0432 30.7224 36.4987 29.9992 37.6271 28.8708L43.8633 22.6347C44.6254 29.0129 42.448 35.3872 37.8615 39.9737V39.9737ZM45.4717 18.3747L36.3014 27.545C35.3898 28.4566 34.1326 29.0813 32.8015 29.7426C31.6715 30.3041 30.5109 30.8814 29.5131 31.6708L18.4466 20.6046C18.4321 20.2663 18.4156 19.9314 18.3993 19.6047C18.3064 17.7335 18.2186 15.9662 18.5615 14.1493C19.3508 9.96574 15.9678 5.8984 14.4768 4.34383C13.9953 3.84186 13.9151 3.01189 14.2942 2.45424C14.7529 1.77988 15.7517 1.69402 17.0347 2.21839C20.8576 3.78093 23.1236 8.737 23.2183 8.94726C23.5655 9.71855 23.8541 10.0381 24.4065 10.2625C24.4684 10.2876 24.4997 10.3007 24.5366 10.3222C24.9043 10.5364 25.3705 10.4763 25.6716 10.1752L32.1228 3.72403C32.4553 3.39154 32.9002 3.20846 33.3755 3.20846C33.8509 3.20846 34.2959 3.39163 34.6284 3.72422C35.3192 4.41498 35.3192 5.539 34.6285 6.22986C34.2624 6.59591 34.2624 7.18947 34.6285 7.55552C34.9946 7.92157 35.5882 7.92157 35.9542 7.55552L36.6455 6.86419C37.3363 6.17334 38.4604 6.17334 39.1512 6.86419C39.842 7.55496 39.842 8.67907 39.1513 9.36984L38.4599 10.0612H38.4598C38.0937 10.4272 38.0937 11.0208 38.4598 11.3868C38.8256 11.753 39.4193 11.7531 39.7854 11.3869H39.7855C40.4763 10.6962 41.6004 10.6961 42.2912 11.3869C42.6237 11.7194 42.8068 12.1644 42.8068 12.6397C42.8068 13.1151 42.6237 13.56 42.2912 13.8926L41.6403 14.5434C41.2743 14.9094 41.2743 15.503 41.6403 15.869C42.0065 16.2352 42.5998 16.2352 42.9661 15.869L42.9684 15.8666C43.3007 15.5356 43.7447 15.3533 44.2189 15.3533C44.6943 15.3533 45.1392 15.5365 45.4717 15.869C45.8043 16.2014 45.9874 16.6464 45.9874 17.1218C45.9874 17.5971 45.8043 18.0422 45.4717 18.3747V18.3747Z" fill="black"/>
<path d="M15.3816 25.7739C15.5612 25.9372 15.7867 26.0177 16.0118 26.0177C16.2669 26.0177 16.5211 25.9142 16.706 25.7107C17.0543 25.3276 17.0261 24.7348 16.643 24.3865C16.2598 24.0383 15.6671 24.0664 15.3188 24.4496L15.3183 24.4501C14.9702 24.8331 14.9986 25.4257 15.3816 25.7739V25.7739Z" fill="black"/>
<path d="M7.49602 10.5456C8.01365 10.5456 8.43341 10.1259 8.43341 9.60817C8.43341 9.09045 8.01365 8.67078 7.49602 8.67078H7.49536C6.97774 8.67078 6.55835 9.09045 6.55835 9.60817C6.55835 10.1259 6.97839 10.5456 7.49602 10.5456Z" fill="black"/>
</svg>
