<svg xmlns="http://www.w3.org/2000/svg" width="48" height="48" fill="none" viewBox="0 0 48 48">
    <path fill="#000" d="M36.313 32.757l-6.615 3.397c-.573-.577-1.366-.935-2.241-.935h-4.558c-.203 0-.277-.012-.3-.017-.041-.029-.144-.125-.228-.204l-.043-.041c-3.71-3.494-6.846-3.273-10.411-1.865-.558.22-.569.22-1.122.246H9.791c-.313-.888-1.16-1.526-2.154-1.526H4.284C3.024 31.812 2 32.837 2 34.098v8.796c0 1.26 1.024 2.284 2.284 2.284h3.353c.994 0 1.84-.638 2.154-1.526h1.844c.21.018.413.06.611.128l8.673 2.319c.38.103.729.204 1.066.302 1.12.326 2.061.6 3.043.6 1.11 0 2.27-.35 3.796-1.368l.022-.016 10.694-7.615c1.406-1.003 1.815-2.813.953-4.21-.853-1.38-2.65-1.824-4.18-1.035zM8.124 42.894c0 .264-.223.487-.487.487H4.284c-.264 0-.487-.223-.487-.487v-8.796c0-.265.223-.49.487-.49h3.353c.264 0 .487.225.487.49v8.796zm30.373-6.355l-10.682 7.607c-2.174 1.447-3.1 1.178-5.33.53-.344-.1-.7-.204-1.099-.312l-8.675-2.32c-.35-.108-.708-.17-1.076-.188H9.921v-6.72l.956-.003c.684-.032.896-.053 1.7-.37 3.09-1.22 5.475-1.365 8.52 1.503l.043.04c.524.494.849.71 1.759.71h4.558c.751 0 1.363.611 1.363 1.363 0 .75-.612 1.36-1.363 1.36h-7.39c-.496 0-.898.403-.898.899s.402.898.898.898h7.39c1.742 0 3.16-1.416 3.16-3.157 0-.22-.023-.435-.066-.643l6.584-3.382c.6-.31 1.422-.277 1.829.381.359.583.158 1.358-.467 1.804z"/>
    <path fill="#000" d="M22.68 22.25c-.973.474-1.645 1.472-1.645 2.625 0 1.27.818 2.353 1.956 2.751v1.338c0 1.639 1.331 2.972 2.968 2.972h3.98c1.639 0 2.972-1.333 2.972-2.971v-1.339c1.137-.398 1.956-1.48 1.956-2.751 0-1.153-.672-2.151-1.645-2.625.393-1.462 1.19-2.55 2.03-3.691 1.29-1.756 2.752-3.747 2.75-7.253 0-.313-.014-.634-.04-.954-.039-.495-.47-.863-.966-.825-.495.04-.864.472-.824.967.021.273.032.547.032.813.003 2.917-1.164 4.505-2.4 6.188-.938 1.276-1.903 2.592-2.363 4.462h-6.98c-.46-1.87-1.426-3.186-2.364-4.462-1.236-1.682-2.404-3.27-2.4-6.188.004-3.11 1.336-5.074 2.453-6.174 1.539-1.514 3.646-2.366 5.788-2.336h.026c1.745-.026 3.496.543 4.925 1.6.399.294.961.21 1.256-.189.295-.399.211-.961-.188-1.256C32.217 1.665 30.084.973 27.951 1c-2.614-.032-5.186 1.006-7.061 2.852-1.952 1.923-2.986 4.5-2.99 7.452-.005 3.508 1.459 5.498 2.75 7.254.838 1.142 1.636 2.23 2.03 3.69zm8.434 6.715c0 .647-.527 1.174-1.174 1.174h-3.98c-.647 0-1.172-.527-1.172-1.174V27.79h6.326v1.175zm-7.161-5.211h7.996c.618 0 1.12.503 1.12 1.12 0 .617-.502 1.12-1.12 1.12h-7.996c-.618 0-1.121-.503-1.121-1.12 0-.617.503-1.12 1.12-1.12z"/>
    <path fill="#000" d="M28.85 7.563c0-.496-.403-.899-.9-.899-.495 0-.898.403-.898.899v5.572c0 .496.403.898.899.898s.898-.402.898-.898V7.563zM27.951 16.3c-.496 0-.899.403-.899.9v.004c0 .497.403.896.899.896s.898-.405.898-.9c0-.497-.402-.9-.898-.9zM45.92 11.3h-3.65c-.496 0-.898.402-.898.898s.402.898.898.898h3.65c.495 0 .898-.402.898-.898s-.403-.899-.899-.899zM40.76 5.513c.173 0 .347-.05.5-.153l3.028-2.032c.412-.277.522-.835.246-1.247-.277-.412-.835-.521-1.247-.245l-3.028 2.032c-.412.277-.522.835-.245 1.247.173.258.457.398.747.398zM44.288 21.068l-3.028-2.032c-.412-.277-.97-.167-1.246.245-.277.412-.167.97.245 1.247l3.028 2.032c.153.103.328.152.5.152.289 0 .573-.14.746-.397.277-.412.167-.97-.245-1.247zM9.983 13.096h3.646c.497 0 .899-.402.899-.898s-.402-.899-.899-.899H9.983c-.496 0-.899.403-.899.899s.403.898.899.898zM11.613 3.328l3.028 2.032c.154.104.328.153.5.153.29 0 .573-.14.747-.398.276-.412.167-.97-.245-1.247l-3.028-2.032c-.412-.276-.97-.166-1.247.246-.276.411-.167.97.245 1.246zM14.641 19.036l-3.027 2.032c-.412.277-.522.835-.246 1.247.174.258.458.397.747.397.172 0 .346-.049.5-.152l3.028-2.032c.412-.277.522-.835.245-1.247-.277-.412-.835-.522-1.247-.245zM35.32 7.22c.174.175.404.263.633.263.23 0 .46-.088.636-.264.35-.35.35-.92-.002-1.272-.35-.35-.92-.35-1.27 0-.351.351-.351.92 0 1.27l.002.003z"/>
</svg>
