<svg width="48" height="48" viewBox="0 0 48 48" fill="none" xmlns="http://www.w3.org/2000/svg">
  <path d="M24.7438 5.93979C24.7438 6.43946 24.3387 6.84453 23.839 6.84453C23.3395 6.84453 22.9344 6.43946 22.9343 5.93979V1.90453C22.9343 1.40486 23.3394 0.999794 23.839 0.999794C24.3387 0.999794 24.7438 1.40486 24.7438 1.90453V5.93979Z" fill="black"/>
  <path d="M32.1076 32.5456C31.9766 32.6116 31.8369 32.643 31.6993 32.643C31.3682 32.643 31.0487 32.4616 30.8899 32.1465C30.665 31.7003 30.8417 31.1575 31.2878 30.9325L31.2928 30.93C31.7388 30.7049 32.283 30.8842 32.508 31.3304C32.733 31.7765 32.5538 32.3206 32.1076 32.5456Z" fill="black"/>
  <path fill-rule="evenodd" clip-rule="evenodd" d="M44.3543 30.492L45.9526 32.0858C46.522 32.6544 46.8352 33.4123 46.8353 34.2202C46.8353 35.0282 46.522 35.786 45.9532 36.3541L36.2562 46.0394C35.6876 46.6073 34.9299 46.92 34.1225 46.92C33.3151 46.92 32.5573 46.6072 31.9888 46.0394L30.39 44.4425C29.8212 43.8743 29.5079 43.1169 29.5079 42.3097C29.5079 41.7942 29.6363 41.2993 29.8768 40.8608L26.1644 37.1528C25.3553 37.246 24.5272 37.1886 23.7845 37.137C22.7391 37.0644 21.658 36.9893 21.2699 37.3906L21.259 37.4016L17.8689 40.7875C18.1671 41.2624 18.3275 41.8131 18.3275 42.3898C18.3275 43.1978 18.0142 43.9557 17.4454 44.5239L15.8466 46.1208C15.258 46.7067 14.4851 46.9998 13.7125 46.9998C12.9401 46.9998 12.168 46.7072 11.5801 46.1217L9.58281 44.1242C9.22949 43.7709 9.22949 43.1981 9.58281 42.8448C9.93614 42.4915 10.5089 42.4915 10.8623 42.8448L12.8581 44.8409C13.3288 45.3094 14.0967 45.3094 14.5688 44.8394L16.1665 43.2436C16.3931 43.0173 16.5179 42.7141 16.5179 42.3898C16.5179 42.091 16.4107 41.8109 16.2168 41.5916C16.1248 41.5483 16.0381 41.4894 15.9621 41.4133C15.884 41.3352 15.8242 41.2458 15.7806 41.1508L6.60897 31.9927C6.515 31.9491 6.42651 31.8896 6.34899 31.8118C6.30568 31.7685 6.26786 31.7217 6.23516 31.6726C5.77071 31.3949 5.15911 31.4544 4.75952 31.8535L3.16017 33.4484C2.93414 33.6742 2.80936 33.9773 2.80936 34.3016C2.80936 34.6259 2.93414 34.9292 3.1607 35.1555L5.15659 37.1489C5.5101 37.502 5.51046 38.0749 5.15731 38.4284C4.80425 38.7819 4.23137 38.7822 3.87787 38.4291L1.88198 36.4356C1.31314 35.8674 0.999878 35.1095 0.999878 34.3015C0.999968 33.4936 1.31314 32.7357 1.88198 32.1676L3.48124 30.5728C4.40502 29.6502 5.78428 29.4528 6.90372 29.9798L9.91593 26.9731L9.76976 26.8276C8.54584 25.6015 8.54629 23.612 9.76895 22.3908C10.1135 22.0467 10.5249 21.7932 10.9741 21.641C10.6184 21.1235 10.4264 20.5109 10.4264 19.8679C10.4264 19.0284 10.7525 18.2402 11.3447 17.6487C11.7811 17.2128 12.3254 16.9221 12.9188 16.7997C12.8367 16.5167 12.7936 16.2203 12.7939 15.917C12.7945 15.078 13.1211 14.2912 13.7133 13.7014C14.1484 13.2656 14.6923 12.9743 15.2854 12.8517C15.2038 12.5694 15.1609 12.2739 15.1609 11.9714C15.1609 11.1314 15.4865 10.3437 16.0775 9.75342C16.9684 8.8635 18.266 8.62202 19.3785 9.02754C19.424 8.97463 19.4702 8.9271 19.5154 8.88578C20.233 8.23132 21.3697 8.3455 22.2799 8.51817L28.2481 9.64786C29.1595 9.55119 30.1052 9.84945 30.8022 10.5434C31.6394 11.3821 31.9032 12.5796 31.5945 13.6439C32.1715 13.7641 32.7211 14.0468 33.1681 14.4933C33.76 15.0827 34.0865 15.8706 34.0865 16.7111C34.0865 17.0137 34.0435 17.3092 33.9617 17.5913C34.5554 17.7141 35.1 18.0057 35.5366 18.443C36.1276 19.0315 36.454 19.8195 36.454 20.66C36.454 20.9624 36.411 21.258 36.3293 21.5402C36.923 21.6629 37.4677 21.9545 37.9042 22.3918C39.1257 23.612 39.1261 25.6014 37.9043 26.8257L37.7576 26.9722L40.7694 29.9804C41.2086 29.7398 41.7042 29.6113 42.2205 29.6113C43.028 29.6113 43.7857 29.9241 44.3543 30.492ZM25.8677 11.0389L21.943 10.296C21.2076 10.1565 20.8934 10.1884 20.775 10.2171C20.7746 10.2397 20.7755 10.2693 20.779 10.3063L20.7792 10.3073C20.8279 10.8226 21.3628 11.6486 22.1107 12.3641C22.6571 12.8867 23.1552 13.2125 23.5185 13.3871L25.8677 11.0389ZM19.0444 10.8737C18.5265 10.523 17.8145 10.5758 17.3561 11.0337C17.1074 11.2822 16.9704 11.6152 16.9703 11.9714C16.9703 12.3275 17.1073 12.6605 17.3561 12.9089L21.4362 16.9817C21.6863 17.2323 22.0204 17.3701 22.3774 17.3701C22.7342 17.3701 23.0677 17.2328 23.3167 16.9834C23.5663 16.734 23.7033 16.401 23.7033 16.0448C23.7033 15.7683 23.6199 15.5062 23.4665 15.2864C22.333 15.0104 21.2099 14.0063 20.8599 13.6714C20.3877 13.2196 19.3379 12.1042 19.0444 10.8737ZM15.9304 14.595C15.5742 14.595 15.241 14.7324 14.992 14.9817C14.741 15.2316 14.6038 15.5636 14.6034 15.9183C14.6031 16.2743 14.7408 16.6079 14.991 16.8578L15.7708 17.6372L15.7778 17.6439L15.7828 17.6487L18.2753 20.1406C18.5246 20.3888 18.8594 20.5262 19.2168 20.5262C19.5743 20.5262 19.909 20.3889 20.1593 20.1396C20.6749 19.6233 20.6749 18.7801 20.1575 18.2619L16.872 14.983C16.6215 14.7327 16.2872 14.595 15.9304 14.595ZM13.5638 18.5432C13.2064 18.5432 12.8725 18.6802 12.6234 18.9289C12.3736 19.1785 12.2359 19.512 12.2359 19.8677C12.2359 20.2234 12.3736 20.5569 12.6235 20.8066L15.1158 23.2959C15.3652 23.5442 15.6998 23.6816 16.0571 23.6816C16.4139 23.6816 16.7474 23.5446 16.9964 23.2959C17.2467 23.0466 17.3841 22.714 17.3841 22.3583C17.3841 22.0026 17.2467 21.6699 16.9974 21.4216L14.4973 18.9226C14.2493 18.6782 13.9182 18.5432 13.5638 18.5432ZM11.9892 23.2834C11.6322 23.2834 11.2979 23.4211 11.0477 23.671C10.5308 24.1873 10.5312 25.029 11.0486 25.5474L11.8326 26.3283L11.8378 26.333C11.8392 26.3345 11.8404 26.3361 11.8419 26.3376L11.9556 26.4508C12.2063 26.702 12.5399 26.8392 12.8968 26.8392C13.2536 26.8392 13.5872 26.7019 13.8361 26.4526C14.0873 26.2023 14.2246 25.8697 14.2246 25.514C14.2246 25.1582 14.0874 24.8256 13.838 24.5773L12.9304 23.6707C12.6803 23.421 12.346 23.2834 11.9892 23.2834ZM28.2056 33.9526C28.5591 33.5996 29.1319 33.5999 29.4851 33.9534C29.8382 34.307 29.8379 34.8798 29.4842 35.2328L28.6797 36.0363C28.4928 36.2232 28.2936 36.3806 28.0854 36.5145L31.0711 39.4965L39.4038 31.1739L36.4772 28.2507L35.8666 28.8606C35.69 29.037 35.4586 29.1252 35.2272 29.1252C34.9955 29.1252 34.7638 29.0367 34.5871 28.8598C34.234 28.5063 34.2344 27.9334 34.5879 27.5803L35.8362 26.3335L35.837 26.3326L35.8379 26.3318L36.6245 25.5461C37.1408 25.0289 37.1413 24.1871 36.6245 23.6708C36.3746 23.4205 36.0411 23.2833 35.6841 23.2833C35.3273 23.2833 34.9937 23.4205 34.7448 23.6699C34.7424 23.6723 34.7399 23.6745 34.7374 23.6767L34.7312 23.6822L33.9577 24.4561C33.781 24.6328 33.5494 24.7212 33.3179 24.7212C33.0863 24.7212 32.8549 24.633 32.6782 24.4563C32.3249 24.1031 32.3248 23.5303 32.678 23.1769L34.2565 21.5978C34.5073 21.3481 34.6446 21.0154 34.6446 20.6598C34.6446 20.304 34.5073 19.9714 34.2579 19.723C34.0072 19.4718 33.6735 19.3345 33.3166 19.3345C32.9598 19.3345 32.6262 19.4718 32.3773 19.7212L31.4665 20.6283C31.1125 20.9808 30.5397 20.9797 30.1871 20.6256C29.8345 20.2717 29.8356 19.6988 30.1897 19.3462L31.0963 18.4433L31.8883 17.6496C32.1397 17.3993 32.277 17.0666 32.277 16.7109C32.277 16.3552 32.1397 16.0225 31.8903 15.7742C31.372 15.2567 30.5315 15.2556 30.0127 15.7696L29.8932 15.8887L29.1023 16.6785C28.7489 17.0316 28.1761 17.0313 27.8229 16.6777C27.4697 16.3242 27.4701 15.7513 27.8237 15.3983L28.7304 14.4931L28.7384 14.4855L29.5256 13.7015C30.0411 13.1852 30.0411 12.342 29.5237 11.8237C29.2183 11.5195 28.7988 11.3962 28.3994 11.4513C28.3731 11.4565 28.3465 11.4608 28.3196 11.4637C28.0706 11.5134 27.8331 11.6338 27.6405 11.8256L25.0556 14.4093C25.3534 14.8958 25.5132 15.4574 25.5132 16.0448C25.5132 16.8848 25.1876 17.6725 24.5966 18.2628C24.0068 18.8536 23.2185 19.1795 22.3777 19.1796L22.3642 19.1793L22.3535 19.179C22.3593 19.99 22.0545 20.8026 21.4382 21.4199C20.8446 22.0111 20.0563 22.3357 19.217 22.3357L19.1932 22.3351L19.1937 22.3585C19.1937 23.1989 18.8672 23.9869 18.2744 24.5774C17.6847 25.1663 16.8969 25.4913 16.0573 25.4913L16.0443 25.491L16.0338 25.4907L16.0344 25.5141C16.0344 26.3546 15.7078 27.1425 15.115 27.7329C14.5261 28.3229 13.7377 28.6488 12.897 28.6488C12.3084 28.6488 11.746 28.4886 11.2585 28.1898L8.30939 31.1337L16.6428 39.4549L19.9753 36.1265C20.9492 35.1266 22.4543 35.231 23.9097 35.3322C25.2497 35.4251 26.636 35.5213 27.4007 34.7566L28.2056 33.9526ZM34.9774 44.7591L44.6744 35.0739C44.901 34.8477 45.0257 34.5445 45.0258 34.2201C45.0258 33.8958 44.901 33.5927 44.6745 33.3664L43.0762 31.7726C42.8487 31.5454 42.5451 31.4206 42.2206 31.4206C41.896 31.4206 41.5925 31.5454 41.3655 31.7721L31.6686 41.4573C31.442 41.6836 31.3172 41.9863 31.3172 42.3097C31.3172 42.6332 31.442 42.936 31.6686 43.1622L33.2674 44.759C33.4943 44.9857 33.7979 45.1105 34.1224 45.1105C34.4469 45.1105 34.7506 44.9857 34.9774 44.7591Z" fill="black"/>
  <path d="M11.8259 6.08503C12.0025 6.26129 12.2338 6.34933 12.465 6.34933C12.6968 6.34933 12.9286 6.26075 13.1053 6.08369C13.4583 5.73 13.4578 5.15721 13.1041 4.80424L9.80728 1.514C9.45369 1.16103 8.8808 1.16148 8.52784 1.51525C8.17487 1.86894 8.17541 2.44173 8.52909 2.7947L11.8259 6.08503Z" fill="black"/>
  <path d="M35.8526 6.08473C35.676 6.26108 35.4446 6.3493 35.2133 6.3493C34.9816 6.3493 34.7499 6.2609 34.5732 6.08401C34.2201 5.73051 34.2204 5.15762 34.5739 4.80457L37.8682 1.51423C38.2218 1.16109 38.7946 1.16145 39.1477 1.51495C39.5008 1.86845 39.5004 2.44134 39.1469 2.79439L35.8526 6.08473Z" fill="black"/>
  <path d="M6.56609 39.9157C6.21582 40.272 6.22067 40.8449 6.57705 41.1952L6.57966 41.1977C6.75546 41.3706 6.98374 41.4566 7.21192 41.4566C7.44612 41.4566 7.68033 41.366 7.85775 41.1855C8.20802 40.8292 8.20182 40.2551 7.84553 39.9048C7.48933 39.5545 6.91654 39.5595 6.56609 39.9157Z" fill="black"/>
</svg>
