<svg xmlns="http://www.w3.org/2000/svg" width="48" height="48" fill="none" viewBox="0 0 48 48">
    <path fill="#000" stroke="#000" stroke-width=".3" d="M36.803 11.197C33.383 7.777 28.837 5.894 24 5.894c-4.836 0-9.383 1.883-12.803 5.303-7.06 7.06-7.06 18.547 0 25.606 3.42 3.42 7.967 5.303 12.803 5.303 4.837 0 9.383-1.883 12.803-5.303 7.06-7.06 7.06-18.546 0-25.606zm-.927 24.68c-3.172 3.172-7.39 4.919-11.876 4.919s-8.704-1.747-11.876-4.92c-6.549-6.548-6.549-17.204 0-23.752 3.172-3.173 7.39-4.92 11.876-4.92s8.704 1.747 11.876 4.92c6.549 6.548 6.549 17.204 0 23.752z"/>
    <path fill="#000" stroke="#000" stroke-width=".3" d="M38.436 6.093c-.282-.227-.695-.183-.922.099-.227.281-.183.694.098.921C42.745 11.257 45.69 17.411 45.69 24c0 5.793-2.256 11.24-6.352 15.337-4.097 4.096-9.544 6.352-15.337 6.352-3.632 0-7.225-.915-10.391-2.646-.318-.174-.716-.057-.89.26-.173.318-.057.716.26.89C16.34 46.029 20.15 47 24 47c6.143 0 11.92-2.392 16.264-6.737C44.608 35.92 47 30.143 47 24c0-6.987-3.122-13.513-8.564-17.907zM34.865 3.723C31.547 1.942 27.79 1 24 1 17.857 1 12.08 3.392 7.737 7.737 3.392 12.08 1 17.857 1 24c0 6.913 3.068 13.396 8.417 17.787.122.1.27.149.416.149.19 0 .377-.082.507-.24.23-.28.189-.692-.09-.922C5.203 36.634 2.31 30.519 2.31 24c0-5.793 2.257-11.24 6.353-15.337C12.76 4.567 18.207 2.311 24 2.311c3.574 0 7.117.887 10.245 2.567.319.171.716.051.887-.268.171-.319.052-.716-.267-.887z"/>
    <path fill="#000" stroke="#000" stroke-width=".3" d="M24 2.94c-.362 0-.655.293-.655.655v1.052c0 .362.293.655.655.655.362 0 .655-.293.655-.655V3.595c0-.362-.293-.656-.655-.656zM24 42.698c-.362 0-.655.293-.655.655v1.052c0 .362.293.656.655.656.362 0 .655-.294.655-.656v-1.052c0-.362-.293-.655-.655-.655zM44.405 23.345h-1.052c-.362 0-.655.293-.655.655 0 .362.293.655.655.655h1.052c.362 0 .656-.293.656-.655 0-.362-.294-.655-.656-.655zM4.647 23.345H3.595c-.362 0-.656.293-.656.655 0 .362.294.655.656.655h1.052c.362 0 .655-.293.655-.655 0-.362-.293-.655-.655-.655zM38.892 9.108c-.256-.256-.67-.256-.927 0l-.744.744c-.255.256-.255.67 0 .927.128.127.296.191.464.191.168 0 .335-.064.463-.191l.744-.744c.256-.256.256-.671 0-.927zM10.778 37.221c-.255-.256-.67-.256-.926 0l-.744.744c-.256.256-.256.671 0 .927.128.128.296.192.463.192.168 0 .336-.064.464-.192l.743-.744c.256-.256.256-.67 0-.927zM38.892 37.965l-.744-.744c-.256-.256-.67-.256-.927 0-.255.256-.255.671 0 .927l.744.744c.128.128.296.192.464.192.167 0 .335-.064.463-.192.256-.256.256-.67 0-.927zM10.778 9.852l-.743-.744c-.256-.256-.671-.256-.927 0s-.256.67 0 .927l.744.744c.128.128.295.191.463.191.168 0 .336-.063.463-.191.256-.256.256-.671 0-.927zM32.46 4.714c-.33-.146-.717.005-.863.337l-.422.963c-.146.331.005.718.337.863.085.038.175.056.263.056.252 0 .492-.147.6-.393l.423-.963c.145-.331-.006-.718-.337-.863zM16.488 41.123c-.331-.145-.718.005-.863.337l-.423.963c-.145.331.005.718.337.863.086.038.175.056.263.056.252 0 .493-.147.6-.392l.423-.964c.146-.331-.005-.718-.337-.863zM42.95 31.598l-.964-.423c-.331-.145-.718.005-.863.337-.146.331.005.718.337.863l.963.423c.085.038.175.055.263.055.252 0 .493-.146.6-.392.146-.331-.005-.718-.336-.863zM6.54 15.625l-.963-.423c-.331-.145-.718.005-.863.337-.146.331.005.718.336.863l.964.423c.086.038.175.056.263.056.252 0 .492-.147.6-.393.146-.331-.005-.718-.337-.863zM43.62 16.345c-.131-.337-.511-.503-.848-.372l-.98.382c-.338.132-.504.512-.373.849.101.259.349.417.61.417.08 0 .16-.014.239-.045l.98-.382c.337-.132.504-.512.372-.849zM6.58 30.796c-.13-.337-.51-.504-.848-.372l-.98.382c-.337.131-.504.511-.372.849.1.259.348.417.61.417.08 0 .16-.015.238-.045l.98-.382c.338-.132.504-.512.373-.85zM32.027 42.772l-.382-.98c-.132-.338-.512-.504-.85-.373-.336.132-.503.512-.372.85l.383.98c.1.258.348.417.61.417.08 0 .16-.015.239-.045.337-.132.504-.512.372-.85zM17.576 5.732l-.382-.98c-.131-.337-.511-.504-.849-.373-.337.132-.504.512-.372.85l.382.98c.101.258.349.417.611.417.08 0 .16-.015.238-.045.337-.132.504-.512.372-.85zM23.152 14.596c-.165-.128-.38-.172-.582-.12-1.9.494-2.947 1.703-2.947 3.405 0 .933.292 1.729.868 2.363.454.5 1.064.9 1.978 1.301.087.038.179.057.27.057.13 0 .258-.037.37-.11.19-.125.304-.337.304-.564v-5.8c0-.208-.096-.405-.261-.532zm-1.087 5.219c-.783-.513-1.094-1.093-1.094-1.934 0-.326 0-1.204 1.095-1.783v3.717zM25.794 25.304c-.208-.095-.45-.077-.643.047-.192.124-.309.337-.309.566v7.176c0 .205.094.399.254.527.12.096.27.147.42.147.05 0 .1-.006.15-.018 2.152-.493 3.337-1.93 3.337-4.047 0-2.609-1.715-3.72-3.209-4.398zm.396 6.857v-5.123c.906.583 1.465 1.355 1.465 2.664 0 1.191-.481 2.002-1.465 2.459z"/>
    <path fill="#000" stroke="#000" stroke-width=".3" d="M30.25 23.799c-1.15-1.07-2.611-1.748-4.06-2.303v-5.839c.921.165 1.548.48 2.072.741.486.243.905.453 1.388.453 1.419 0 2.204-1.57 2.204-2.656 0-.743-.415-1.779-2.392-2.492-.914-.33-2.082-.559-3.279-.648-.085-1.06-.974-1.897-2.055-1.897-1.138 0-2.063.925-2.063 2.062v.078c-3.77.82-5.919 3.32-5.919 6.93 0 4.595 3.52 6.15 5.92 7.04v7.006c-1.14-.358-1.876-.984-2.49-1.505-.593-.505-1.106-.941-1.782-.941-1.26 0-2.274 1.453-2.274 2.656 0 1.935 2.605 4.193 6.547 4.681.047 1.096.954 1.973 2.06 1.973 1.138 0 2.063-.925 2.063-2.063v-.03c1.797-.356 3.298-1.142 4.365-2.29 1.277-1.374 1.924-3.203 1.924-5.435 0-2.32-.729-4.126-2.229-5.521zm-4.829 12.01c-.332.047-.579.332-.579.667v.6c0 .393-.32.714-.714.714-.394 0-.715-.32-.715-.715v-.52c0-.353-.272-.647-.624-.672-1.682-.124-3.25-.63-4.417-1.425-.913-.622-1.504-1.397-1.504-1.974 0-.563.528-1.308.926-1.308.18 0 .552.315.91.62.823.7 1.95 1.657 3.921 1.996.196.034.397-.021.549-.15.151-.127.24-.316.24-.514v-8.332c0-.283-.178-.536-.445-.633-2.885-1.05-5.475-2.293-5.475-5.935 0-1.69.537-3.046 1.597-4.03.902-.84 2.202-1.42 3.759-1.678.325-.054.563-.336.563-.665v-.635c0-.394.32-.714.715-.714.394 0 .714.32.714.714v.473c0 .364.289.662.652.674 2.717.087 5.012.925 5.012 1.828 0 .4-.323 1.308-.856 1.308-.164 0-.452-.144-.785-.31-.716-.359-1.698-.85-3.298-.971-.187-.014-.371.05-.509.178-.137.127-.216.306-.216.494v7.069c0 .282.176.534.441.632 1.358.5 2.902 1.124 4.05 2.19 1.21 1.127 1.799 2.61 1.799 4.535 0 3.66-2.028 5.964-5.71 6.489z"/>
</svg>
