<svg xmlns="http://www.w3.org/2000/svg" width="48" height="48" fill="none" viewBox="0 0 48 48">
    <path fill="#000" stroke="#000" stroke-width=".3" d="M38.317 12.72c-.119-.202-.353-.333-.581-.333H6.92c-.227.003-.453.131-.57.327l-.002.003-1.812 3.054c-.19.32-.084.732.235.922.32.19.733.084.922-.236l1.336-2.25 6.208 7.178H2.84l1.32-2.258c.187-.32.079-.733-.242-.92-.32-.188-.733-.08-.92.241l-1.28 2.188-.532.912c-.174.298-.294.62-.04.933l.01.013L21.818 46.73c.257.3.765.304 1.024 0l8.937-10.482.288-.327c.246-.279.219-.704-.06-.95-.28-.245-.704-.218-.95.061l-.291.331-.007.008-6.794 7.968 6.482-20.608h11.09l-8.485 9.95c-.24.283-.207.708.076.949.282.24.707.207.948-.076l9.43-11.059.007-.01c.077-.093.126-.198.146-.307.029-.152.001-.312-.084-.459l-5.26-8.998v0zm-29.92 1.013H20.88l-6.176 7.29-6.305-7.29zm13.934.368l6.171 7.284H16.16l6.171-7.284zM3.125 22.73h11.09l6.482 20.607L3.125 22.73zM22.331 44.05l-6.706-21.32h13.412l-6.706 21.32zm7.629-23.027l-6.177-7.29h12.481l-6.304 7.29zm1.466.362l6.204-7.174 4.192 7.174H31.426zM32.21 6.753c1.194.875 1.896 2.099 2.275 2.971.197.453.643.745 1.137.745s.94-.292 1.137-.745c.38-.872 1.082-2.096 2.276-2.971.315-.231.503-.604.503-.996 0-.393-.188-.765-.503-.996-1.194-.875-1.897-2.099-2.276-2.971-.197-.453-.643-.745-1.137-.745s-.94.292-1.137.745c-.379.872-1.081 2.096-2.276 2.971-.314.231-.502.603-.502.996 0 .392.188.765.503.996zm3.412-4.21c.451.973 1.23 2.243 2.498 3.214-1.267.97-2.047 2.24-2.498 3.214-.45-.974-1.23-2.244-2.497-3.214 1.267-.97 2.046-2.24 2.497-3.215v0zM46.535 10.379c-.978-.717-1.555-1.722-1.866-2.439-.182-.419-.595-.69-1.052-.69 0 0 0 0 0 0-.457 0-.87.271-1.051.69-.312.717-.888 1.722-1.867 2.439-.29.213-.465.558-.465.92 0 .364.174.708.466.922.978.717 1.554 1.722 1.866 2.439.182.418.594.689 1.051.689.457 0 .87-.27 1.052-.69.311-.716.888-1.721 1.866-2.438.291-.214.465-.558.465-.921s-.174-.708-.465-.921v0zm-2.918 3.352c-.379-.762-.984-1.688-1.908-2.431.924-.743 1.529-1.669 1.908-2.431.379.762.984 1.688 1.909 2.43-.925.744-1.53 1.67-1.909 2.432v0z"/>
</svg>
