<svg width="40" height="40" viewBox="0 0 40 40" fill="none" xmlns="http://www.w3.org/2000/svg">
<path d="M19.5312 27.4219H20.4688C24.992 27.4219 28.6719 23.742 28.6719 19.2188V8.28125C28.6719 3.71492 24.992 0 20.4688 0H19.5312C15.013 0 11.3362 3.70687 11.3281 8.26625V19.2188C11.3281 23.742 15.008 27.4219 19.5312 27.4219ZM19.5312 2.34375H20.4688C23.4647 2.34375 25.9412 4.63453 26.2856 7.57812H24.375C23.7278 7.57812 23.2031 8.10281 23.2031 8.75C23.2031 9.39719 23.7278 9.92188 24.375 9.92188H26.3281V12.5781H23.125C22.4778 12.5781 21.9531 13.1028 21.9531 13.75C21.9531 14.3972 22.4778 14.9219 23.125 14.9219H26.3281V17.5781H24.375C23.7278 17.5781 23.2031 18.1028 23.2031 18.75C23.2031 19.3972 23.7278 19.9219 24.375 19.9219H26.2845C25.9358 22.8223 23.4616 25.0781 20.4688 25.0781H19.5312C16.5385 25.0781 14.0642 22.8223 13.7155 19.9219H15.625C16.2722 19.9219 16.7969 19.3972 16.7969 18.75C16.7969 18.1028 16.2722 17.5781 15.625 17.5781H13.6719V14.9219H16.875C17.5222 14.9219 18.0469 14.3972 18.0469 13.75C18.0469 13.1028 17.5222 12.5781 16.875 12.5781H13.6719V9.92188H15.625C16.2722 9.92188 16.7969 9.39719 16.7969 8.75C16.7969 8.10281 16.2722 7.57812 15.625 7.57812H13.7144C14.0588 4.63453 16.5353 2.34375 19.5312 2.34375Z" fill="black"/>
<path d="M33.6719 18.75C33.6719 18.1028 33.1472 17.5781 32.5 17.5781C31.8528 17.5781 31.3281 18.1028 31.3281 18.75C31.3281 24.9963 26.2463 30.0781 20 30.0781C13.7537 30.0781 8.67188 24.9963 8.67188 18.75C8.67188 18.1028 8.14719 17.5781 7.5 17.5781C6.85281 17.5781 6.32812 18.1028 6.32812 18.75C6.32812 25.8939 11.836 31.7747 18.8281 32.3711V37.6562H12.5C11.8528 37.6562 11.3281 38.1809 11.3281 38.8281C11.3281 39.4753 11.8528 40 12.5 40H27.5C28.1472 40 28.6719 39.4753 28.6719 38.8281C28.6719 38.1809 28.1472 37.6562 27.5 37.6562H21.1719V32.3711C28.164 31.7747 33.6719 25.8939 33.6719 18.75Z" fill="black"/>
</svg>
