<svg width="48" height="48" viewBox="0 0 48 48" fill="none" xmlns="http://www.w3.org/2000/svg">
<path d="M27.7647 9.7336C28.8887 8.7088 29.5999 7.2376 29.5999 5.6C29.5999 2.5128 27.0879 0 23.9999 0C20.9119 0 18.3999 2.5128 18.3999 5.6C18.3999 7.2376 19.1111 8.7088 20.2351 9.7336C16.9159 10.3736 14.3999 13.2968 14.3999 16.8V20C14.3999 20.4424 14.7583 20.8 15.1999 20.8H32.7999C33.2415 20.8 33.5999 20.4424 33.5999 20V16.8C33.5999 13.2968 31.0839 10.3736 27.7647 9.7336ZM19.9999 5.6C19.9999 3.3944 21.7943 1.6 23.9999 1.6C26.2055 1.6 27.9999 3.3944 27.9999 5.6C27.9999 7.8056 26.2055 9.6 23.9999 9.6C21.7943 9.6 19.9999 7.8056 19.9999 5.6ZM31.9999 19.2H15.9999V16.8C15.9999 13.7128 18.5119 11.2 21.5999 11.2H26.3999C29.4879 11.2 31.9999 13.7128 31.9999 16.8V19.2Z" fill="black"/>
<path d="M13.3648 36.9335C14.4888 35.9087 15.2 34.4376 15.2 32.8C15.2 29.7128 12.688 27.2 9.6 27.2C6.512 27.2 4 29.7128 4 32.8C4 34.4376 4.7112 35.9087 5.8352 36.9335C2.516 37.5735 0 40.4967 0 43.9999V47.1999C0 47.6423 0.3584 47.9999 0.8 47.9999H18.4C18.8416 47.9999 19.2 47.6423 19.2 47.1999V43.9999C19.2 40.4967 16.684 37.5735 13.3648 36.9335ZM5.6 32.8C5.6 30.5944 7.3944 28.8 9.6 28.8C11.8056 28.8 13.6 30.5944 13.6 32.8C13.6 35.0056 11.8056 36.7999 9.6 36.7999C7.3944 36.7999 5.6 35.0056 5.6 32.8ZM17.6 46.3999H1.6V43.9999C1.6 40.9127 4.112 38.3999 7.2 38.3999H12C15.088 38.3999 17.6 40.9127 17.6 43.9999V46.3999Z" fill="black"/>
<path d="M42.1646 36.9335C43.2886 35.9087 43.9998 34.4376 43.9998 32.8C43.9998 29.7128 41.4878 27.2 38.3998 27.2C35.3118 27.2 32.7998 29.7128 32.7998 32.8C32.7998 34.4376 33.511 35.9087 34.635 36.9335C31.3158 37.5735 28.7998 40.4967 28.7998 43.9999V47.1999C28.7998 47.6423 29.1582 47.9999 29.5998 47.9999H47.1998C47.6414 47.9999 47.9998 47.6423 47.9998 47.1999V43.9999C47.9998 40.4967 45.4838 37.5735 42.1646 36.9335ZM34.3998 32.8C34.3998 30.5944 36.1942 28.8 38.3998 28.8C40.6054 28.8 42.3998 30.5944 42.3998 32.8C42.3998 35.0056 40.6054 36.7999 38.3998 36.7999C36.1942 36.7999 34.3998 35.0056 34.3998 32.8ZM46.3998 46.3999H30.3998V43.9999C30.3998 40.9127 32.9118 38.3999 35.9998 38.3999H40.7998C43.8878 38.3999 46.3998 40.9127 46.3998 43.9999V46.3999Z" fill="black"/>
<path d="M4.8152 25.5745L3.2168 25.6369C3.2384 26.1881 3.2824 26.7465 3.348 27.2953L4.9368 27.1049C4.876 26.5985 4.8352 26.0833 4.8152 25.5745Z" fill="black"/>
<path d="M3.3472 22.3176C3.2824 22.8632 3.2376 23.4208 3.2168 23.9752L4.8152 24.0376C4.8352 23.5256 4.876 23.0112 4.936 22.5064L3.3472 22.3176Z" fill="black"/>
<path d="M11.3913 8.25439C10.9537 8.58799 10.5225 8.94479 10.1089 9.31599L11.1785 10.5064C11.5593 10.164 11.9569 9.83439 12.3609 9.52719L11.3913 8.25439Z" fill="black"/>
<path d="M5.17388 15.944C4.93868 16.444 4.72108 16.9592 4.52588 17.4784L6.02348 18.0408C6.20347 17.5624 6.40427 17.0872 6.62107 16.6272L5.17388 15.944Z" fill="black"/>
<path d="M4.00249 19.0585C3.85049 19.5873 3.71849 20.1321 3.60889 20.6745L5.17769 20.9905C5.27849 20.4905 5.40009 19.9881 5.54089 19.4993L4.00249 19.0585Z" fill="black"/>
<path d="M8.9176 10.4775C8.5344 10.8807 8.1664 11.3007 7.8208 11.7271L9.0648 12.7335C9.3832 12.3399 9.724 11.9511 10.0776 11.5791L8.9176 10.4775Z" fill="black"/>
<path d="M14.1862 6.45679C13.7022 6.71519 13.2198 6.99919 12.751 7.30079L13.6182 8.64639C14.0502 8.36719 14.495 8.10559 14.9398 7.86799L14.1862 6.45679Z" fill="black"/>
<path d="M6.82719 13.0601C6.51438 13.5169 6.21678 13.9905 5.94238 14.4697L7.33039 15.2649C7.58319 14.8233 7.85839 14.3857 8.14719 13.9649L6.82719 13.0601Z" fill="black"/>
<path d="M20.2096 43.6256L19.8936 45.1944C20.432 45.3032 20.9856 45.3904 21.5384 45.4552L21.724 43.8664C21.216 43.8064 20.7056 43.7256 20.2096 43.6256Z" fill="black"/>
<path d="M27.8405 43.616C27.3437 43.7168 26.8341 43.7992 26.3237 43.8616L26.5165 45.4504C27.0685 45.3832 27.6205 45.2936 28.1581 45.1848L27.8405 43.616Z" fill="black"/>
<path d="M24.794 43.984C24.2828 44.004 23.766 44.0064 23.258 43.9864L23.1948 45.5848C23.4612 45.596 23.73 45.6008 24.002 45.6008C24.2884 45.5992 24.574 45.5936 24.858 45.5824L24.794 43.984Z" fill="black"/>
<path d="M37.8945 9.32239L36.8257 10.5128C37.2065 10.8552 37.5761 11.2152 37.9257 11.5832L39.0873 10.4832C38.7081 10.0832 38.3073 9.69279 37.8945 9.32239Z" fill="black"/>
<path d="M40.1825 11.7319L38.9385 12.7383C39.2577 13.1327 39.5665 13.5479 39.8561 13.9703L41.1753 13.0655C40.8617 12.6087 40.5281 12.1599 40.1825 11.7319Z" fill="black"/>
<path d="M44.7835 23.9775L43.1851 24.0399C43.1955 24.2919 43.2003 24.5463 43.2003 24.7999C43.2003 25.0599 43.1955 25.3183 43.1851 25.5767L44.7835 25.6391C44.7947 25.3607 44.8003 25.0807 44.8003 24.7983C44.8003 24.5239 44.7947 24.2495 44.7835 23.9775Z" fill="black"/>
<path d="M42.0607 14.4736L40.6719 15.2696C40.9255 15.712 41.1639 16.1704 41.3815 16.6312L42.8287 15.948C42.5935 15.4488 42.3351 14.9528 42.0607 14.4736Z" fill="black"/>
<path d="M43.4761 17.4816L41.9785 18.0448C42.1577 18.5216 42.3193 19.012 42.4601 19.5016L43.9985 19.0608C43.8465 18.5296 43.6705 17.9984 43.4761 17.4816Z" fill="black"/>
<path d="M44.3903 20.6776L42.8223 20.9928C42.9231 21.4936 43.0047 22.004 43.0639 22.5096L44.6527 22.3208C44.5879 21.7736 44.4999 21.2208 44.3903 20.6776Z" fill="black"/>
<path d="M35.2536 7.30396L34.3872 8.64956C34.8144 8.92476 35.2368 9.22156 35.644 9.53276L36.6152 8.25995C36.1744 7.92315 35.7168 7.60236 35.2536 7.30396Z" fill="black"/>
<path d="M32.3234 5.73279L31.6826 7.19839C32.149 7.40238 32.613 7.62798 33.0634 7.86958L33.8202 6.45999C33.333 6.19759 32.829 5.95279 32.3234 5.73279Z" fill="black"/>
</svg>
