<svg width="24" height="24" viewBox="0 0 24 24" fill="none" xmlns="http://www.w3.org/2000/svg">
    <path d="M24 12c0-1.743-.92-3.326-2.39-4.195a3.194 3.194 0 0 0-.198-2.102 3.19 3.19 0 0 0-1.595-1.591 4.387 4.387 0 0 0-1.213-2.74A4.39 4.39 0 0 0 15.398 0 4.44 4.44 0 0 0 12 1.589 4.44 4.44 0 0 0 8.602 0a4.39 4.39 0 0 0-3.206 1.373 4.387 4.387 0 0 0-1.213 2.739 3.19 3.19 0 0 0-1.595 1.59 3.195 3.195 0 0 0-.199 2.103A4.864 4.864 0 0 0 0 12c0 1.743.92 3.326 2.39 4.195a3.195 3.195 0 0 0 .198 2.102 3.19 3.19 0 0 0 1.595 1.591 4.387 4.387 0 0 0 1.213 2.74A4.39 4.39 0 0 0 8.602 24 4.44 4.44 0 0 0 12 22.411 4.44 4.44 0 0 0 15.398 24a4.39 4.39 0 0 0 3.206-1.372 4.387 4.387 0 0 0 1.213-2.74 3.19 3.19 0 0 0 1.595-1.59c.306-.67.371-1.408.199-2.103A4.864 4.864 0 0 0 24 12zm-3.4 3.14h-3.35v-2.02h2.484a.703.703 0 0 0 .703-.704V10.36a.703.703 0 0 0-1.406 0v1.354H17.25v-1.218c0-.776-.63-1.407-1.406-1.407h-1.406a.703.703 0 0 0 0 1.407h1.406v4.646h-3.141v-1.266a.703.703 0 0 0-1.406 0v1.266c0 .775.63 1.406 1.406 1.406h7.545c.093.386.055.794-.115 1.166-.227.498-.66.86-1.187.996a.703.703 0 0 0-.528.714 3 3 0 0 1-.832 2.234 2.996 2.996 0 0 1-2.188.937 3.03 3.03 0 0 1-2.695-1.653v-1.488h1.266a.703.703 0 0 0 0-1.406h-1.266c-.775 0-1.406.63-1.406 1.406v1.488a3.03 3.03 0 0 1-2.695 1.653 2.996 2.996 0 0 1-2.188-.937 2.996 2.996 0 0 1-.787-1.544h1.686c.775 0 1.406-.63 1.406-1.406v-.869h.61a.703.703 0 0 0 0-1.406h-.61v-.87c0-.775-.631-1.406-1.406-1.406h-1.22a.703.703 0 0 0 0 1.406h1.22v3.145l-2.259.002a1.789 1.789 0 0 1-1.187-.996 1.79 1.79 0 0 1 .024-1.55.703.703 0 0 0-.357-.963A3.463 3.463 0 0 1 1.406 12c0-1.402.836-2.658 2.128-3.2a.713.713 0 0 0 .06-.03h1.093v2.11a.703.703 0 0 0 1.407 0V8.77h2.625v3.423a.703.703 0 0 0 1.406 0v-1.266h.685a.703.703 0 0 0 0-1.406h-.685v-.75c0-.776-.63-1.407-1.406-1.407h-.422v-1.88a.703.703 0 0 0-1.406 0v1.88H3.733a1.797 1.797 0 0 1 .134-1.077c.227-.498.66-.86 1.187-.996a.703.703 0 0 0 .528-.714 3 3 0 0 1 .832-2.234 2.996 2.996 0 0 1 2.188-.937 3.03 3.03 0 0 1 2.742 1.75V5.53c0 .776.63 1.407 1.406 1.407h3.75a.703.703 0 0 0 0-1.407h-.14v-.984a.703.703 0 0 0-1.407 0v.984H12.75S12.749 3 12.746 2.977a3.032 3.032 0 0 1 2.652-1.57c.835 0 1.612.332 2.188.936a3 3 0 0 1 .832 2.234.703.703 0 0 0 .528.714c.527.136.96.498 1.187.996a1.79 1.79 0 0 1-.024 1.55.703.703 0 0 0 .357.963 3.463 3.463 0 0 1 2.128 3.2c0 1.353-.778 2.57-1.995 3.14z" fill="#000"/>
</svg>
