<svg width="24" height="24" viewBox="0 0 24 24" fill="none" xmlns="http://www.w3.org/2000/svg">
    <g clip-path="url(#clxldshzwa)">
        <path d="M23.532 7.342a.703.703 0 0 0-.001-1.325L12.234 2.03a.703.703 0 0 0-.468 0L.47 6.017a.703.703 0 0 0-.001 1.325l4.475 1.591v4.587c0 .757.79 1.397 2.347 1.902 1.357.441 3.03.684 4.71.684 1.68 0 3.353-.243 4.71-.684 1.558-.505 2.347-1.145 2.347-1.902V8.933l1.848-.657v6.356a2.119 2.119 0 0 0-1.412 1.994c0 .92.59 1.704 1.412 1.995v2.685a.703.703 0 0 0 1.406 0v-2.685a2.118 2.118 0 0 0 1.412-1.995c0-.92-.59-1.704-1.412-1.994V7.776l1.221-.434zm-1.924 9.993a.71.71 0 1 1 .002-1.42.71.71 0 0 1-.002 1.42zM12 3.44l9.19 3.243L12 9.95 2.81 6.682 12 3.44zm5.651 9.975c-.135.136-.617.46-1.706.771-1.162.332-2.563.514-3.945.514-1.382 0-2.783-.182-3.945-.514-1.089-.31-1.571-.635-1.706-.771V9.433l5.415 1.925a.702.702 0 0 0 .472 0l5.415-1.925v3.98z" fill="#000"/>
    </g>
    <defs>
        <clipPath id="clxldshzwa">
            <path fill="#fff" d="M0 0h24v24H0z"/>
        </clipPath>
    </defs>
</svg>
