<svg width="24" height="24" viewBox="0 0 24 24" fill="none" xmlns="http://www.w3.org/2000/svg">
    <g clip-path="url(#rnuuyv2k8a)" fill="#000">
        <path d="M14.25 21h-4.5a.75.75 0 0 1 0-1.5h4.5a.75.75 0 0 1 0 1.5zM12 3.457a.75.75 0 0 1-.75-.75V.75a.75.75 0 0 1 1.5 0v1.957a.75.75 0 0 1-.75.75zM18.571 6.18a.75.75 0 0 1-.53-1.281l1.384-1.385a.75.75 0 1 1 1.061 1.061L19.102 5.96a.752.752 0 0 1-.531.22zM23.25 12.75h-1.957a.75.75 0 0 1 0-1.5h1.957a.75.75 0 0 1 0 1.5zM19.955 20.705a.744.744 0 0 1-.53-.22l-1.384-1.384a.75.75 0 1 1 1.061-1.06l1.384 1.383a.75.75 0 0 1-.531 1.281zM4.045 20.705a.75.75 0 0 1-.53-1.281l1.384-1.384a.75.75 0 1 1 1.06 1.061l-1.383 1.384a.748.748 0 0 1-.531.22zM2.707 12.75H.75a.75.75 0 0 1 0-1.5h1.957a.75.75 0 0 1 0 1.5zM5.429 6.18a.744.744 0 0 1-.53-.22L3.515 4.574a.75.75 0 1 1 1.06-1.06L5.96 4.897a.75.75 0 0 1-.531 1.281zM15.75 12.5a.75.75 0 0 1-.75-.75A2.752 2.752 0 0 0 12.25 9a.75.75 0 0 1 0-1.5 4.255 4.255 0 0 1 4.25 4.25.75.75 0 0 1-.75.75z"/>
        <path d="M13.25 24h-2.5C9.907 24 9 23.36 9 21.956v-1.764c0-1.061-.452-2.035-1.21-2.605-2.184-1.645-3.195-4.351-2.638-7.062.545-2.656 2.694-4.813 5.347-5.368 2.11-.444 4.268.07 5.914 1.408A6.975 6.975 0 0 1 19 12a6.955 6.955 0 0 1-2.675 5.498C15.483 18.16 15 19.082 15 20.027v2.223c0 .965-.785 1.75-1.75 1.75zM11.986 6.502c-.392 0-.787.041-1.182.123-2.076.434-3.757 2.122-4.184 4.201-.44 2.137.355 4.269 2.072 5.562 1.13.852 1.807 2.274 1.807 3.804v1.764c0 .091.012.544.25.544h2.5a.25.25 0 0 0 .25-.25v-2.223c0-1.409.692-2.76 1.898-3.709A5.46 5.46 0 0 0 17.5 12a5.483 5.483 0 0 0-2.034-4.271 5.504 5.504 0 0 0-3.48-1.227z"/>
    </g>
    <defs>
        <clipPath id="rnuuyv2k8a">
            <path fill="#fff" d="M0 0h24v24H0z"/>
        </clipPath>
    </defs>
</svg>
