<svg width="41" height="40" viewBox="0 0 41 40" fill="none" xmlns="http://www.w3.org/2000/svg">
    <path d="M35.99 27.504V24.39h2.842c.647 0 1.172-.524 1.172-1.172v-6.437c0-.647-.525-1.172-1.172-1.172h-2.843v-3.113a3.52 3.52 0 0 0-3.515-3.515H3.519a3.52 3.52 0 0 0-3.515 3.515v15.008a3.52 3.52 0 0 0 3.515 3.515h28.955a3.52 3.52 0 0 0 3.515-3.515zM3.52 28.675a1.173 1.173 0 0 1-1.173-1.171V12.496c0-.646.526-1.171 1.172-1.171h28.955c.646 0 1.172.525 1.172 1.171v15.008c0 .646-.526 1.171-1.172 1.171H3.519zm34.14-10.722v4.094h-1.67v-4.094h1.67z" fill="#000"/>
    <path d="M11.129 25.815V14.168c0-.647-.525-1.172-1.172-1.172H5.363c-.647 0-1.172.525-1.172 1.172v11.647c0 .647.525 1.172 1.172 1.172h4.594c.647 0 1.172-.525 1.172-1.172zm-4.594-1.172V15.34h2.25v9.303h-2.25zM20.066 25.815V14.168c0-.647-.524-1.172-1.172-1.172h-4.593c-.648 0-1.172.525-1.172 1.172v11.647c0 .647.524 1.172 1.172 1.172h4.593c.648 0 1.172-.525 1.172-1.172zm-4.593-1.172V15.34h2.25v9.303h-2.25zM29.004 25.815V14.168c0-.647-.525-1.172-1.172-1.172h-4.594c-.647 0-1.172.525-1.172 1.172v11.647c0 .647.525 1.172 1.172 1.172h4.594c.647 0 1.172-.525 1.172-1.172zm-4.594-1.172V15.34h2.25v9.303h-2.25z" fill="#000"/>
</svg>
