<svg width="40" height="40" viewBox="0 0 40 40" fill="none" xmlns="http://www.w3.org/2000/svg">
    <path d="M20 40c11.013 0 20-8.988 20-20C40 8.987 31.012 0 20 0 8.987 0 0 8.988 0 20c0 11.013 8.988 20 20 20zM8.527 33.409C11.405 30.18 15.614 28.28 20 28.28c4.386 0 8.595 1.9 11.473 5.128A17.58 17.58 0 0 1 20 37.656 17.58 17.58 0 0 1 8.527 33.41zm-1.442-14.58a12.912 12.912 0 0 1 2.958-7.129l1.592 1.593 1.658-1.658-1.593-1.592a12.912 12.912 0 0 1 7.128-2.958v2.29h2.344v-2.29a12.912 12.912 0 0 1 7.128 2.958l-1.593 1.592 1.658 1.658 1.592-1.593a12.914 12.914 0 0 1 2.958 7.128h-2.29v2.343h2.29a13.056 13.056 0 0 1-3.316 7.585A17.774 17.774 0 0 0 20 25.937c-3.31 0-6.673.935-9.6 2.82a13.054 13.054 0 0 1-3.315-7.585h2.29v-2.344h-2.29zM20 2.343c9.736 0 17.656 7.92 17.656 17.656 0 4.517-1.705 8.642-4.506 11.768a17.547 17.547 0 0 0-1.661-1.61A15.427 15.427 0 0 0 35.312 20c0-8.41-6.902-15.313-15.312-15.313S4.687 11.59 4.687 20c0 3.75 1.381 7.382 3.824 10.158-.59.5-1.145 1.039-1.661 1.61A17.584 17.584 0 0 1 2.344 20c0-9.736 7.92-17.656 17.656-17.656z" fill="#000"/>
    <path d="M16.484 30.625h7.032v2.344h-7.032v-2.344zM16.997 21.828A3.492 3.492 0 0 0 20 23.516 3.52 3.52 0 0 0 23.516 20c0-1.236-.631-2.36-1.688-3.003l-.06-.037-8.816-4.008 4.008 8.816.037.06zm3.661-2.798a1.173 1.173 0 1 1-1.628 1.628l-1.357-2.985 2.985 1.357z" fill="#000"/>
</svg>
