<svg width="40" height="40" viewBox="0 0 40 40" fill="none" xmlns="http://www.w3.org/2000/svg">
    <path d="M37.455 19.476 32.767 10.1c-.227-.399-.545-.648-1.048-.648H8.28c-.49 0-.817.243-1.048.648l-4.688 9.375c-.217.46-.142.924.165 1.294l16.406 18.828a1.172 1.172 0 0 0 1.768 0L37.29 20.77c.306-.368.383-.83.165-1.294zm-7.632-7.68L26.83 17.78l-4.487-5.983h7.479zm-5.136 7.032h-9.375L20 12.578l4.688 6.25zm-7.03-7.031-4.488 5.983-2.992-5.983h7.48zM8.28 13.245l2.792 5.583H5.49l2.791-5.583zM6.17 21.172h6.025l5.777 13.545L6.17 21.172zM20 33.498l-5.257-12.326h10.514L20 33.498zm2.028 1.22 5.777-13.546h6.026L22.027 34.717zm6.9-15.89 2.79-5.583 2.792 5.583h-5.583zM20 0c-.647 0-1.172.525-1.172 1.172v2.422a1.172 1.172 0 0 0 2.344 0V1.172C21.172.525 20.647 0 20 0zM15.028 5.168 13.371 3.51a1.172 1.172 0 1 0-1.658 1.658l1.658 1.657a1.172 1.172 0 1 0 1.657-1.657zM28.286 3.51a1.172 1.172 0 0 0-1.657 0l-1.657 1.658a1.172 1.172 0 1 0 1.657 1.657l1.657-1.657c.458-.458.458-1.2 0-1.658z" fill="#000"/>
</svg>
